<svg width="300" height="400" viewBox="0 0 300 400" fill="none" xmlns="http://www.w3.org/2000/svg">
<g clip-path="url(#clip0_1_246)">
<path d="M260.059 -0.0786133L40 -0.0786133C17.9086 -0.0786133 0 17.83 0 39.9214L0 360.699C0 382.791 17.9086 400.7 40 400.7L260.059 400.7C282.15 400.7 300.059 382.791 300.059 360.699L300.059 39.9214C300.059 17.83 282.15 -0.0786133 260.059 -0.0786133Z" fill="#F5F0EB"/>
<mask id="mask0_1_246" style="mask-type:luminance" maskUnits="userSpaceOnUse" x="0" y="-1" width="301" height="402">
<path d="M260.059 -0.0786133L40 -0.0786133C17.9086 -0.0786133 0 17.83 0 39.9214L0 360.699C0 382.791 17.9086 400.7 40 400.7L260.059 400.7C282.15 400.7 300.059 382.791 300.059 360.699L300.059 39.9214C300.059 17.83 282.15 -0.0786133 260.059 -0.0786133Z" fill="#FF3737"/>
</mask>
<g mask="url(#mask0_1_246)">
<g filter="url(#filter0_f_1_246)">
<path fill-rule="evenodd" clip-rule="evenodd" d="M-4.76877 122.709C-9.65017 89.6328 -16.8455 21.8747 -1.27886 -0.29801C18.9983 -26.4183 233.501 -20.7309 263.314 1.54788C276.214 10.2864 70.3496 10.7592 47.0994 39.3827C24.391 66.7503 0.650623 165.825 -4.76877 122.709Z" fill="white"/>
</g>
</g>
<mask id="mask1_1_246" style="mask-type:luminance" maskUnits="userSpaceOnUse" x="151" y="272" width="301" height="402">
<path d="M191.879 673.241H411.938C434.029 673.241 451.938 655.333 451.938 633.241L451.938 312.463C451.938 290.372 434.029 272.463 411.938 272.463L191.879 272.463C169.788 272.463 151.879 290.372 151.879 312.463L151.879 633.241C151.879 655.333 169.788 673.241 191.879 673.241Z" fill="#FF3737"/>
</mask>
<g mask="url(#mask1_1_246)">
<g filter="url(#filter1_f_1_246)">
<path fill-rule="evenodd" clip-rule="evenodd" d="M300.202 300.507C303.529 309.821 310.451 368.961 294.884 391.134C274.607 417.254 75.4484 407.592 63.3289 401.066C52.2546 395.749 241.933 401.007 268.18 366.199C289.774 336.199 294.681 284.021 300.202 300.507Z" fill="black" fill-opacity="0.196078"/>
</g>
</g>
</g>
<defs>
<filter id="filter0_f_1_246" x="-15.7726" y="-22.6538" width="284.688" height="161.101" filterUnits="userSpaceOnUse" color-interpolation-filters="sRGB">
<feFlood flood-opacity="0" result="BackgroundImageFix"/>
<feBlend mode="normal" in="SourceGraphic" in2="BackgroundImageFix" result="shape"/>
<feGaussianBlur stdDeviation="2.51" result="effect1_foregroundBlur_1_246"/>
</filter>
<filter id="filter1_f_1_246" x="57.8428" y="292.339" width="251.818" height="121.024" filterUnits="userSpaceOnUse" color-interpolation-filters="sRGB">
<feFlood flood-opacity="0" result="BackgroundImageFix"/>
<feBlend mode="normal" in="SourceGraphic" in2="BackgroundImageFix" result="shape"/>
<feGaussianBlur stdDeviation="2.51" result="effect1_foregroundBlur_1_246"/>
</filter>
<clipPath id="clip0_1_246">
<rect width="300" height="400" fill="white"/>
</clipPath>
</defs>
</svg>
