<svg width="400" height="300" viewBox="0 0 400 300" fill="none" xmlns="http://www.w3.org/2000/svg">
<g clip-path="url(#clip0_1_97)">
<path d="M103.672 24.697C120.239 24.697 135.031 27.6554 148.048 33.5721C160.896 39.4889 172.307 47.2652 182.281 56.901C191.916 66.3678 200.961 77.2715 209.413 89.6121C217.866 101.953 226.064 115.054 234.01 128.916L291.064 128.916L291.064 174.306L213.724 174.306C207.469 163.318 200.622 151.484 193.184 138.806C185.746 125.958 178.223 115.477 170.616 107.362C161.825 97.5574 152.781 89.9502 143.484 84.5406C134.017 79.131 122.014 76.4262 107.476 76.4262C88.3734 76.4262 74.1732 82.9346 64.8755 95.9515C55.4087 108.799 50.6753 125.451 50.6753 145.906C51.8824 178.634 65.0061 225.25 91.3017 253.568L91.3017 256.104L39.5725 256.104C17.6958 224.885 7.45555 174.781 7.31408 142.356C7.31408 106.01 16.1892 77.356 33.9394 56.3939C51.5206 35.2626 74.7649 24.697 103.672 24.697ZM392.494 124.859L392.494 176.588L338.99 176.588L338.99 124.859L392.494 124.859Z" fill="#D71E1E"/>
</g>
<defs>
<clipPath id="clip0_1_97">
<rect width="300" height="400" fill="white" transform="translate(6.10352e-05 300) rotate(-90)"/>
</clipPath>
</defs>
</svg>
