<svg width="400" height="300" viewBox="0 0 400 300" fill="none" xmlns="http://www.w3.org/2000/svg">
<g clip-path="url(#clip0_1_151)">
<path fill-rule="evenodd" clip-rule="evenodd" d="M83.4141 67.3939C100.096 129.412 105.323 153.665 126.268 233.552C126.171 238.977 125.34 250.087 116.76 255.224C110.841 259.982 117.441 264.927 123.502 264.661C131.836 264.296 138.794 264.063 142.703 260.181C162.654 238.517 184.025 231.103 208.443 227.958C213.655 228.289 218.446 232.581 218.092 224.765C217.508 216.896 211.462 140.501 216.398 84.3509C216.875 79.7091 212.717 78.8915 211.008 79.2005C196.392 81.843 149.646 54.862 130.533 45.8255C126.594 43.9631 126.099 34.0075 125.594 31.8919C125.629 32.0313 123.869 29.0298 121.68 30.7962C108.392 41.5153 82.2357 63.6611 83.4141 67.3939ZM118.316 88.6712C118.385 79.5847 120.747 75.2511 126.666 78.8411C148.976 89.9558 192.602 103.085 191.93 107.056C191.51 168.362 195.991 194.983 193.977 201.072C193.161 203.271 169.077 206.483 151.797 220.405C149.079 222.594 147.102 221.691 146.24 218.151C141.624 197.522 118.092 118.354 118.316 88.6712Z" fill="#B93C3C"/>
<path fill-rule="evenodd" clip-rule="evenodd" d="M30.7051 187.586C33.8846 187.299 40.1856 187.72 42.003 182.779C42.4505 178.488 50.749 167.686 63.8342 169.824C207.43 169.753 216.781 167.285 327.8 169.585C367.974 173.884 389.288 164.44 394.251 161.316C399.286 159.073 398.466 156.635 395.35 155.506C367.979 145.589 385.757 141.247 316.722 144.272C202 144.716 75.5347 146.477 66.2404 129.703C60.9205 123.077 44.3194 114.379 40.469 116.447C36.6677 114.076 -0.822859 155.128 2.64817 158.569C8.79132 164.199 19.4281 186.57 30.7051 187.586Z" fill="#B93C3C"/>
</g>
<defs>
<clipPath id="clip0_1_151">
<rect width="300" height="400" fill="white" transform="translate(3.05176e-05 300) rotate(-90)"/>
</clipPath>
</defs>
</svg>
