<svg width="400" height="300" viewBox="0 0 400 300" fill="none" xmlns="http://www.w3.org/2000/svg">
<g clip-path="url(#clip0_1_15)">
<path fill-rule="evenodd" clip-rule="evenodd" d="M109.536 148.881C119.142 124.249 185.99 97.276 238.674 77.0509C240.817 76.0611 243.142 75.459 244.416 72.9966C254.845 54.5131 270.363 33.0606 277.671 24.1218C289.48 7.44297 281.711 -1.26937 270.471 3.27313C261.812 6.70498 241.808 20.0472 235.407 23.0317C228.308 26.8367 220.166 36.755 210.508 49.5581C192.107 75.0661 151.825 90.5569 94.8258 136.556C92.6983 138.799 105.101 150.079 109.536 148.881Z" fill="#004900"/>
<path fill-rule="evenodd" clip-rule="evenodd" d="M103.966 139.058C182.465 194.823 227.289 230.076 260.836 284.165C271.011 299.12 262.501 302.248 253.29 290.704C199.13 224.189 153.612 209.714 93.4473 154.073L103.966 139.058Z" fill="#004900"/>
<path fill-rule="evenodd" clip-rule="evenodd" d="M72.0643 155.09C91.4687 176.493 114.017 189.328 127.54 215.665C134.95 227.515 143.309 227.894 141.414 212.753C137.451 188.033 122.522 160.619 110.601 140.323C99.9519 123.189 46.9516 125.318 72.0643 155.09Z" fill="#004900"/>
<path fill-rule="evenodd" clip-rule="evenodd" d="M65.2965 103.864C84.4126 109.57 99.225 114.629 118.932 126.098L131.036 112.915C94.4684 94.6498 76.7837 88.3859 74.0987 79.2542C72.4483 76.215 66.9508 78.0924 64.0865 79.6561C58.0757 82.9378 51.066 86.2438 46.7907 90.3746C38.2041 99.3377 57.3283 100.893 65.2965 103.864Z" fill="#004900"/>
<path fill-rule="evenodd" clip-rule="evenodd" d="M119.567 66.316C115.291 70.2578 116.797 74.7091 124.38 77.9424C131.468 80.8454 150.73 95.9751 168.643 114.548C175.104 120.886 181.314 115.257 174.283 105.261C158.472 88.5365 146.185 75.1108 143.803 64.8464C142.884 60.1811 145.878 52.0147 139.527 52.9311C131.89 54.5873 125.828 59.9899 119.567 66.316Z" fill="#004900"/>
<path fill-rule="evenodd" clip-rule="evenodd" d="M148.615 233.305C135.651 246.812 140.376 257.609 159.751 243.41C200.238 214.011 207.968 195.976 222.82 203.095L222.825 189.457C214.709 181.943 219.968 184.632 195.296 190.138C188.264 191.707 177.635 212.255 148.615 233.305Z" fill="#004900"/>
<path fill-rule="evenodd" clip-rule="evenodd" d="M190.641 218.238L209.261 237.688C207.238 213.01 208.939 201.853 194.549 176.743C184.815 159.086 176.068 170.085 179.432 179.922C188.414 201.255 187.424 199.872 190.641 218.238Z" fill="#004900"/>
<path fill-rule="evenodd" clip-rule="evenodd" d="M247.988 242.435C251.288 248.002 245.504 255.013 254.25 251.196C260.861 247.406 260.136 239.703 257.381 232.188C254.97 225.689 220.53 181.168 216.469 152.453L197.241 150.929C213.006 197.533 244.225 236.947 247.988 242.435Z" fill="#004900"/>
<path fill-rule="evenodd" clip-rule="evenodd" d="M141.528 136.747C138.884 139.017 134.946 144.871 144.43 147.871C148.889 148.554 153.319 146.778 160.17 147.411C201.35 150.407 213.826 159.49 230.793 162.478C239.837 163.855 246.154 159.812 233.167 153.288C218.558 148.413 208.199 142.963 165.711 126.338C158.208 125.231 149.836 129.342 141.528 136.747Z" fill="#004900"/>
<path fill-rule="evenodd" clip-rule="evenodd" d="M228.697 189.945L234.441 200.82C250.593 194.027 307.873 210.18 306.943 222.254C305.431 236.765 294.787 250.995 287.023 261.786L287.471 266.674C307.096 254.665 330.119 238.788 333.291 221.379C334.158 215.898 327.276 205.196 322.578 202.36C279.332 181.315 257.304 174.378 244.972 178.791C239.32 180.813 235.054 187.838 228.697 189.945Z" fill="#004900"/>
<path fill-rule="evenodd" clip-rule="evenodd" d="M264.833 195.28L251.746 196.776C260.786 223.139 275.746 243.574 278.857 264.106C279.952 272.27 277.216 278.45 273.427 284.071C270.398 287.857 272.974 289.683 276.932 288.922C285.279 286.792 285.071 285.567 289.172 280.306C292.202 275.387 292.414 271.432 291.865 263.489C290.286 243.36 272.127 217.616 264.833 195.28Z" fill="#004900"/>
<path fill-rule="evenodd" clip-rule="evenodd" d="M216.944 152.706L236.116 158.917C233.069 136.03 231.815 123.438 224.348 103.058C212.64 87.2281 209.475 95.6711 208.46 105.477C210.796 133.498 213.296 124.03 216.944 152.706Z" fill="#004900"/>
<path fill-rule="evenodd" clip-rule="evenodd" d="M222.928 126.514L227.183 141.631C256.534 141.982 262.116 140.943 269.689 144.015C287.495 153.346 290.776 145.736 323.269 189.407C327.696 195.521 336.306 189.916 334.966 182.804C329.918 152.581 311.819 126.359 305.05 124.6C284.975 120.482 255.086 124.167 222.928 126.514Z" fill="#004900"/>
<path fill-rule="evenodd" clip-rule="evenodd" d="M260.061 187.842L277.632 188.724C276.463 192.299 272.049 117.613 275.364 72.3581C275.139 66.3908 275.487 57.495 270.176 58.8729C255.137 69.0478 253.451 74.599 252.731 80.7512C252.918 82.8783 254.903 86.8595 254.653 89.7212C256.189 107.794 259.059 152.109 260.061 187.842Z" fill="#004900"/>
<path fill-rule="evenodd" clip-rule="evenodd" d="M299.616 107.86C308.018 96.153 316.408 91.3696 333.515 88.3374C335.443 87.9957 338.755 88.7212 339.722 83.1629C343.279 62.7327 333.508 42.0804 324.002 40.2654C304.593 39.1277 287.789 77.2123 290.033 103.779C290.95 109.252 297.872 110.272 299.616 107.86Z" fill="#004900"/>
</g>
<defs>
<clipPath id="clip0_1_15">
<rect width="300" height="400" fill="white" transform="translate(0 300) rotate(-90)"/>
</clipPath>
</defs>
</svg>
