<svg width="400" height="300" viewBox="0 0 400 300" fill="none" xmlns="http://www.w3.org/2000/svg">
<g clip-path="url(#clip0_1_61)">
<path fill-rule="evenodd" clip-rule="evenodd" d="M226.858 239.557C237.634 138.047 211.096 144.471 208.281 59.4961C205.536 40.6115 190.822 41.8608 192.264 59.9449C194.507 150.313 227.204 118.724 208.356 237.638C203.18 266.635 222.923 261.902 226.858 239.557Z" fill="#B93C3C"/>
<path fill-rule="evenodd" clip-rule="evenodd" d="M183.659 148.293C179.735 146.982 173.478 156.29 180.187 161.512C187.666 166.344 192.343 167.776 197.607 172.373C200 174.331 205.332 174.614 206.875 172.59C213.073 165.021 211.659 165.865 221.613 161.09L219.851 140.559C211.261 147.079 212.016 148.156 203.427 150.69C194.099 151.855 193.251 151.498 183.659 148.293Z" fill="#B93C3C"/>
<path fill-rule="evenodd" clip-rule="evenodd" d="M145.697 122.5C143.533 124.572 142.765 125.81 145.697 128.713L161.238 144.105C162.739 145.452 164.943 145.476 166.208 144.368L175.042 135.199C179.294 130.845 182.356 129.735 187.377 132.299C196.994 135.719 206.745 138.285 212.085 138.395L208.598 117.214C198.781 121.174 196.241 121.085 186.952 114.349C180.625 108.79 179.178 103.416 170.534 108.354L145.697 122.5Z" fill="#B93C3C"/>
<path fill-rule="evenodd" clip-rule="evenodd" d="M226.053 100.097C226.053 102.476 226.405 105.212 226.728 108.083C230.968 134.064 240.39 152.715 238.869 195.866C238.899 201.707 241.977 206.663 246.459 206.458C256.352 206.042 308.636 198.758 313.348 198.153C319.765 197.3 320.336 188.363 314.689 187.186C313.655 186.971 310.732 186.965 306.693 187.089C305.55 186.541 304.673 185.691 304.51 184.78L299.418 127.798C299.425 127.218 299.962 126.783 300.748 126.477C320.841 126.919 340.49 127.162 347.371 126.731C348.891 126.608 350.491 126.68 351.857 125.161C354.891 121.534 353.221 101.053 349.91 95.7527C348.832 94.2841 348.327 93.7528 346.08 93.5554C312.088 96.5164 268.863 94.2234 235.207 91.95C227.754 91.3535 226.052 94.8614 226.053 100.097ZM242.816 127.077C241.427 121.425 258.645 125.055 258.693 126.989L263.305 185.817C262.28 190.944 250.239 190.698 250.076 187.239C249.18 160.601 246.895 151.495 242.816 127.077ZM271.969 127.206C271.838 125.5 284.353 125.188 284.555 127.587L289.352 184.907C288.201 189.008 277.39 189.259 276.859 185.686L271.969 127.206Z" fill="#B93C3C"/>
<path fill-rule="evenodd" clip-rule="evenodd" d="M242.844 147.2L243.478 166.433L334.038 171.723C344.33 172.475 354.649 167.231 354.801 160.482L348.254 141.74L242.844 147.2Z" fill="#B93C3C"/>
<path fill-rule="evenodd" clip-rule="evenodd" d="M351.464 208.294L359.491 207.447C377.775 153.201 350.915 165.811 344.34 110.553L339.412 111.187C336.425 153.429 352.591 175.54 351.464 208.294Z" fill="#B93C3C"/>
<path fill-rule="evenodd" clip-rule="evenodd" d="M292.03 213.473C277.681 218.263 280.5 231.52 292.915 229.042C336.364 215.146 360.413 211.1 363.774 209.243C382.003 198.451 377.228 190.841 361.34 190.165C356.491 190.053 317.846 204.399 292.03 213.473Z" fill="#B93C3C"/>
<path fill-rule="evenodd" clip-rule="evenodd" d="M321.036 256.16C319.731 264.52 330.12 263.761 332.324 259.477C358.791 199.63 323.458 135.639 326.633 81.5102C327.002 79.4519 328.197 76.1977 329.835 73.2158C334.883 63.6591 349.345 69.4819 352.313 74.1922C362.158 95.7284 352.404 90.7063 363.563 114.865C365.024 117.143 366.16 123.123 365.248 125.347C362.27 134.29 357.146 141.649 352.584 147.497L358.23 158.686C366.831 151.78 370.901 141.586 374.601 133.145C377.815 126.398 377.455 119.019 377.607 114.116C377.951 89.0081 368.31 65.5271 366.851 53.7133C366.321 50.2553 360.326 46.23 357.542 44.6627C341.669 34.9713 338.971 38.9745 322.353 45.7484C316.12 49.5977 314.341 60.7286 313.548 66.5759C310.974 127.294 332.36 204.83 321.036 256.16Z" fill="#B93C3C"/>
<path fill-rule="evenodd" clip-rule="evenodd" d="M22.8308 99.7465C22.9215 110.227 23.8277 122.409 25.7945 136.764C31.0565 168.498 54.6106 223.26 47.425 240.26C44.218 247.353 39.4889 255.477 35.6538 262.924C30.4971 272.352 33.0726 278.231 44.5784 273.499L117.115 211.075C123.177 207.078 122.115 199.303 120.721 193.417C106.262 152.066 111.128 127.259 121.088 92.9162C123.221 84.9725 121.816 81.2146 117.367 75.3881C100.871 55.9042 77.1419 28.372 69.7861 27.8761C66.3895 27.2744 46.3165 24.373 41.8939 31.0085C32.5838 46.5818 22.5072 62.3163 22.8308 99.7465ZM51.4835 65.9017C55.2453 61.4846 60.327 62.5547 64.9004 65.5241C77.5122 73.3495 87.1071 80.1719 97.9544 93.5303C99.6239 95.8409 101.339 98.1282 101.462 100.694C99.5915 116.468 89.3193 107.011 102.776 183.786C102.867 189.016 101.868 191.337 100.093 193.23L63.3624 222.501C58.1453 225.345 59.0233 219.815 59.0013 216.268C59.1074 173.135 19.9531 112.262 51.4835 65.9017Z" fill="black"/>
<path fill-rule="evenodd" clip-rule="evenodd" d="M40.9723 182.188C61.8052 179.149 82.6381 178.328 103.471 177.872L102.997 161.62C80.8206 145.916 59.3692 152.128 37.1773 155.735L40.9723 182.188Z" fill="black"/>
<path fill-rule="evenodd" clip-rule="evenodd" d="M24.5825 102.531C6.36564 107.004 15.8838 125.439 24.0099 127.67L101.099 141.241L102.048 124.278C75.0317 113.183 40.1479 100.027 33.5009 94.2675L24.5825 102.531Z" fill="black"/>
</g>
<defs>
<clipPath id="clip0_1_61">
<rect width="300" height="400" fill="white" transform="translate(-6.10352e-05 300) rotate(-90)"/>
</clipPath>
</defs>
</svg>
