<svg width="400" height="300" viewBox="0 0 400 300" fill="none" xmlns="http://www.w3.org/2000/svg">
<g clip-path="url(#clip0_1_77)">
<path fill-rule="evenodd" clip-rule="evenodd" d="M226.858 239.557C237.635 138.047 211.096 144.471 208.281 59.4959C205.536 40.6113 190.822 41.8607 192.264 59.9447C194.507 150.313 227.204 118.724 208.356 237.638C203.18 266.635 222.924 261.902 226.858 239.557Z" fill="#D71E1E"/>
<path fill-rule="evenodd" clip-rule="evenodd" d="M183.66 148.293C179.735 146.981 173.478 156.29 180.187 161.512C187.667 166.343 192.343 167.776 197.607 172.372C200 174.331 205.332 174.614 206.875 172.589C213.074 165.021 211.659 165.865 221.613 161.09L219.851 140.559C211.262 147.079 212.016 148.156 203.427 150.69C194.1 151.855 193.251 151.498 183.66 148.293Z" fill="#D71E1E"/>
<path fill-rule="evenodd" clip-rule="evenodd" d="M145.698 122.5C143.533 124.572 142.765 125.81 145.698 128.713L161.238 144.105C162.739 145.452 164.943 145.476 166.208 144.368L175.042 135.199C179.294 130.845 182.356 129.735 187.377 132.299C196.994 135.719 206.745 138.285 212.085 138.395L208.598 117.214C198.781 121.174 196.241 121.085 186.952 114.349C180.625 108.79 179.178 103.416 170.535 108.354L145.698 122.5Z" fill="#D71E1E"/>
<path fill-rule="evenodd" clip-rule="evenodd" d="M226.053 100.096C226.053 102.476 226.405 105.212 226.729 108.083C230.968 134.064 240.39 152.715 238.869 195.866C238.899 201.707 241.977 206.663 246.459 206.458C256.352 206.042 308.636 198.758 313.348 198.153C319.765 197.3 320.336 188.363 314.689 187.186C313.655 186.971 310.732 186.965 306.693 187.089C305.55 186.541 304.673 185.691 304.51 184.78L299.418 127.797C299.425 127.218 299.963 126.783 300.748 126.477C320.841 126.919 340.49 127.161 347.371 126.731C348.891 126.608 350.491 126.68 351.857 125.161C354.891 121.534 353.221 101.053 349.91 95.7526C348.832 94.284 348.327 93.7527 346.08 93.5553C312.088 96.5163 268.863 94.2233 235.207 91.9498C227.754 91.3534 226.052 94.8612 226.053 100.096ZM242.816 127.077C241.427 121.425 258.645 125.055 258.693 126.989L263.305 185.817C262.281 190.944 250.239 190.697 250.076 187.239C249.18 160.6 246.895 151.495 242.816 127.077ZM271.969 127.206C271.838 125.5 284.353 125.188 284.555 127.587L289.352 184.907C288.201 189.008 277.39 189.259 276.859 185.686L271.969 127.206Z" fill="#D71E1E"/>
<path fill-rule="evenodd" clip-rule="evenodd" d="M242.844 147.199L243.479 166.432L334.038 171.723C344.33 172.474 354.649 167.231 354.801 160.482L348.254 141.74L242.844 147.199Z" fill="#D71E1E"/>
<path fill-rule="evenodd" clip-rule="evenodd" d="M351.464 208.293L359.491 207.447C377.775 153.201 350.915 165.811 344.34 110.553L339.412 111.187C336.425 153.429 352.591 175.54 351.464 208.293Z" fill="#D71E1E"/>
<path fill-rule="evenodd" clip-rule="evenodd" d="M292.031 213.473C277.681 218.263 280.5 231.52 292.916 229.042C336.364 215.146 360.413 211.1 363.774 209.243C382.003 198.451 377.228 190.841 361.34 190.165C356.491 190.053 317.846 204.399 292.031 213.473Z" fill="#D71E1E"/>
<path fill-rule="evenodd" clip-rule="evenodd" d="M321.036 256.16C319.732 264.519 330.12 263.761 332.324 259.477C358.791 199.63 323.458 135.639 326.633 81.5101C327.002 79.4519 328.197 76.1976 329.835 73.2158C334.883 63.6591 349.345 69.4818 352.314 74.1921C362.159 95.7283 352.405 90.7063 363.563 114.865C365.024 117.143 366.16 123.123 365.248 125.347C362.27 134.29 357.146 141.649 352.584 147.497L358.23 158.686C366.831 151.78 370.901 141.586 374.601 133.145C377.815 126.398 377.455 119.019 377.607 114.116C377.952 89.008 368.31 65.527 366.851 53.7132C366.321 50.2552 360.326 46.23 357.542 44.6627C341.669 34.9712 338.972 38.9744 322.353 45.7483C316.121 49.5977 314.341 60.7285 313.548 66.5758C310.974 127.293 332.36 204.83 321.036 256.16Z" fill="#D71E1E"/>
<path fill-rule="evenodd" clip-rule="evenodd" d="M21.0229 180.605C25.6492 187.526 26.8379 191.257 36.6057 194.1C38.1852 194.551 44.3883 194.893 48.6435 192.812C66.3074 174.78 104.684 239.953 120.837 263.252C130.777 278.417 141.924 273.26 132.155 253.369C120.219 227.704 106.32 182.468 70.3886 173.577C66.447 173.491 64.7874 170.862 63.8489 167.104C62.4397 161.352 36.3636 166.404 29.5676 169.71C22.7717 173.016 19.7263 178.367 21.0229 180.605Z" fill="#D71E1E"/>
<path fill-rule="evenodd" clip-rule="evenodd" d="M86.1993 199.117C90.7831 197.919 102.556 193.742 107.491 194.504C116.508 198.017 119.936 202.928 129.532 204.89C134.811 205.73 151.132 188.466 148.552 183.508C144.255 177.175 135.366 173.81 131.373 173.914C112.168 174.602 98.569 185.542 76.4608 185.937L86.1993 199.117Z" fill="#D71E1E"/>
<path fill-rule="evenodd" clip-rule="evenodd" d="M28.1184 173.325C43.4518 132.049 12.0355 114.307 3.9233 76.9933C1.59725 66.2941 6.22067 55.6391 8.03737 47.4293C12.4982 29.6735 39.4005 43.6961 33.1462 57.2499C17.2031 89.5303 41.2057 117.21 48.7111 147.849C49.1208 150.115 46.0331 151.5 43.936 152.947C37.1423 157.636 42.7472 164.712 40.628 170.482L28.1184 173.325Z" fill="#D71E1E"/>
<path fill-rule="evenodd" clip-rule="evenodd" d="M35.005 124.725L41.84 152.773C52.5307 144.076 94.6894 164.672 122.336 175.027L118.535 149.856C89.7644 147.328 63.1121 131.228 35.005 124.725Z" fill="#D71E1E"/>
<path fill-rule="evenodd" clip-rule="evenodd" d="M64.5502 185.754C99.0253 171.804 50.7151 124.696 53.5014 94.6009L72.6934 94.6009C67.0941 125.48 107.811 177.295 79.3265 189.641L64.5502 185.754Z" fill="#D71E1E"/>
<path fill-rule="evenodd" clip-rule="evenodd" d="M44.2538 100.876C43.7936 103.336 51.4198 110.364 54.1814 110.347C78.3798 109.739 102.038 110.273 126.236 112.243C137.569 112.957 128.592 91.1367 123.224 90.2343C97.8879 87.2009 49.6765 88.5056 48.4808 90.4622C46.491 93.4824 45.1629 96.401 44.2538 100.876Z" fill="#D71E1E"/>
<path fill-rule="evenodd" clip-rule="evenodd" d="M120.888 187.067C90.1677 90.5396 112.758 40.3055 118.66 37.4948C121.899 35.5981 128.65 36.008 132.031 38.0017C156.811 54.6535 93.1299 143.631 142.613 183.755L120.888 187.067Z" fill="#D71E1E"/>
<path d="M87.9362 246.586C87.9362 235.66 79.079 226.803 68.1531 226.803C57.2272 226.803 48.37 235.66 48.37 246.586C48.37 257.512 57.2272 266.369 68.1531 266.369C79.079 266.369 87.9362 257.512 87.9362 246.586Z" fill="#D71E1E"/>
</g>
<defs>
<clipPath id="clip0_1_77">
<rect width="300" height="400" fill="white" transform="translate(6.10352e-05 300) rotate(-90)"/>
</clipPath>
</defs>
</svg>
