<svg width="400" height="300" viewBox="0 0 400 300" fill="none" xmlns="http://www.w3.org/2000/svg">
<g clip-path="url(#clip0_1_431)">
<path fill-rule="evenodd" clip-rule="evenodd" d="M226.858 239.557C237.635 138.047 211.096 144.471 208.281 59.4959C205.536 40.6113 190.822 41.8607 192.264 59.9447C194.507 150.313 227.204 118.724 208.356 237.638C203.18 266.635 222.924 261.902 226.858 239.557Z" fill="#B93C3C"/>
<path fill-rule="evenodd" clip-rule="evenodd" d="M183.66 148.293C179.735 146.981 173.478 156.29 180.187 161.512C187.667 166.343 192.343 167.776 197.607 172.372C200 174.331 205.332 174.614 206.875 172.589C213.074 165.021 211.659 165.865 221.613 161.09L219.851 140.559C211.262 147.079 212.016 148.156 203.427 150.69C194.1 151.855 193.251 151.498 183.66 148.293Z" fill="#B93C3C"/>
<path fill-rule="evenodd" clip-rule="evenodd" d="M145.698 122.5C143.533 124.572 142.765 125.81 145.698 128.713L161.238 144.105C162.739 145.452 164.943 145.476 166.208 144.368L175.042 135.199C179.294 130.845 182.356 129.735 187.377 132.299C196.994 135.719 206.745 138.285 212.085 138.395L208.598 117.214C198.781 121.174 196.241 121.085 186.952 114.349C180.625 108.79 179.178 103.416 170.535 108.354L145.698 122.5Z" fill="#B93C3C"/>
<path fill-rule="evenodd" clip-rule="evenodd" d="M226.053 100.096C226.053 102.476 226.405 105.212 226.729 108.083C230.968 134.064 240.39 152.715 238.869 195.866C238.899 201.707 241.977 206.663 246.459 206.458C256.352 206.042 308.636 198.758 313.348 198.153C319.765 197.3 320.336 188.363 314.689 187.186C313.655 186.971 310.732 186.965 306.693 187.089C305.55 186.541 304.673 185.691 304.51 184.78L299.418 127.797C299.425 127.218 299.963 126.783 300.748 126.477C320.841 126.919 340.49 127.161 347.371 126.731C348.891 126.608 350.491 126.68 351.857 125.161C354.891 121.534 353.221 101.053 349.91 95.7526C348.832 94.284 348.327 93.7527 346.08 93.5553C312.088 96.5163 268.863 94.2233 235.207 91.9498C227.754 91.3534 226.052 94.8612 226.053 100.096ZM242.816 127.077C241.427 121.425 258.645 125.055 258.693 126.989L263.305 185.817C262.281 190.944 250.239 190.697 250.076 187.239C249.18 160.6 246.895 151.495 242.816 127.077ZM271.969 127.206C271.838 125.5 284.353 125.188 284.555 127.587L289.352 184.907C288.201 189.008 277.39 189.259 276.859 185.686L271.969 127.206Z" fill="#B93C3C"/>
<path fill-rule="evenodd" clip-rule="evenodd" d="M242.844 147.199L243.479 166.432L334.038 171.723C344.33 172.474 354.649 167.231 354.801 160.482L348.254 141.74L242.844 147.199Z" fill="#B93C3C"/>
<path fill-rule="evenodd" clip-rule="evenodd" d="M351.464 208.293L359.491 207.447C377.775 153.201 350.915 165.811 344.34 110.553L339.412 111.187C336.425 153.429 352.591 175.54 351.464 208.293Z" fill="#B93C3C"/>
<path fill-rule="evenodd" clip-rule="evenodd" d="M292.031 213.473C277.681 218.263 280.5 231.52 292.916 229.042C336.364 215.146 360.413 211.1 363.774 209.243C382.003 198.451 377.228 190.841 361.34 190.165C356.491 190.053 317.846 204.399 292.031 213.473Z" fill="#B93C3C"/>
<path fill-rule="evenodd" clip-rule="evenodd" d="M321.036 256.16C319.732 264.519 330.12 263.761 332.324 259.477C358.791 199.63 323.458 135.639 326.633 81.5101C327.002 79.4519 328.197 76.1976 329.835 73.2158C334.883 63.6591 349.345 69.4818 352.314 74.1921C362.159 95.7283 352.405 90.7063 363.563 114.865C365.024 117.143 366.16 123.123 365.248 125.347C362.27 134.29 357.146 141.649 352.584 147.497L358.23 158.686C366.831 151.78 370.901 141.586 374.601 133.145C377.815 126.398 377.455 119.019 377.607 114.116C377.952 89.008 368.31 65.527 366.851 53.7132C366.321 50.2552 360.326 46.23 357.542 44.6627C341.669 34.9712 338.972 38.9744 322.353 45.7483C316.121 49.5977 314.341 60.7285 313.548 66.5758C310.974 127.293 332.36 204.83 321.036 256.16Z" fill="#B93C3C"/>
<path fill-rule="evenodd" clip-rule="evenodd" d="M9.15992 161.269C2.20911 167.93 3.38905 170.413 7.20881 175.279C11.2065 179.179 13.4358 182.893 21.3544 184.682C25.7129 185.649 34.3965 184.818 41.841 182.731C45.5026 181.444 49.2221 176.712 50.621 171.726C51.1628 170.017 59.2926 172.348 63.6284 174.164L62.6528 155.954C57.7526 157.496 49.8148 161.446 48.3447 160.507C40.363 155.407 29.6209 149.672 25.5818 149.646C21.9005 149.576 15.4187 155.273 9.15992 161.269Z" fill="black"/>
<path fill-rule="evenodd" clip-rule="evenodd" d="M77.8277 235.45C76.6277 247.043 61.9793 258.99 63.5196 232.422C66.7654 189.921 63.2731 157.228 37.9089 100.732C36.2229 93.8236 50.2532 42.4079 55.4688 40.2999C63.3774 37.6463 85.8 41.3285 84.9626 52.9658C79.7576 69.4381 60.5071 106.394 63.9795 119.34C76.138 168.796 81.0972 185.978 77.8277 235.45Z" fill="black"/>
<path fill-rule="evenodd" clip-rule="evenodd" d="M80.6433 166.129C78.504 170.152 94.1483 190.598 97.0329 191.026C102.358 191.871 109.953 186.239 111.222 188.726C129.427 223.864 130.506 236.109 133.71 254.194C137.907 275.618 149.63 270.266 147.874 254.194C142.579 203.354 136.088 214.473 125.892 162.02C124.995 157.941 107.835 150.151 101.1 150.151C95.3701 150.151 83.6648 160.428 80.6433 166.129Z" fill="black"/>
<path fill-rule="evenodd" clip-rule="evenodd" d="M89.8837 139.493C89.7657 141.525 90.5461 142.059 91.6977 141.573C117.595 130.666 153.156 82.7783 147.819 80.2472C130.699 72.811 128.247 75.0663 123.129 78.2185C104.033 90.0739 91.1392 121.43 89.8837 139.493Z" fill="black"/>
</g>
<defs>
<clipPath id="clip0_1_431">
<rect width="300" height="400" fill="white" transform="translate(6.10352e-05 300) rotate(-90)"/>
</clipPath>
</defs>
</svg>
