<svg width="400" height="300" viewBox="0 0 400 300" fill="none" xmlns="http://www.w3.org/2000/svg">
<g clip-path="url(#clip0_1_156)">
<path fill-rule="evenodd" clip-rule="evenodd" d="M226.858 239.557C237.635 138.047 211.096 144.471 208.281 59.4959C205.536 40.6113 190.822 41.8607 192.264 59.9447C194.507 150.313 227.204 118.724 208.356 237.638C203.18 266.635 222.924 261.902 226.858 239.557Z" fill="#B93C3C"/>
<path fill-rule="evenodd" clip-rule="evenodd" d="M183.659 148.293C179.735 146.981 173.478 156.29 180.187 161.512C187.666 166.343 192.343 167.776 197.607 172.372C200 174.331 205.332 174.614 206.875 172.589C213.073 165.021 211.659 165.865 221.613 161.09L219.851 140.559C211.261 147.079 212.016 148.156 203.427 150.69C194.1 151.855 193.251 151.498 183.659 148.293Z" fill="#B93C3C"/>
<path fill-rule="evenodd" clip-rule="evenodd" d="M145.697 122.5C143.533 124.572 142.765 125.809 145.697 128.713L161.238 144.104C162.739 145.452 164.943 145.476 166.208 144.368L175.042 135.198C179.294 130.845 182.356 129.734 187.377 132.299C196.994 135.718 206.745 138.285 212.085 138.395L208.598 117.214C198.781 121.174 196.241 121.085 186.952 114.349C180.625 108.79 179.178 103.416 170.534 108.354L145.697 122.5Z" fill="#B93C3C"/>
<path fill-rule="evenodd" clip-rule="evenodd" d="M226.053 100.096C226.053 102.476 226.405 105.212 226.729 108.083C230.968 134.064 240.39 152.715 238.869 195.866C238.899 201.707 241.977 206.663 246.459 206.458C256.352 206.042 308.636 198.758 313.348 198.153C319.765 197.3 320.336 188.363 314.689 187.186C313.655 186.971 310.732 186.965 306.693 187.089C305.55 186.541 304.673 185.691 304.51 184.78L299.418 127.797C299.425 127.218 299.963 126.783 300.748 126.477C320.841 126.919 340.49 127.161 347.371 126.731C348.891 126.608 350.491 126.68 351.857 125.161C354.891 121.534 353.221 101.053 349.91 95.7526C348.832 94.284 348.327 93.7527 346.08 93.5553C312.088 96.5163 268.863 94.2233 235.207 91.9498C227.754 91.3534 226.052 94.8612 226.053 100.096ZM242.816 127.077C241.427 121.425 258.645 125.055 258.693 126.989L263.305 185.817C262.281 190.944 250.239 190.697 250.076 187.239C249.18 160.6 246.895 151.495 242.816 127.077ZM271.969 127.206C271.838 125.5 284.353 125.188 284.555 127.587L289.352 184.907C288.201 189.008 277.39 189.259 276.859 185.686L271.969 127.206Z" fill="#B93C3C"/>
<path fill-rule="evenodd" clip-rule="evenodd" d="M242.844 147.199L243.478 166.432L334.038 171.723C344.33 172.474 354.649 167.231 354.801 160.482L348.254 141.74L242.844 147.199Z" fill="#B93C3C"/>
<path fill-rule="evenodd" clip-rule="evenodd" d="M351.464 208.293L359.491 207.447C377.775 153.201 350.915 165.81 344.34 110.553L339.412 111.187C336.425 153.429 352.591 175.54 351.464 208.293Z" fill="#B93C3C"/>
<path fill-rule="evenodd" clip-rule="evenodd" d="M292.03 213.473C277.681 218.263 280.5 231.52 292.915 229.042C336.364 215.145 360.413 211.1 363.774 209.243C382.003 198.451 377.228 190.841 361.34 190.165C356.491 190.053 317.846 204.399 292.03 213.473Z" fill="#B93C3C"/>
<path fill-rule="evenodd" clip-rule="evenodd" d="M321.036 256.16C319.731 264.519 330.12 263.761 332.324 259.477C358.791 199.63 323.458 135.639 326.633 81.5101C327.002 79.4518 328.197 76.1975 329.835 73.2157C334.883 63.659 349.345 69.4818 352.313 74.1921C362.158 95.7282 352.404 90.7062 363.563 114.865C365.024 117.143 366.16 123.122 365.248 125.347C362.27 134.29 357.146 141.649 352.584 147.497L358.23 158.686C366.831 151.78 370.901 141.586 374.601 133.145C377.815 126.398 377.455 119.019 377.607 114.116C377.951 89.0079 368.31 65.527 366.851 53.7131C366.321 50.2551 360.326 46.2299 357.542 44.6626C341.669 34.9712 338.971 38.9744 322.353 45.7482C316.12 49.5976 314.341 60.7285 313.548 66.5757C310.974 127.293 332.36 204.83 321.036 256.16Z" fill="#B93C3C"/>
<path fill-rule="evenodd" clip-rule="evenodd" d="M78.9018 179.21C78.0047 184.11 98.6149 192.936 101.277 196.55C116.112 217.021 117.419 233.019 124.013 255.478C127.549 267.271 138.948 266.009 136.425 252.309C131.27 229.693 125.563 162.852 97.6115 156.841C86.9022 154.937 81.6634 169.644 78.9018 179.21Z" fill="black"/>
<path fill-rule="evenodd" clip-rule="evenodd" d="M32.9714 169.426C27.8883 167.792 19.3718 154.395 17.7358 145.074C16.6998 135.617 63.6475 117.731 70.5329 110.814C82.5049 97.5435 119.307 25.6802 137.277 30.6503C147.408 33.6485 119.258 87.8384 103.86 116.147C92.5431 132.043 73.2676 144.515 50.5559 152.409C45.5372 153.817 37.7767 171.147 32.9714 169.426Z" fill="black"/>
</g>
<defs>
<clipPath id="clip0_1_156">
<rect width="300" height="400" fill="white" transform="translate(0 300) rotate(-90)"/>
</clipPath>
</defs>
</svg>
