<svg width="400" height="300" viewBox="0 0 400 300" fill="none" xmlns="http://www.w3.org/2000/svg">
<g clip-path="url(#clip0_1_448)">
<path fill-rule="evenodd" clip-rule="evenodd" d="M22.7094 129.92C22.2222 136.357 48.0858 159.514 57.1831 165.574C64.1186 171.121 68.3622 160.904 74.2422 156.943C82.3384 151.943 164.546 155.753 209.975 165.063L207.655 149.998C170.421 140.11 101.267 132.795 95.0804 125.392C89.4066 118.346 90.0038 102.336 81.6046 104.281C62.8501 108.306 22.9215 124.196 22.7094 129.92Z" fill="#19328C"/>
<path fill-rule="evenodd" clip-rule="evenodd" d="M130.641 186.406C131.524 204.83 141.385 214.455 145.205 187.428C146.555 155.579 139.22 89.1377 129.927 89.0624C117.487 88.5754 99.4322 98.4909 99.5441 104.381C99.611 109.065 105.653 118.608 112.955 119.475C121.517 120.227 129.618 169.142 130.641 186.406Z" fill="#19328C"/>
<path fill-rule="evenodd" clip-rule="evenodd" d="M182.788 155.574C172.178 130.608 162.264 110.84 148.854 87.2315C144.436 78.9484 153.526 71.2 159.395 72.8983C163.209 74.0021 186.281 86.6178 187.181 75.5242C195.246 85.554 219.118 112.604 255.284 128.125L253.176 152.309C226.393 141.93 181.682 102.275 178.748 104.962C173.64 109.541 192.348 146.021 189.989 153.991L182.788 155.574Z" fill="#19328C"/>
<path fill-rule="evenodd" clip-rule="evenodd" d="M227.505 248.476C205.78 209.433 186.138 122.904 185.021 53.1264C184.462 44.2477 237.626 23.0168 246.811 23.2044C272.954 23.7875 335.7 67.456 373.485 94.547C379.936 100.189 378.352 112.954 372.864 121.523L341.16 167.824C337.092 172.503 328.513 170.75 333.382 162.905C339.961 152.541 348.306 131.343 349.889 119.596C351.368 108.81 263.355 72.7104 248.514 70.5509C241.776 69.2819 209.097 77.8394 208.064 93.2771C212.074 197.733 244.018 232.701 245.476 246.721L227.505 248.476Z" fill="#19328C"/>
<path fill-rule="evenodd" clip-rule="evenodd" d="M190.049 270.988C192.533 279.1 203.03 276.387 209.369 275.233C252.808 265.72 335.272 230.105 340.184 222.987C352.721 201.074 344.365 192.505 334.915 192.878C325.754 193.985 250.099 222.371 210.167 240.19C197.409 246.344 187.63 261.671 190.049 270.988Z" fill="#19328C"/>
<path fill-rule="evenodd" clip-rule="evenodd" d="M169.718 237.847C163.242 251.202 151.51 246.89 158.574 228.826C174.359 187.815 200.73 172.103 252.669 158.703L256.884 173.768C207.747 186.701 189.519 202.103 169.718 237.847Z" fill="#19328C"/>
<path fill-rule="evenodd" clip-rule="evenodd" d="M277.69 187.185C283.619 202.676 259.6 199.877 256.566 189.385C233.314 117.182 235.314 113.798 240.264 101.727C245.047 90.1827 262.311 86.0511 261.455 101.385C259.478 131.761 264.016 155.527 277.69 187.185Z" fill="#19328C"/>
<path fill-rule="evenodd" clip-rule="evenodd" d="M293.684 184.224C296.404 194.18 312.034 191.058 309.705 181.031C304.017 154.982 300.633 136.646 296.651 109.88C295.27 101.814 273.974 102.066 270.653 109.356C267.613 119.182 274.287 120.282 276.793 124.601C283.028 136.425 287.288 160.853 293.684 184.224Z" fill="#19328C"/>
<path fill-rule="evenodd" clip-rule="evenodd" d="M259.688 162.265C285.603 160.091 314.678 157.479 340.593 160.562L350.279 143.495C320.474 140.449 286.804 137.15 256.999 139.354L259.688 162.265Z" fill="#19328C"/>
</g>
<defs>
<clipPath id="clip0_1_448">
<rect width="300" height="400" fill="white" transform="translate(0 300) rotate(-90)"/>
</clipPath>
</defs>
</svg>
