<svg width="400" height="300" viewBox="0 0 400 300" fill="none" xmlns="http://www.w3.org/2000/svg">
<g clip-path="url(#clip0_1_296)">
<path fill-rule="evenodd" clip-rule="evenodd" d="M160.401 266.84C167.914 272.64 187.971 246.773 194.011 227.813C196.295 221.686 176.487 202.689 171.951 210.11C161.383 230.516 154.829 262.717 160.401 266.84Z" fill="#142896"/>
<path fill-rule="evenodd" clip-rule="evenodd" d="M163.968 232.008C251.885 255.39 242.553 248.542 296.629 288.825C313.096 295.319 327.251 273.965 320.958 263.51C311.269 249.041 300.096 232.701 287.545 222.505C264.756 203.993 201.41 118.984 183.646 61.4816C180.069 49.9014 180.583 39.107 178.298 28.5372C176.04 20.5929 164.235 28.5737 159.766 32.937C144.269 47.6435 135.101 73.5455 141.21 82.0292C143.05 85.7514 168.816 80.2219 171.235 84.7367C192.593 128.372 247.718 209.267 275.945 246.034C276.586 247.41 270.979 244.777 269.162 243.869C252.99 235.791 207.61 227.003 161.436 222.588C151.061 222.171 154.67 230.466 163.968 232.008Z" fill="#142896"/>
<path fill-rule="evenodd" clip-rule="evenodd" d="M105.354 188.003C104.359 197.385 113.603 202.508 122.644 201.433C130.311 200.522 140.13 200.261 148.452 192.226C155.005 186.939 204.729 190.867 246.783 190.969C249.73 190.976 250.355 193.236 253.196 193.186C260.605 193.195 279.281 189.314 279.435 184.497C279.213 179.999 272.314 173.502 262.43 173.165C215.613 170.63 154.044 166.331 146.174 162.624C136.257 157.953 138.924 149.899 129.453 149.092C116.198 147.901 108.287 167.007 105.354 188.003Z" fill="#142896"/>
<path fill-rule="evenodd" clip-rule="evenodd" d="M58.6534 121.296C58.6534 131.636 87.0639 151.695 93.0393 151.753C100.715 151.643 107.741 132.33 119.172 132.719C184.404 133.085 288.796 150.214 305.858 137.105C328.836 117.871 307.606 25.8081 302.911 20.1036C295.471 11.0262 288.011 7.07685 280.478 10.2791C272.187 13.7111 290.927 82.104 279.823 112.216C275.181 124.856 185.608 115.948 132.992 115.729C121.02 115.088 107.458 91.6009 102.209 91.4953C92.0182 91.1211 59.8801 108.697 58.6534 121.296Z" fill="#142896"/>
</g>
<defs>
<clipPath id="clip0_1_296">
<rect width="300" height="400" fill="white" transform="translate(0 300) rotate(-90)"/>
</clipPath>
</defs>
</svg>
