<svg width="400" height="300" viewBox="0 0 400 300" fill="none" xmlns="http://www.w3.org/2000/svg">
<g clip-path="url(#clip0_1_372)">
<path d="M342.905 150.057C342.905 71.1181 278.912 7.12537 199.973 7.12538C121.034 7.12538 57.0413 71.1181 57.0413 150.057C57.0413 228.996 121.034 292.989 199.973 292.989C278.912 292.989 342.905 228.996 342.905 150.057Z" fill="white" stroke="black" stroke-width="8.96272" stroke-linejoin="round"/>
<path d="M329.505 150.057C329.505 78.5186 271.512 20.5252 199.973 20.5252C128.435 20.5252 70.4412 78.5186 70.4412 150.057C70.4412 221.596 128.435 279.589 199.973 279.589C271.512 279.589 329.505 221.596 329.505 150.057Z" fill="#000037" stroke="#000037" stroke-width="8.96272" stroke-linejoin="round"/>
<path d="M132.187 156.595C58.0983 163.985 58.0956 135.082 132.187 142.939" stroke="white" stroke-width="8" stroke-linecap="round"/>
<path d="M134.665 133.436C62.517 115.041 72.4001 87.8791 139.336 120.603" stroke="white" stroke-width="8" stroke-linecap="round"/>
<path d="M144.244 112.192C82.7388 70.2305 101.316 48.0873 153.022 101.731" stroke="white" stroke-width="8" stroke-linecap="round"/>
<path d="M160.511 95.5064C117.067 35.0391 142.097 20.5849 172.338 88.6781" stroke="white" stroke-width="8" stroke-linecap="round"/>
<path d="M181.504 85.3903C161.361 13.7109 189.825 8.68917 194.953 83.0189" stroke="white" stroke-width="8" stroke-linecap="round"/>
<path d="M204.691 83.0644C210.279 8.81851 238.743 13.8349 218.14 85.4359" stroke="white" stroke-width="8" stroke-linecap="round"/>
<path d="M227.275 88.8092C257.919 20.9519 282.952 35.4013 239.102 95.6374" stroke="white" stroke-width="8" stroke-linecap="round"/>
<path d="M246.532 101.932C298.537 48.6477 317.118 70.7874 255.311 112.393" stroke="white" stroke-width="8" stroke-linecap="round"/>
<path d="M260.14 120.849C327.233 88.565 337.121 115.725 264.811 133.682" stroke="white" stroke-width="8" stroke-linecap="round"/>
<path d="M266.457 143.28C340.545 135.89 340.548 164.793 266.457 156.936" stroke="white" stroke-width="8" stroke-linecap="round"/>
<path d="M264.721 166.518C336.869 184.914 326.986 212.075 260.05 179.351" stroke="white" stroke-width="8" stroke-linecap="round"/>
<path d="M255.142 187.762C316.647 229.724 298.071 251.867 246.364 198.223" stroke="white" stroke-width="8" stroke-linecap="round"/>
<path d="M238.875 204.448C282.319 264.915 257.289 279.369 227.048 211.276" stroke="white" stroke-width="8" stroke-linecap="round"/>
<path d="M217.882 214.564C238.025 286.243 209.561 291.265 204.433 216.935" stroke="white" stroke-width="8" stroke-linecap="round"/>
<path d="M194.695 216.89C189.108 291.136 160.643 286.119 181.246 214.518" stroke="white" stroke-width="8" stroke-linecap="round"/>
<path d="M172.111 211.145C141.467 279.002 116.434 264.553 160.284 204.317" stroke="white" stroke-width="8" stroke-linecap="round"/>
<path d="M152.854 198.023C100.849 251.307 82.2681 229.167 144.076 187.561" stroke="white" stroke-width="8" stroke-linecap="round"/>
<path d="M139.246 179.105C72.1534 211.389 62.2652 184.23 134.575 166.272" stroke="white" stroke-width="8" stroke-linecap="round"/>
<path d="M275.435 150.057C275.435 108.381 241.65 74.5949 199.973 74.5949C158.296 74.5949 124.511 108.381 124.511 150.057C124.511 191.734 158.296 225.519 199.973 225.519C241.65 225.519 275.435 191.734 275.435 150.057Z" fill="white" stroke="#000037" stroke-width="9.14763" stroke-linejoin="round"/>
<path d="M264.573 150.057C264.573 114.379 235.651 85.4567 199.973 85.4567C164.295 85.4567 135.373 114.379 135.373 150.057C135.373 185.735 164.295 214.658 199.973 214.658C235.651 214.658 264.573 185.735 264.573 150.057Z" fill="#B93C3C"/>
<path d="M183.867 149.026C174.988 151.835 154.774 175.439 153.481 150.117C154.911 123.881 174.5 149.339 184.013 151.653" stroke="white" stroke-width="20.6444"/>
<path d="M184.713 150.215L161.792 150.215" stroke="#B93C3C" stroke-width="5.35994" stroke-linecap="round" stroke-linejoin="round"/>
<path d="M164.578 150.215C164.578 147.838 162.651 145.91 160.274 145.91C157.896 145.91 155.969 147.838 155.969 150.215C155.969 152.592 157.896 154.52 160.274 154.52C162.651 154.52 164.578 152.592 164.578 150.215Z" fill="#B93C3C"/>
<path d="M186.764 146.028L172.373 140.163" stroke="#B93C3C" stroke-width="3.57329" stroke-linecap="round"/>
<path d="M186.764 154.458L172.373 160.323" stroke="#B93C3C" stroke-width="3.57329" stroke-linecap="round"/>
<path d="M214.297 150.057C214.297 142.146 207.884 135.733 199.973 135.733C192.062 135.733 185.649 142.146 185.649 150.057C185.649 157.968 192.062 164.381 199.973 164.381C207.884 164.381 214.297 157.968 214.297 150.057Z" fill="white" stroke="#B93C3C" stroke-width="5.95809" stroke-linecap="round" stroke-linejoin="round"/>
<path d="M207.599 150.057C207.599 145.845 204.185 142.431 199.973 142.431C195.761 142.431 192.347 145.845 192.347 150.057C192.347 154.269 195.761 157.683 199.973 157.683C204.185 157.683 207.599 154.269 207.599 150.057Z" fill="#B93C3C"/>
<path d="M193.99 165.069C193.918 174.383 210.12 200.902 185.638 194.306C161.127 184.838 191.393 174.075 196.533 165.742" stroke="white" stroke-width="20.6444"/>
<path d="M195.382 164.633L188.3 186.431" stroke="#B93C3C" stroke-width="5.35994" stroke-linecap="round" stroke-linejoin="round"/>
<path d="M189.16 183.782C186.899 183.047 184.471 184.285 183.736 186.546C183.002 188.807 184.239 191.235 186.5 191.97C188.761 192.705 191.189 191.467 191.924 189.206C192.659 186.945 191.421 184.517 189.16 183.782Z" fill="#B93C3C"/>
<path d="M192.034 161.388L182.009 173.263" stroke="#B93C3C" stroke-width="3.57329" stroke-linecap="round"/>
<path d="M200.052 163.993L201.182 179.492" stroke="#B93C3C" stroke-width="3.57329" stroke-linecap="round"/>
<path d="M212.376 160.4C221.212 163.346 251.439 156.132 237.601 177.378C221.023 197.763 220.139 165.653 213.802 158.189" stroke="white" stroke-width="20.6444"/>
<path d="M212.391 158.941L230.934 172.413" stroke="#B93C3C" stroke-width="5.35994" stroke-linecap="round" stroke-linejoin="round"/>
<path d="M228.681 170.776C227.283 172.699 227.71 175.391 229.633 176.788C231.556 178.186 234.248 177.759 235.646 175.836C237.043 173.913 236.617 171.221 234.693 169.823C232.77 168.426 230.078 168.852 228.681 170.776Z" fill="#B93C3C"/>
<path d="M208.271 161.123L216.466 174.327" stroke="#B93C3C" stroke-width="3.57329" stroke-linecap="round"/>
<path d="M213.226 154.302L228.316 158.017" stroke="#B93C3C" stroke-width="3.57329" stroke-linecap="round"/>
<path d="M213.617 141.471C219.15 133.978 221.629 103.001 237.559 122.727C251.824 144.793 221.012 135.711 211.955 139.431" stroke="white" stroke-width="20.6444"/>
<path d="M212.234 141.005L230.777 127.533" stroke="#B93C3C" stroke-width="5.35994" stroke-linecap="round" stroke-linejoin="round"/>
<path d="M228.524 129.17C229.921 131.094 232.613 131.52 234.536 130.123C236.46 128.725 236.886 126.033 235.489 124.11C234.091 122.187 231.399 121.76 229.476 123.158C227.553 124.555 227.126 127.247 228.524 129.17Z" fill="#B93C3C"/>
<path d="M213.036 145.599L228.126 141.884" stroke="#B93C3C" stroke-width="3.57329" stroke-linecap="round"/>
<path d="M208.081 138.778L216.276 125.574" stroke="#B93C3C" stroke-width="3.57329" stroke-linecap="round"/>
<path d="M195.998 134.441C190.581 126.864 161.886 114.933 185.57 105.879C210.964 99.1314 192.805 125.629 193.544 135.392" stroke="white" stroke-width="20.6444"/>
<path d="M195.128 135.613L188.045 113.814" stroke="#B93C3C" stroke-width="5.35994" stroke-linecap="round" stroke-linejoin="round"/>
<path d="M188.906 116.463C191.167 115.729 192.404 113.3 191.67 111.039C190.935 108.778 188.507 107.541 186.246 108.276C183.985 109.01 182.747 111.439 183.482 113.7C184.216 115.961 186.645 117.198 188.906 116.463Z" fill="#B93C3C"/>
<path d="M199.744 136.269L200.875 120.77" stroke="#B93C3C" stroke-width="3.57329" stroke-linecap="round"/>
<path d="M191.726 138.874L181.701 127" stroke="#B93C3C" stroke-width="3.57329" stroke-linecap="round"/>
</g>
<defs>
<clipPath id="clip0_1_372">
<rect width="300" height="400" fill="white" transform="translate(-6.10352e-05 300) rotate(-90)"/>
</clipPath>
</defs>
</svg>
