<svg width="400" height="300" viewBox="0 0 400 300" fill="none" xmlns="http://www.w3.org/2000/svg">
<g clip-path="url(#clip0_1_211)">
<path d="M181.023 149.995C181.023 104.498 144.141 67.6159 98.6436 67.6159C53.1467 67.6159 16.2642 104.498 16.2642 149.995C16.2642 195.492 53.1467 232.375 98.6436 232.375C144.141 232.375 181.023 195.492 181.023 149.995Z" fill="white" stroke="black" stroke-width="13.1856" stroke-linejoin="round"/>
<path d="M166.179 149.995C166.179 112.854 136.069 82.7442 98.9277 82.7442C61.7858 82.7442 31.6764 112.854 31.6764 149.995C31.6765 187.137 61.7858 217.247 98.9277 217.247C136.069 217.247 166.179 187.137 166.179 149.995Z" fill="#000037"/>
<path d="M107.44 183.175C109.208 185.746 110.104 189.044 109.944 192.394C109.784 195.744 108.581 198.893 106.58 201.196C104.579 203.499 101.933 204.782 99.1821 204.782C96.4315 204.782 93.7849 203.499 91.7841 201.196C89.7834 198.893 88.5799 195.744 88.4199 192.394C88.26 189.044 89.1558 185.746 90.9238 183.175" stroke="white" stroke-width="9.13212" stroke-linecap="round" stroke-linejoin="round"/>
<path d="M132.037 159.533C135.147 159.287 138.451 160.16 141.273 161.974C144.094 163.788 146.22 166.404 147.214 169.289C148.208 172.173 147.996 175.106 146.62 177.488C145.245 179.871 142.811 181.521 139.816 182.102C136.821 182.684 133.492 182.151 130.511 180.615C127.529 179.078 125.121 176.653 123.779 173.837" stroke="white" stroke-width="9.13212" stroke-linecap="round" stroke-linejoin="round"/>
<path d="M123.429 127.239C124.772 124.423 127.18 121.998 130.162 120.461C133.143 118.924 136.472 118.392 139.467 118.973C142.462 119.555 144.896 121.205 146.271 123.587C147.646 125.969 147.859 128.903 146.865 131.787C145.871 134.671 143.745 137.288 140.924 139.102C138.102 140.915 134.798 141.789 131.688 141.543" stroke="white" stroke-width="9.13212" stroke-linecap="round" stroke-linejoin="round"/>
<path d="M91.1585 118.547C89.3904 115.976 88.4946 112.678 88.6546 109.327C88.8145 105.977 90.018 102.828 92.0188 100.525C94.0195 98.2218 96.6661 96.939 99.4168 96.939C102.167 96.939 104.814 98.2218 106.815 100.525C108.815 102.828 110.019 105.977 110.179 109.327C110.339 112.678 109.443 115.976 107.675 118.547" stroke="white" stroke-width="9.13212" stroke-linecap="round" stroke-linejoin="round"/>
<path d="M67.495 142.148C64.3845 142.393 61.0803 141.52 58.2588 139.706C55.4374 137.893 53.312 135.276 52.3179 132.392C51.3238 129.508 51.5362 126.574 52.9115 124.192C54.2868 121.81 56.721 120.159 59.7159 119.578C62.7107 118.997 66.0396 119.529 69.021 121.066C72.0025 122.602 74.4109 125.027 75.7533 127.844" stroke="white" stroke-width="9.13212" stroke-linecap="round" stroke-linejoin="round"/>
<path d="M76.1025 174.441C74.7601 177.258 72.3517 179.683 69.3703 181.219C66.3889 182.756 63.06 183.288 60.0651 182.707C57.0703 182.126 54.636 180.475 53.2607 178.093C51.8854 175.711 51.673 172.778 52.6671 169.893C53.6612 167.009 55.7866 164.392 58.6081 162.579C61.4296 160.765 64.7338 159.892 67.8442 160.138" stroke="white" stroke-width="9.13212" stroke-linecap="round" stroke-linejoin="round"/>
<path d="M112.772 150.108C112.772 142.415 106.536 136.179 98.8429 136.179C91.1498 136.179 84.9133 142.415 84.9133 150.108C84.9133 157.801 91.1498 164.038 98.8429 164.038C106.536 164.038 112.772 157.801 112.772 150.108Z" stroke="white" stroke-width="9.40902" stroke-linejoin="round"/>
<path d="M383.523 149.995C383.523 104.498 346.64 67.6159 301.144 67.6159C255.647 67.6159 218.764 104.498 218.764 149.995C218.764 195.492 255.647 232.375 301.144 232.375C346.64 232.375 383.523 195.492 383.523 149.995Z" fill="white" stroke="black" stroke-width="13.1856" stroke-linejoin="round"/>
<path d="M368.679 149.995C368.679 112.854 338.569 82.7442 301.428 82.7442C264.286 82.7442 234.176 112.854 234.176 149.995C234.176 187.137 264.286 217.247 301.428 217.247C338.569 217.247 368.679 187.137 368.679 149.995Z" fill="#000037"/>
<path d="M309.94 183.175C311.708 185.746 312.604 189.044 312.444 192.394C312.284 195.744 311.081 198.893 309.08 201.196C307.079 203.499 304.433 204.782 301.682 204.782C298.931 204.782 296.285 203.499 294.284 201.196C292.283 198.893 291.08 195.744 290.92 192.394C290.76 189.044 291.656 185.746 293.424 183.175" stroke="white" stroke-width="9.13212" stroke-linecap="round" stroke-linejoin="round"/>
<path d="M334.537 159.533C337.647 159.287 340.951 160.16 343.773 161.974C346.594 163.788 348.72 166.404 349.714 169.289C350.708 172.173 350.496 175.106 349.12 177.488C347.745 179.871 345.311 181.521 342.316 182.102C339.321 182.684 335.992 182.151 333.011 180.615C330.029 179.078 327.621 176.653 326.278 173.837" stroke="white" stroke-width="9.13212" stroke-linecap="round" stroke-linejoin="round"/>
<path d="M325.929 127.239C327.272 124.423 329.68 121.998 332.661 120.461C335.643 118.924 338.972 118.392 341.967 118.973C344.961 119.555 347.396 121.205 348.771 123.587C350.146 125.969 350.359 128.903 349.365 131.787C348.37 134.671 346.245 137.288 343.424 139.102C340.602 140.915 337.298 141.789 334.188 141.543" stroke="white" stroke-width="9.13212" stroke-linecap="round" stroke-linejoin="round"/>
<path d="M293.658 118.547C291.89 115.976 290.995 112.678 291.155 109.327C291.314 105.977 292.518 102.828 294.519 100.525C296.519 98.2218 299.166 96.939 301.917 96.939C304.667 96.939 307.314 98.2218 309.315 100.525C311.315 102.828 312.519 105.977 312.679 109.327C312.839 112.678 311.943 115.976 310.175 118.547" stroke="white" stroke-width="9.13212" stroke-linecap="round" stroke-linejoin="round"/>
<path d="M269.995 142.148C266.884 142.393 263.58 141.52 260.759 139.706C257.937 137.893 255.812 135.276 254.818 132.392C253.824 129.508 254.036 126.574 255.411 124.192C256.787 121.81 259.221 120.159 262.216 119.578C265.211 118.997 268.54 119.529 271.521 121.066C274.502 122.602 276.911 125.027 278.253 127.844" stroke="white" stroke-width="9.13212" stroke-linecap="round" stroke-linejoin="round"/>
<path d="M278.602 174.441C277.26 177.258 274.852 179.683 271.87 181.219C268.889 182.756 265.56 183.288 262.565 182.707C259.57 182.126 257.136 180.475 255.761 178.093C254.385 175.711 254.173 172.778 255.167 169.893C256.161 167.009 258.287 164.392 261.108 162.579C263.93 160.765 267.234 159.892 270.344 160.138" stroke="white" stroke-width="9.13212" stroke-linecap="round" stroke-linejoin="round"/>
<path d="M315.272 150.108C315.272 142.415 309.036 136.179 301.343 136.179C293.65 136.179 287.413 142.415 287.413 150.108C287.413 157.801 293.65 164.038 301.343 164.038C309.036 164.038 315.272 157.801 315.272 150.108Z" stroke="white" stroke-width="9.40902" stroke-linejoin="round"/>
</g>
<defs>
<clipPath id="clip0_1_211">
<rect width="300" height="400" fill="white" transform="translate(-6.10352e-05 300) rotate(-90)"/>
</clipPath>
</defs>
</svg>
