<svg width="400" height="300" viewBox="0 0 400 300" fill="none" xmlns="http://www.w3.org/2000/svg">
<g clip-path="url(#clip0_1_171)">
<path d="M136.665 224.49C136.665 190.736 109.302 163.373 75.5474 163.373C41.793 163.373 14.4297 190.736 14.4297 224.49C14.4297 258.245 41.793 285.608 75.5474 285.608C109.302 285.608 136.665 258.245 136.665 224.49Z" fill="black"/>
<path d="M121.642 224.49C121.642 199.033 101.005 178.396 75.5473 178.396C50.09 178.396 29.4528 199.033 29.4528 224.49C29.4528 249.948 50.09 270.585 75.5473 270.585C101.005 270.585 121.642 249.948 121.642 224.49Z" fill="white"/>
<path d="M115.24 224.49C115.24 202.569 97.4692 184.798 75.5474 184.798C53.6256 184.798 35.8545 202.569 35.8545 224.49C35.8545 246.412 53.6256 264.183 75.5474 264.183C97.4692 264.183 115.24 246.412 115.24 224.49Z" fill="#000037"/>
<path d="M75.3988 202.942C69.7543 202.981 64.3504 205.233 60.3491 209.214C56.3477 213.196 54.0684 218.588 54.0011 224.232C53.9339 229.877 56.0841 235.322 59.9895 239.397C63.8949 243.473 69.2437 245.853 74.8856 246.027C80.5276 246.2 86.0123 244.152 90.1606 240.324C94.3088 236.496 96.7893 231.193 97.0686 225.555C97.348 219.918 95.404 214.395 91.6545 210.176C87.9051 205.957 82.6497 203.377 77.0182 202.992" stroke="white" stroke-width="6.75045" stroke-linecap="round" stroke-linejoin="round" stroke-dasharray="13.5 13.5"/>
<path d="M83.579 224.49C83.579 220.055 79.9832 216.459 75.5474 216.459C71.1117 216.459 67.5157 220.055 67.5157 224.49C67.5157 228.926 71.1117 232.522 75.5474 232.522C79.9832 232.522 83.579 228.926 83.579 224.49Z" fill="white"/>
<path d="M79.215 224.49C79.215 222.465 77.573 220.823 75.5474 220.823C73.5218 220.823 71.8798 222.465 71.8798 224.49C71.8798 226.516 73.5218 228.158 75.5474 228.158C77.573 228.158 79.215 226.516 79.215 224.49Z" fill="#000037"/>
<path d="M261.071 150.008C261.071 116.254 233.708 88.8903 199.953 88.8903C166.199 88.8903 138.836 116.254 138.836 150.008C138.836 183.762 166.199 211.126 199.953 211.126C233.708 211.126 261.071 183.762 261.071 150.008Z" fill="black"/>
<path d="M246.048 150.008C246.048 124.551 225.411 103.913 199.953 103.913C174.496 103.913 153.859 124.551 153.859 150.008C153.859 175.465 174.496 196.103 199.953 196.103C225.411 196.103 246.048 175.465 246.048 150.008Z" fill="white"/>
<path d="M239.646 150.008C239.646 128.086 221.875 110.315 199.953 110.315C178.032 110.315 160.26 128.086 160.26 150.008C160.26 171.93 178.032 189.701 199.953 189.701C221.875 189.701 239.646 171.93 239.646 150.008Z" fill="#B93C3C"/>
<path d="M199.805 128.459C194.16 128.498 188.756 130.75 184.755 134.732C180.754 138.713 178.474 144.106 178.407 149.75C178.34 155.394 180.49 160.839 184.396 164.915C188.301 168.99 193.65 171.371 199.292 171.544C204.934 171.717 210.418 169.67 214.567 165.842C218.715 162.014 221.195 156.711 221.475 151.073C221.754 145.435 219.81 139.913 216.061 135.693C212.311 131.474 207.056 128.894 201.424 128.509" stroke="white" stroke-width="6.75045" stroke-linecap="round" stroke-linejoin="round" stroke-dasharray="13.5 13.5"/>
<path d="M207.985 150.008C207.985 145.572 204.389 141.976 199.953 141.976C195.518 141.976 191.922 145.572 191.922 150.008C191.922 154.444 195.518 158.04 199.953 158.04C204.389 158.04 207.985 154.444 207.985 150.008Z" fill="white"/>
<path d="M203.621 150.008C203.621 147.982 201.979 146.34 199.953 146.34C197.928 146.34 196.286 147.982 196.286 150.008C196.286 152.034 197.928 153.676 199.953 153.676C201.979 153.676 203.621 152.034 203.621 150.008Z" fill="#B93C3C"/>
<path d="M385.603 75.5217C385.603 41.7673 358.239 14.404 324.485 14.404C290.731 14.404 263.367 41.7673 263.367 75.5217C263.367 109.276 290.731 136.639 324.485 136.639C358.239 136.639 385.603 109.276 385.603 75.5217Z" fill="black"/>
<path d="M370.579 75.5217C370.579 50.0644 349.942 29.4271 324.485 29.4271C299.027 29.4271 278.39 50.0644 278.39 75.5217C278.39 100.979 299.028 121.616 324.485 121.616C349.942 121.616 370.579 100.979 370.579 75.5217Z" fill="white"/>
<path d="M364.178 75.5217C364.178 53.5999 346.407 35.8288 324.485 35.8288C302.563 35.8288 284.792 53.5999 284.792 75.5217C284.792 97.4435 302.563 115.215 324.485 115.215C346.407 115.215 364.178 97.4435 364.178 75.5217Z" fill="#000037"/>
<path d="M324.336 53.9729C318.692 54.0118 313.288 56.264 309.287 60.2454C305.285 64.2267 303.006 69.6192 302.939 75.2635C302.871 80.9077 305.022 86.353 308.927 90.4285C312.832 94.504 318.181 96.8843 323.823 97.0577C329.465 97.231 334.95 95.1835 339.098 91.3554C343.246 87.5273 345.727 82.2243 346.006 76.5866C346.285 70.9488 344.341 65.4266 340.592 61.2071C336.843 56.9877 331.587 54.408 325.956 54.0226" stroke="white" stroke-width="6.75045" stroke-linecap="round" stroke-linejoin="round" stroke-dasharray="13.5 13.5"/>
<path d="M332.517 75.5217C332.517 71.0859 328.921 67.4901 324.485 67.4901C320.049 67.4901 316.453 71.0859 316.453 75.5217C316.453 79.9575 320.049 83.5533 324.485 83.5533C328.921 83.5533 332.517 79.9575 332.517 75.5217Z" fill="white"/>
<path d="M328.153 75.5217C328.153 73.4961 326.51 71.8541 324.485 71.8541C322.459 71.8541 320.817 73.4961 320.817 75.5217C320.817 77.5473 322.459 79.1893 324.485 79.1893C326.51 79.1893 328.153 77.5473 328.153 75.5217Z" fill="#000037"/>
</g>
<defs>
<clipPath id="clip0_1_171">
<rect width="300" height="400" fill="white" transform="translate(0.00012207 300) rotate(-90)"/>
</clipPath>
</defs>
</svg>
