<svg width="400" height="300" viewBox="0 0 400 300" fill="none" xmlns="http://www.w3.org/2000/svg">
<g clip-path="url(#clip0_1_120)">
<path d="M150.978 222.334C150.978 188.579 123.615 161.216 89.8605 161.216C56.1061 161.216 28.7428 188.579 28.7428 222.334C28.7428 256.088 56.1061 283.451 89.8605 283.451C123.615 283.451 150.978 256.088 150.978 222.334Z" fill="black"/>
<path d="M135.955 222.334C135.955 196.876 115.318 176.239 89.8605 176.239C64.4031 176.239 43.7659 196.876 43.7659 222.334C43.7659 247.791 64.4031 268.428 89.8605 268.428C115.318 268.428 135.955 247.791 135.955 222.334Z" fill="white"/>
<path d="M129.553 222.334C129.553 200.412 111.782 182.641 89.8605 182.641C67.9387 182.641 50.1676 200.412 50.1676 222.334C50.1676 244.255 67.9387 262.026 89.8605 262.026C111.782 262.026 129.553 244.255 129.553 222.334Z" fill="#000037"/>
<path d="M89.7119 200.785C84.0674 200.824 78.6635 203.076 74.6622 207.057C70.6608 211.039 68.3815 216.431 68.3142 222.075C68.247 227.72 70.3972 233.165 74.3026 237.24C78.2081 241.316 83.5568 243.696 89.1988 243.87C94.8407 244.043 100.325 241.995 104.474 238.167C108.622 234.339 111.102 229.036 111.382 223.398C111.661 217.761 109.717 212.238 105.968 208.019C102.218 203.8 96.9628 201.22 91.3313 200.835" stroke="white" stroke-width="6.75045" stroke-linecap="round" stroke-linejoin="round" stroke-dasharray="13.5 13.5"/>
<path d="M97.8922 222.334C97.8922 217.898 94.2963 214.302 89.8605 214.302C85.4248 214.302 81.8289 217.898 81.8289 222.334C81.8289 226.769 85.4248 230.365 89.8605 230.365C94.2963 230.365 97.8922 226.769 97.8922 222.334Z" fill="white"/>
<path d="M93.5281 222.334C93.5281 220.308 91.8861 218.666 89.8605 218.666C87.8349 218.666 86.1929 220.308 86.1929 222.334C86.1929 224.359 87.8349 226.001 89.8605 226.001C91.8861 226.001 93.5281 224.359 93.5281 222.334Z" fill="#000037"/>
<path d="M150.978 78.2155C150.978 44.4612 123.615 17.0979 89.8605 17.0979C56.1061 17.0979 28.7428 44.4612 28.7428 78.2156C28.7428 111.97 56.1061 139.333 89.8605 139.333C123.615 139.333 150.978 111.97 150.978 78.2155Z" fill="black"/>
<path d="M135.955 78.2156C135.955 52.7582 115.318 32.121 89.8605 32.121C64.4031 32.121 43.7659 52.7582 43.7659 78.2156C43.7659 103.673 64.4031 124.31 89.8605 124.31C115.318 124.31 135.955 103.673 135.955 78.2156Z" fill="white"/>
<path d="M129.553 78.2156C129.553 56.2938 111.782 38.5227 89.8605 38.5227C67.9387 38.5227 50.1676 56.2938 50.1676 78.2156C50.1676 100.137 67.9387 117.908 89.8605 117.908C111.782 117.908 129.553 100.137 129.553 78.2156Z" fill="#000037"/>
<path d="M89.7119 56.6667C84.0674 56.7056 78.6635 58.9579 74.6622 62.9392C70.6608 66.9206 68.3815 72.3131 68.3142 77.9573C68.247 83.6016 70.3972 89.0468 74.3026 93.1223C78.2081 97.1979 83.5568 99.5782 89.1988 99.7515C94.8407 99.9248 100.325 97.8773 104.474 94.0492C108.622 90.2211 111.102 84.9181 111.382 79.2804C111.661 73.6427 109.717 68.1204 105.968 63.901C102.218 59.6815 96.9628 57.1018 91.3313 56.7165" stroke="white" stroke-width="6.75045" stroke-linecap="round" stroke-linejoin="round" stroke-dasharray="13.5 13.5"/>
<path d="M97.8922 78.2155C97.8922 73.7798 94.2963 70.1839 89.8605 70.1839C85.4248 70.1839 81.8289 73.7798 81.8289 78.2155C81.8289 82.6513 85.4248 86.2472 89.8605 86.2472C94.2963 86.2472 97.8922 82.6513 97.8922 78.2155Z" fill="white"/>
<path d="M93.5281 78.2156C93.5281 76.19 91.8861 74.5479 89.8605 74.5479C87.8349 74.5479 86.1929 76.19 86.1929 78.2156C86.1929 80.2411 87.8349 81.8832 89.8605 81.8832C91.8861 81.8832 93.5281 80.2411 93.5281 78.2156Z" fill="#000037"/>
<path d="M370.909 222.334C370.909 188.579 343.546 161.216 309.792 161.216C276.037 161.216 248.674 188.579 248.674 222.334C248.674 256.088 276.037 283.451 309.792 283.451C343.546 283.451 370.909 256.088 370.909 222.334Z" fill="black"/>
<path d="M355.886 222.334C355.886 196.876 335.249 176.239 309.792 176.239C284.334 176.239 263.697 196.876 263.697 222.334C263.697 247.791 284.334 268.428 309.792 268.428C335.249 268.428 355.886 247.791 355.886 222.334Z" fill="white"/>
<path d="M349.485 222.334C349.485 200.412 331.713 182.641 309.792 182.641C287.87 182.641 270.099 200.412 270.099 222.334C270.099 244.255 287.87 262.026 309.792 262.026C331.713 262.026 349.485 244.255 349.485 222.334Z" fill="#000037"/>
<path d="M309.643 200.785C303.999 200.824 298.595 203.076 294.593 207.057C290.592 211.039 288.313 216.431 288.245 222.075C288.178 227.72 290.328 233.165 294.234 237.24C298.139 241.316 303.488 243.696 309.13 243.87C314.772 244.043 320.257 241.995 324.405 238.167C328.553 234.339 331.034 229.036 331.313 223.398C331.592 217.761 329.648 212.238 325.899 208.019C322.149 203.8 316.894 201.22 311.262 200.835" stroke="white" stroke-width="6.75045" stroke-linecap="round" stroke-linejoin="round" stroke-dasharray="13.5 13.5"/>
<path d="M317.823 222.334C317.823 217.898 314.227 214.302 309.792 214.302C305.356 214.302 301.76 217.898 301.76 222.334C301.76 226.769 305.356 230.365 309.792 230.365C314.227 230.365 317.823 226.769 317.823 222.334Z" fill="white"/>
<path d="M313.459 222.334C313.459 220.308 311.817 218.666 309.792 218.666C307.766 218.666 306.124 220.308 306.124 222.334C306.124 224.359 307.766 226.001 309.792 226.001C311.817 226.001 313.459 224.359 313.459 222.334Z" fill="#000037"/>
<path d="M370.909 78.2155C370.909 44.4612 343.546 17.0979 309.792 17.0979C276.037 17.0979 248.674 44.4612 248.674 78.2156C248.674 111.97 276.037 139.333 309.792 139.333C343.546 139.333 370.909 111.97 370.909 78.2155Z" fill="black"/>
<path d="M355.886 78.2156C355.886 52.7582 335.249 32.121 309.792 32.121C284.334 32.121 263.697 52.7582 263.697 78.2156C263.697 103.673 284.334 124.31 309.792 124.31C335.249 124.31 355.886 103.673 355.886 78.2156Z" fill="white"/>
<path d="M349.485 78.2156C349.485 56.2938 331.713 38.5227 309.792 38.5227C287.87 38.5227 270.099 56.2938 270.099 78.2156C270.099 100.137 287.87 117.908 309.792 117.908C331.713 117.908 349.485 100.137 349.485 78.2156Z" fill="#000037"/>
<path d="M309.643 56.6667C303.999 56.7056 298.595 58.9579 294.593 62.9392C290.592 66.9206 288.313 72.3131 288.245 77.9573C288.178 83.6016 290.328 89.0468 294.234 93.1223C298.139 97.1979 303.488 99.5782 309.13 99.7515C314.772 99.9248 320.257 97.8773 324.405 94.0492C328.553 90.2211 331.034 84.9181 331.313 79.2804C331.592 73.6427 329.648 68.1204 325.899 63.901C322.149 59.6815 316.894 57.1018 311.262 56.7165" stroke="white" stroke-width="6.75045" stroke-linecap="round" stroke-linejoin="round" stroke-dasharray="13.5 13.5"/>
<path d="M317.823 78.2155C317.823 73.7798 314.227 70.1839 309.792 70.1839C305.356 70.1839 301.76 73.7798 301.76 78.2155C301.76 82.6513 305.356 86.2472 309.792 86.2472C314.227 86.2472 317.823 82.6513 317.823 78.2155Z" fill="white"/>
<path d="M313.459 78.2156C313.459 76.19 311.817 74.5479 309.792 74.5479C307.766 74.5479 306.124 76.19 306.124 78.2156C306.124 80.2411 307.766 81.8832 309.792 81.8832C311.817 81.8832 313.459 80.2411 313.459 78.2156Z" fill="#000037"/>
</g>
<defs>
<clipPath id="clip0_1_120">
<rect width="300" height="400" fill="white" transform="translate(0 300) rotate(-90)"/>
</clipPath>
</defs>
</svg>
