<svg width="400" height="300" viewBox="0 0 400 300" fill="none" xmlns="http://www.w3.org/2000/svg">
<g clip-path="url(#clip0_1_257)">
<path d="M150.978 222.334C150.978 188.579 123.615 161.216 89.8606 161.216C56.1062 161.216 28.7429 188.579 28.7429 222.334C28.7429 256.088 56.1062 283.451 89.8606 283.451C123.615 283.451 150.978 256.088 150.978 222.334Z" fill="#D71E1E"/>
<path d="M135.955 222.334C135.955 196.876 115.318 176.239 89.8606 176.239C64.4032 176.239 43.766 196.876 43.766 222.334C43.766 247.791 64.4032 268.428 89.8606 268.428C115.318 268.428 135.955 247.791 135.955 222.334Z" fill="white"/>
<path d="M129.553 222.334C129.553 200.412 111.782 182.641 89.8606 182.641C67.9388 182.641 50.1677 200.412 50.1677 222.334C50.1677 244.255 67.9388 262.026 89.8606 262.026C111.782 262.026 129.553 244.255 129.553 222.334Z" fill="#D71E1E"/>
<path d="M89.712 200.785C84.0675 200.824 78.6637 203.076 74.6623 207.057C70.6609 211.039 68.3816 216.431 68.3144 222.075C68.2471 227.72 70.3974 233.165 74.3028 237.24C78.2082 241.316 83.5569 243.696 89.1989 243.87C94.8409 244.043 100.326 241.995 104.474 238.167C108.622 234.339 111.102 229.036 111.382 223.398C111.661 217.761 109.717 212.238 105.968 208.019C102.218 203.8 96.9629 201.22 91.3314 200.835" stroke="white" stroke-width="6.75045" stroke-linecap="round" stroke-linejoin="round" stroke-dasharray="13.5 13.5"/>
<path d="M97.8923 222.334C97.8923 217.898 94.2964 214.302 89.8606 214.302C85.4249 214.302 81.829 217.898 81.829 222.334C81.829 226.769 85.4249 230.365 89.8606 230.365C94.2964 230.365 97.8923 226.769 97.8923 222.334Z" fill="white"/>
<path d="M93.5282 222.334C93.5282 220.308 91.8862 218.666 89.8606 218.666C87.835 218.666 86.193 220.308 86.193 222.334C86.193 224.359 87.835 226.001 89.8606 226.001C91.8862 226.001 93.5282 224.359 93.5282 222.334Z" fill="#D71E1E"/>
<path d="M150.978 78.2155C150.978 44.4612 123.615 17.0979 89.8606 17.0979C56.1062 17.0979 28.7429 44.4612 28.7429 78.2156C28.7429 111.97 56.1062 139.333 89.8606 139.333C123.615 139.333 150.978 111.97 150.978 78.2155Z" fill="#D71E1E"/>
<path d="M135.955 78.2156C135.955 52.7582 115.318 32.121 89.8606 32.121C64.4032 32.121 43.766 52.7582 43.766 78.2156C43.766 103.673 64.4032 124.31 89.8606 124.31C115.318 124.31 135.955 103.673 135.955 78.2156Z" fill="white"/>
<path d="M129.553 78.2156C129.553 56.2938 111.782 38.5227 89.8606 38.5227C67.9388 38.5227 50.1677 56.2938 50.1677 78.2156C50.1677 100.137 67.9388 117.908 89.8606 117.908C111.782 117.908 129.553 100.137 129.553 78.2156Z" fill="#D71E1E"/>
<path d="M89.712 56.6667C84.0675 56.7056 78.6637 58.9579 74.6623 62.9392C70.6609 66.9206 68.3816 72.3131 68.3144 77.9573C68.2471 83.6016 70.3974 89.0468 74.3028 93.1223C78.2082 97.1979 83.5569 99.5782 89.1989 99.7515C94.8409 99.9248 100.326 97.8773 104.474 94.0492C108.622 90.2211 111.102 84.9181 111.382 79.2804C111.661 73.6427 109.717 68.1204 105.968 63.901C102.218 59.6815 96.9629 57.1018 91.3314 56.7165" stroke="white" stroke-width="6.75045" stroke-linecap="round" stroke-linejoin="round" stroke-dasharray="13.5 13.5"/>
<path d="M97.8923 78.2155C97.8923 73.7798 94.2964 70.1839 89.8606 70.1839C85.4249 70.1839 81.829 73.7798 81.829 78.2155C81.829 82.6513 85.4249 86.2472 89.8606 86.2472C94.2964 86.2472 97.8923 82.6513 97.8923 78.2155Z" fill="white"/>
<path d="M93.5282 78.2156C93.5282 76.19 91.8862 74.5479 89.8606 74.5479C87.835 74.5479 86.193 76.19 86.193 78.2156C86.193 80.2411 87.835 81.8832 89.8606 81.8832C91.8862 81.8832 93.5282 80.2411 93.5282 78.2156Z" fill="#D71E1E"/>
<path d="M370.909 222.334C370.909 188.579 343.546 161.216 309.792 161.216C276.037 161.216 248.674 188.579 248.674 222.334C248.674 256.088 276.037 283.451 309.792 283.451C343.546 283.451 370.909 256.088 370.909 222.334Z" fill="#D71E1E"/>
<path d="M355.886 222.334C355.886 196.876 335.249 176.239 309.792 176.239C284.334 176.239 263.697 196.876 263.697 222.334C263.697 247.791 284.334 268.428 309.792 268.428C335.249 268.428 355.886 247.791 355.886 222.334Z" fill="white"/>
<path d="M349.485 222.334C349.485 200.412 331.713 182.641 309.792 182.641C287.87 182.641 270.099 200.412 270.099 222.334C270.099 244.255 287.87 262.026 309.792 262.026C331.713 262.026 349.485 244.255 349.485 222.334Z" fill="#D71E1E"/>
<path d="M309.643 200.785C303.999 200.824 298.595 203.076 294.593 207.057C290.592 211.039 288.313 216.431 288.245 222.075C288.178 227.72 290.328 233.165 294.234 237.24C298.139 241.316 303.488 243.696 309.13 243.87C314.772 244.043 320.257 241.995 324.405 238.167C328.553 234.339 331.034 229.036 331.313 223.398C331.592 217.761 329.648 212.238 325.899 208.019C322.149 203.8 316.894 201.22 311.262 200.835" stroke="white" stroke-width="6.75045" stroke-linecap="round" stroke-linejoin="round" stroke-dasharray="13.5 13.5"/>
<path d="M317.823 222.334C317.823 217.898 314.227 214.302 309.792 214.302C305.356 214.302 301.76 217.898 301.76 222.334C301.76 226.769 305.356 230.365 309.792 230.365C314.227 230.365 317.823 226.769 317.823 222.334Z" fill="white"/>
<path d="M313.459 222.334C313.459 220.308 311.817 218.666 309.792 218.666C307.766 218.666 306.124 220.308 306.124 222.334C306.124 224.359 307.766 226.001 309.792 226.001C311.817 226.001 313.459 224.359 313.459 222.334Z" fill="#D71E1E"/>
<path d="M370.909 78.2155C370.909 44.4612 343.546 17.0979 309.792 17.0979C276.037 17.0979 248.674 44.4612 248.674 78.2156C248.674 111.97 276.037 139.333 309.792 139.333C343.546 139.333 370.909 111.97 370.909 78.2155Z" fill="#D71E1E"/>
<path d="M355.886 78.2156C355.886 52.7582 335.249 32.121 309.792 32.121C284.334 32.121 263.697 52.7582 263.697 78.2156C263.697 103.673 284.334 124.31 309.792 124.31C335.249 124.31 355.886 103.673 355.886 78.2156Z" fill="white"/>
<path d="M349.485 78.2156C349.485 56.2938 331.713 38.5227 309.792 38.5227C287.87 38.5227 270.099 56.2938 270.099 78.2156C270.099 100.137 287.87 117.908 309.792 117.908C331.713 117.908 349.485 100.137 349.485 78.2156Z" fill="#D71E1E"/>
<path d="M309.643 56.6667C303.999 56.7056 298.595 58.9579 294.593 62.9392C290.592 66.9206 288.313 72.3131 288.245 77.9573C288.178 83.6016 290.328 89.0468 294.234 93.1223C298.139 97.1979 303.488 99.5782 309.13 99.7515C314.772 99.9248 320.257 97.8773 324.405 94.0492C328.553 90.2211 331.034 84.9181 331.313 79.2804C331.592 73.6427 329.648 68.1204 325.899 63.901C322.149 59.6815 316.894 57.1018 311.262 56.7165" stroke="white" stroke-width="6.75045" stroke-linecap="round" stroke-linejoin="round" stroke-dasharray="13.5 13.5"/>
<path d="M317.823 78.2155C317.823 73.7798 314.227 70.1839 309.792 70.1839C305.356 70.1839 301.76 73.7798 301.76 78.2155C301.76 82.6513 305.356 86.2472 309.792 86.2472C314.227 86.2472 317.823 82.6513 317.823 78.2155Z" fill="white"/>
<path d="M313.459 78.2156C313.459 76.19 311.817 74.5479 309.792 74.5479C307.766 74.5479 306.124 76.19 306.124 78.2156C306.124 80.2411 307.766 81.8832 309.792 81.8832C311.817 81.8832 313.459 80.2411 313.459 78.2156Z" fill="#D71E1E"/>
<path d="M261.795 150.019C261.795 116.265 234.432 88.9013 200.677 88.9013C166.923 88.9013 139.559 116.265 139.559 150.019C139.559 183.773 166.923 211.137 200.677 211.137C234.432 211.137 261.795 183.773 261.795 150.019Z" fill="#D71E1E"/>
<path d="M246.772 150.019C246.772 124.562 226.134 103.924 200.677 103.924C175.22 103.924 154.583 124.562 154.583 150.019C154.583 175.476 175.22 196.114 200.677 196.114C226.134 196.114 246.772 175.476 246.772 150.019Z" fill="white"/>
<path d="M240.37 150.019C240.37 128.097 222.599 110.326 200.677 110.326C178.755 110.326 160.984 128.097 160.984 150.019C160.984 171.941 178.755 189.712 200.677 189.712C222.599 189.712 240.37 171.941 240.37 150.019Z" fill="#D71E1E"/>
<path d="M200.529 128.47C194.884 128.509 189.48 130.761 185.479 134.743C181.477 138.724 179.198 144.117 179.131 149.761C179.064 155.405 181.214 160.85 185.119 164.926C189.025 169.001 194.373 171.382 200.015 171.555C205.657 171.728 211.142 169.681 215.29 165.853C219.439 162.025 221.919 156.722 222.198 151.084C222.478 145.446 220.534 139.924 216.784 135.704C213.035 131.485 207.779 128.905 202.148 128.52" stroke="white" stroke-width="6.75045" stroke-linecap="round" stroke-linejoin="round" stroke-dasharray="13.5 13.5"/>
<path d="M208.709 150.019C208.709 145.583 205.113 141.987 200.677 141.987C196.241 141.987 192.646 145.583 192.646 150.019C192.646 154.455 196.241 158.051 200.677 158.051C205.113 158.051 208.709 154.455 208.709 150.019Z" fill="white"/>
<path d="M204.345 150.019C204.345 147.993 202.703 146.351 200.677 146.351C198.652 146.351 197.01 147.993 197.01 150.019C197.01 152.045 198.652 153.687 200.677 153.687C202.703 153.687 204.345 152.045 204.345 150.019Z" fill="#D71E1E"/>
<path d="M219.779 253.837C219.779 242.911 210.922 234.054 199.996 234.054C189.07 234.054 180.213 242.911 180.213 253.837C180.213 264.763 189.07 273.62 199.996 273.62C210.922 273.62 219.779 264.763 219.779 253.837Z" fill="#D71E1E"/>
</g>
<defs>
<clipPath id="clip0_1_257">
<rect width="300" height="400" fill="white" transform="translate(0 300) rotate(-90)"/>
</clipPath>
</defs>
</svg>
