<svg width="400" height="300" viewBox="0 0 400 300" fill="none" xmlns="http://www.w3.org/2000/svg">
<g clip-path="url(#clip0_1_303)">
<path d="M135.196 199.545C135.196 165.791 107.833 138.427 74.0785 138.427C40.3241 138.427 12.9608 165.791 12.9608 199.545C12.9608 233.3 40.3241 260.663 74.0785 260.663C107.833 260.663 135.196 233.3 135.196 199.545Z" fill="black"/>
<path d="M386.881 199.431C386.881 165.677 359.518 138.314 325.763 138.314C292.009 138.314 264.646 165.677 264.646 199.431C264.646 233.186 292.009 260.549 325.763 260.549C359.518 260.549 386.881 233.186 386.881 199.431Z" fill="black"/>
<path d="M386.881 100.502C386.881 66.7476 359.518 39.3842 325.763 39.3842C292.009 39.3842 264.646 66.7476 264.646 100.502C264.646 134.256 292.009 161.62 325.763 161.62C359.518 161.62 386.881 134.256 386.881 100.502Z" fill="black"/>
<path d="M299.553 100.502C299.553 66.7476 272.19 39.3842 238.435 39.3842C204.681 39.3842 177.318 66.7476 177.318 100.502C177.318 134.256 204.681 161.62 238.435 161.62C272.19 161.62 299.553 134.256 299.553 100.502Z" fill="black"/>
<path d="M299.553 199.431C299.553 165.677 272.19 138.314 238.435 138.314C204.681 138.314 177.318 165.677 177.318 199.431C177.318 233.186 204.681 260.549 238.435 260.549C272.19 260.549 299.553 233.186 299.553 199.431Z" fill="black"/>
<path d="M284.53 199.432C284.53 173.974 263.893 153.337 238.435 153.337C212.978 153.337 192.341 173.974 192.341 199.432C192.341 224.889 212.978 245.526 238.435 245.526C263.893 245.526 284.53 224.889 284.53 199.432Z" fill="white"/>
<path d="M278.128 199.431C278.128 177.51 260.357 159.739 238.435 159.739C216.514 159.739 198.743 177.51 198.743 199.432C198.743 221.353 216.514 239.124 238.435 239.124C260.357 239.124 278.128 221.353 278.128 199.431Z" fill="#B93C3C"/>
<path d="M238.287 177.883C232.642 177.922 227.238 180.174 223.237 184.155C219.236 188.137 216.956 193.529 216.889 199.173C216.822 204.818 218.972 210.263 222.878 214.338C226.783 218.414 232.132 220.794 237.774 220.968C243.416 221.141 248.9 219.093 253.049 215.265C257.197 211.437 259.677 206.134 259.957 200.496C260.236 194.859 258.292 189.336 254.543 185.117C250.793 180.898 245.538 178.318 239.906 177.932" stroke="white" stroke-width="6.75045" stroke-linecap="round" stroke-linejoin="round" stroke-dasharray="13.5 13.5"/>
<path d="M246.467 199.431C246.467 194.996 242.871 191.4 238.435 191.4C234 191.4 230.404 194.996 230.404 199.431C230.404 203.867 234 207.463 238.435 207.463C242.871 207.463 246.467 203.867 246.467 199.431Z" fill="white"/>
<path d="M242.103 199.431C242.103 197.406 240.461 195.764 238.435 195.764C236.41 195.764 234.768 197.406 234.768 199.431C234.768 201.457 236.41 203.099 238.435 203.099C240.461 203.099 242.103 201.457 242.103 199.431Z" fill="#B93C3C"/>
<path d="M284.53 100.502C284.53 75.0446 263.893 54.4073 238.435 54.4073C212.978 54.4073 192.341 75.0446 192.341 100.502C192.341 125.959 212.978 146.597 238.435 146.597C263.893 146.597 284.53 125.959 284.53 100.502Z" fill="white"/>
<path d="M278.128 100.502C278.128 78.5802 260.357 60.809 238.435 60.809C216.514 60.8091 198.743 78.5802 198.743 100.502C198.743 122.424 216.514 140.195 238.435 140.195C260.357 140.195 278.128 122.424 278.128 100.502Z" fill="#B93C3C"/>
<path d="M238.287 78.9532C232.642 78.9921 227.238 81.2443 223.237 85.2257C219.236 89.207 216.956 94.5995 216.889 100.244C216.822 105.888 218.972 111.333 222.878 115.409C226.783 119.484 232.132 121.865 237.774 122.038C243.416 122.211 248.9 120.164 253.049 116.336C257.197 112.508 259.677 107.205 259.957 101.567C260.236 95.9291 258.292 90.4069 254.543 86.1874C250.793 81.968 245.538 79.3883 239.906 79.0029" stroke="white" stroke-width="6.75045" stroke-linecap="round" stroke-linejoin="round" stroke-dasharray="13.5 13.5"/>
<path d="M246.467 100.502C246.467 96.0662 242.871 92.4703 238.435 92.4703C234 92.4703 230.404 96.0662 230.404 100.502C230.404 104.938 234 108.534 238.435 108.534C242.871 108.534 246.467 104.938 246.467 100.502Z" fill="white"/>
<path d="M242.103 100.502C242.103 98.4764 240.461 96.8343 238.435 96.8343C236.41 96.8343 234.768 98.4764 234.768 100.502C234.768 102.528 236.41 104.17 238.435 104.17C240.461 104.17 242.103 102.528 242.103 100.502Z" fill="#B93C3C"/>
<path d="M371.858 199.432C371.858 173.974 351.221 153.337 325.763 153.337C300.306 153.337 279.669 173.974 279.669 199.432C279.669 224.889 300.306 245.526 325.763 245.526C351.221 245.526 371.858 224.889 371.858 199.432Z" fill="white"/>
<path d="M365.456 199.431C365.456 177.51 347.685 159.739 325.763 159.739C303.841 159.739 286.07 177.51 286.07 199.432C286.07 221.353 303.841 239.124 325.763 239.124C347.685 239.124 365.456 221.353 365.456 199.431Z" fill="#B93C3C"/>
<path d="M325.615 177.883C319.97 177.922 314.566 180.174 310.565 184.155C306.563 188.137 304.284 193.529 304.217 199.173C304.15 204.818 306.3 210.263 310.205 214.338C314.111 218.414 319.459 220.794 325.101 220.968C330.743 221.141 336.228 219.093 340.376 215.265C344.525 211.437 347.005 206.134 347.284 200.496C347.564 194.859 345.62 189.336 341.87 185.117C338.121 180.898 332.865 178.318 327.234 177.932" stroke="white" stroke-width="6.75045" stroke-linecap="round" stroke-linejoin="round" stroke-dasharray="13.5 13.5"/>
<path d="M333.795 199.431C333.795 194.996 330.199 191.4 325.763 191.4C321.327 191.4 317.731 194.996 317.731 199.431C317.731 203.867 321.327 207.463 325.763 207.463C330.199 207.463 333.795 203.867 333.795 199.431Z" fill="white"/>
<path d="M329.431 199.431C329.431 197.406 327.789 195.764 325.763 195.764C323.738 195.764 322.096 197.406 322.096 199.431C322.096 201.457 323.738 203.099 325.763 203.099C327.789 203.099 329.431 201.457 329.431 199.431Z" fill="#B93C3C"/>
<path d="M371.858 100.502C371.858 75.0446 351.221 54.4073 325.763 54.4073C300.306 54.4073 279.669 75.0446 279.669 100.502C279.669 125.959 300.306 146.597 325.763 146.597C351.221 146.597 371.858 125.959 371.858 100.502Z" fill="white"/>
<path d="M365.456 100.502C365.456 78.5802 347.685 60.809 325.763 60.809C303.841 60.8091 286.07 78.5802 286.07 100.502C286.07 122.424 303.841 140.195 325.763 140.195C347.685 140.195 365.456 122.424 365.456 100.502Z" fill="#B93C3C"/>
<path d="M325.615 78.9532C319.97 78.9921 314.566 81.2443 310.565 85.2257C306.563 89.207 304.284 94.5995 304.217 100.244C304.15 105.888 306.3 111.333 310.205 115.409C314.111 119.484 319.459 121.865 325.101 122.038C330.743 122.211 336.228 120.164 340.376 116.336C344.525 112.508 347.005 107.205 347.284 101.567C347.564 95.9291 345.62 90.4069 341.87 86.1874C338.121 81.968 332.865 79.3883 327.234 79.0029" stroke="white" stroke-width="6.75045" stroke-linecap="round" stroke-linejoin="round" stroke-dasharray="13.5 13.5"/>
<path d="M333.795 100.502C333.795 96.0662 330.199 92.4703 325.763 92.4703C321.327 92.4703 317.731 96.0662 317.731 100.502C317.731 104.938 321.327 108.534 325.763 108.534C330.199 108.534 333.795 104.938 333.795 100.502Z" fill="white"/>
<path d="M329.431 100.502C329.431 98.4764 327.789 96.8343 325.763 96.8343C323.738 96.8343 322.096 98.4764 322.096 100.502C322.096 102.528 323.738 104.17 325.763 104.17C327.789 104.17 329.431 102.528 329.431 100.502Z" fill="#B93C3C"/>
<path d="M135.196 100.373C135.196 66.619 107.833 39.2557 74.0785 39.2557C40.3241 39.2557 12.9608 66.619 12.9608 100.373C12.9608 134.128 40.3241 161.491 74.0785 161.491C107.833 161.491 135.196 134.128 135.196 100.373Z" fill="black"/>
<path d="M120.173 100.373C120.173 74.9161 99.5358 54.2788 74.0785 54.2788C48.6211 54.2788 27.9839 74.9161 27.9839 100.373C27.9839 125.831 48.6211 146.468 74.0785 146.468C99.5358 146.468 120.173 125.831 120.173 100.373Z" fill="white"/>
<path d="M113.771 100.373C113.771 78.4516 96.0003 60.6805 74.0785 60.6805C52.1567 60.6805 34.3856 78.4516 34.3856 100.373C34.3856 122.295 52.1567 140.066 74.0785 140.066C96.0003 140.066 113.771 122.295 113.771 100.373Z" fill="#000037"/>
<path d="M73.93 78.8246C68.2855 78.8635 62.8816 81.1158 58.8802 85.0971C54.8788 89.0785 52.5995 94.471 52.5323 100.115C52.4651 105.759 54.6153 111.205 58.5207 115.28C62.4261 119.356 67.7748 121.736 73.4168 121.909C79.0588 122.083 84.5435 120.035 88.6917 116.207C92.8399 112.379 95.3204 107.076 95.5998 101.438C95.8791 95.8006 93.9351 90.2783 90.1857 86.0589C86.4363 81.8394 81.1809 79.2597 75.5494 78.8744" stroke="white" stroke-width="6.75045" stroke-linecap="round" stroke-linejoin="round" stroke-dasharray="13.5 13.5"/>
<path d="M82.1102 100.373C82.1102 95.9376 78.5142 92.3417 74.0785 92.3417C69.6427 92.3417 66.0469 95.9376 66.0469 100.373C66.0469 104.809 69.6427 108.405 74.0785 108.405C78.5142 108.405 82.1102 104.809 82.1102 100.373Z" fill="white"/>
<path d="M77.7461 100.373C77.7461 98.3478 76.1041 96.7058 74.0785 96.7058C72.0529 96.7058 70.4109 98.3478 70.4109 100.373C70.4109 102.399 72.0529 104.041 74.0785 104.041C76.1041 104.041 77.7461 102.399 77.7461 100.373Z" fill="#000037"/>
<path d="M120.173 199.545C120.173 174.088 99.5358 153.451 74.0785 153.451C48.6211 153.451 27.9839 174.088 27.9839 199.545C27.9839 225.003 48.6211 245.64 74.0785 245.64C99.5358 245.64 120.173 225.003 120.173 199.545Z" fill="white"/>
<path d="M113.771 199.545C113.771 177.623 96.0003 159.852 74.0785 159.852C52.1567 159.852 34.3856 177.623 34.3856 199.545C34.3856 221.467 52.1567 239.238 74.0785 239.238C96.0003 239.238 113.771 221.467 113.771 199.545Z" fill="#000037"/>
<path d="M73.9298 177.996C68.2853 178.035 62.8814 180.288 58.8801 184.269C54.8787 188.25 52.5994 193.643 52.5322 199.287C52.4649 204.931 54.6151 210.376 58.5206 214.452C62.426 218.528 67.7747 220.908 73.4167 221.081C79.0587 221.254 84.5434 219.207 88.6916 215.379C92.8398 211.551 95.3203 206.248 95.5996 200.61C95.879 194.972 93.935 189.45 90.1856 185.231C86.4362 181.011 81.1807 178.431 75.5492 178.046" stroke="white" stroke-width="6.75045" stroke-linecap="round" stroke-linejoin="round" stroke-dasharray="13.5 13.5"/>
<path d="M82.1102 199.545C82.1102 195.109 78.5142 191.513 74.0785 191.513C69.6427 191.513 66.0469 195.109 66.0469 199.545C66.0469 203.981 69.6427 207.577 74.0785 207.577C78.5142 207.577 82.1102 203.981 82.1102 199.545Z" fill="white"/>
<path d="M77.7461 199.545C77.7461 197.52 76.1041 195.878 74.0785 195.878C72.0529 195.878 70.4109 197.52 70.4109 199.545C70.4109 201.571 72.0529 203.213 74.0785 203.213C76.1041 203.213 77.7461 201.571 77.7461 199.545Z" fill="#000037"/>
</g>
<defs>
<clipPath id="clip0_1_303">
<rect width="300" height="400" fill="white" transform="translate(0 300) rotate(-90)"/>
</clipPath>
</defs>
</svg>
