<svg width="400" height="300" viewBox="0 0 400 300" fill="none" xmlns="http://www.w3.org/2000/svg">
<g clip-path="url(#clip0_1_499)">
<path d="M396.931 199.432C396.931 165.677 369.568 138.314 335.813 138.314C302.059 138.314 274.696 165.677 274.696 199.432C274.696 233.186 302.059 260.549 335.813 260.549C369.568 260.549 396.931 233.186 396.931 199.432Z" fill="black"/>
<path d="M396.931 100.502C396.931 66.7476 369.568 39.3843 335.813 39.3843C302.059 39.3843 274.696 66.7476 274.696 100.502C274.696 134.256 302.059 161.62 335.813 161.62C369.568 161.62 396.931 134.256 396.931 100.502Z" fill="black"/>
<path d="M309.603 100.502C309.603 66.7476 282.24 39.3843 248.486 39.3843C214.731 39.3843 187.368 66.7476 187.368 100.502C187.368 134.256 214.731 161.62 248.486 161.62C282.24 161.62 309.603 134.256 309.603 100.502Z" fill="black"/>
<path d="M227.044 67.8067C227.044 34.0524 199.68 6.68904 165.926 6.68904C132.172 6.68904 104.808 34.0524 104.808 67.8067C104.808 101.561 132.172 128.924 165.926 128.924C199.68 128.924 227.044 101.561 227.044 67.8067Z" fill="black"/>
<path d="M176.088 149.974C176.088 116.22 148.724 88.8565 114.97 88.8565C81.2157 88.8565 53.8524 116.22 53.8524 149.974C53.8524 183.729 81.2157 211.092 114.97 211.092C148.724 211.092 176.088 183.729 176.088 149.974Z" fill="black"/>
<path d="M161.065 149.974C161.065 124.517 140.427 103.88 114.97 103.88C89.5127 103.88 68.8755 124.517 68.8755 149.974C68.8755 175.432 89.5127 196.069 114.97 196.069C140.427 196.069 161.065 175.432 161.065 149.974Z" fill="white"/>
<path d="M154.663 149.974C154.663 128.052 136.892 110.281 114.97 110.281C93.0483 110.281 75.2772 128.052 75.2772 149.974C75.2772 171.896 93.0483 189.667 114.97 189.667C136.892 189.667 154.663 171.896 154.663 149.974Z" fill="#000037"/>
<path d="M114.822 128.425C109.177 128.464 103.773 130.717 99.7718 134.698C95.7704 138.679 93.4911 144.072 93.4239 149.716C93.3566 155.36 95.5069 160.806 99.4123 164.881C103.318 168.957 108.666 171.337 114.308 171.51C119.95 171.684 125.435 169.636 129.583 165.808C133.732 161.98 136.212 156.677 136.491 151.039C136.771 145.401 134.827 139.879 131.077 135.66C127.328 131.44 122.072 128.861 116.441 128.475" stroke="white" stroke-width="6.75045" stroke-linecap="round" stroke-linejoin="round" stroke-dasharray="13.5 13.5"/>
<path d="M123.002 149.974C123.002 145.538 119.406 141.943 114.97 141.943C110.534 141.943 106.938 145.538 106.938 149.974C106.938 154.41 110.534 158.006 114.97 158.006C119.406 158.006 123.002 154.41 123.002 149.974Z" fill="white"/>
<path d="M118.638 149.974C118.638 147.949 116.996 146.307 114.97 146.307C112.945 146.307 111.302 147.949 111.302 149.974C111.302 152 112.945 153.642 114.97 153.642C116.996 153.642 118.638 152 118.638 149.974Z" fill="#000037"/>
<path d="M176.088 149.974C176.088 116.22 148.724 88.8566 114.97 88.8566C81.2157 88.8566 53.8524 116.22 53.8524 149.974C53.8524 183.729 81.2157 211.092 114.97 211.092C148.724 211.092 176.088 183.729 176.088 149.974Z" fill="black"/>
<path d="M309.603 199.432C309.603 165.677 282.24 138.314 248.486 138.314C214.731 138.314 187.368 165.677 187.368 199.432C187.368 233.186 214.731 260.549 248.486 260.549C282.24 260.549 309.603 233.186 309.603 199.432Z" fill="black"/>
<path d="M294.58 199.432C294.58 173.974 273.943 153.337 248.486 153.337C223.028 153.337 202.391 173.974 202.391 199.432C202.391 224.889 223.028 245.526 248.486 245.526C273.943 245.526 294.58 224.889 294.58 199.432Z" fill="white"/>
<path d="M288.179 199.432C288.179 177.51 270.407 159.739 248.486 159.739C226.564 159.739 208.793 177.51 208.793 199.432C208.793 221.353 226.564 239.124 248.486 239.124C270.407 239.124 288.179 221.353 288.179 199.432Z" fill="#B93C3C"/>
<path d="M248.337 177.883C242.693 177.922 237.289 180.174 233.287 184.155C229.286 188.137 227.007 193.529 226.939 199.173C226.872 204.818 229.022 210.263 232.928 214.338C236.833 218.414 242.182 220.794 247.824 220.967C253.466 221.141 258.951 219.093 263.099 215.265C267.247 211.437 269.727 206.134 270.007 200.496C270.286 194.859 268.342 189.336 264.593 185.117C260.843 180.898 255.588 178.318 249.956 177.933" stroke="white" stroke-width="6.75045" stroke-linecap="round" stroke-linejoin="round" stroke-dasharray="13.5 13.5"/>
<path d="M256.517 199.432C256.517 194.996 252.921 191.4 248.486 191.4C244.05 191.4 240.454 194.996 240.454 199.432C240.454 203.867 244.05 207.463 248.486 207.463C252.921 207.463 256.517 203.867 256.517 199.432Z" fill="white"/>
<path d="M252.153 199.432C252.153 197.406 250.511 195.764 248.486 195.764C246.46 195.764 244.818 197.406 244.818 199.432C244.818 201.457 246.46 203.099 248.486 203.099C250.511 203.099 252.153 201.457 252.153 199.432Z" fill="#B93C3C"/>
<path d="M125.088 232.209C125.088 198.455 97.7245 171.091 63.9701 171.091C30.2157 171.091 2.85241 198.455 2.85241 232.209C2.85242 265.963 30.2157 293.327 63.9701 293.327C97.7245 293.327 125.088 265.963 125.088 232.209Z" fill="black"/>
<path d="M110.065 232.209C110.065 206.752 89.4274 186.114 63.9701 186.114C38.5127 186.115 17.8756 206.752 17.8756 232.209C17.8756 257.666 38.5127 278.304 63.9701 278.304C89.4274 278.304 110.065 257.666 110.065 232.209Z" fill="white"/>
<path d="M103.663 232.209C103.663 210.287 85.8919 192.516 63.9701 192.516C42.0483 192.516 24.2772 210.287 24.2772 232.209C24.2772 254.131 42.0483 271.902 63.9701 271.902C85.8919 271.902 103.663 254.131 103.663 232.209Z" fill="#000037"/>
<path d="M63.8214 210.66C58.1769 210.699 52.7732 212.951 48.7718 216.933C44.7704 220.914 42.4909 226.307 42.4237 231.951C42.3565 237.595 44.5067 243.04 48.4122 247.116C52.3176 251.191 57.6663 253.572 63.3083 253.745C68.9503 253.918 74.4351 251.871 78.5833 248.043C82.7315 244.215 85.2119 238.912 85.4912 233.274C85.7706 227.636 83.8267 222.114 80.0773 217.895C76.3278 213.675 71.0722 211.095 65.4407 210.71" stroke="white" stroke-width="6.75045" stroke-linecap="round" stroke-linejoin="round" stroke-dasharray="13.5 13.5"/>
<path d="M72.0018 232.209C72.0018 227.773 68.4058 224.177 63.9701 224.177C59.5343 224.177 55.9384 227.773 55.9384 232.209C55.9384 236.645 59.5343 240.241 63.9701 240.241C68.4058 240.241 72.0018 236.645 72.0018 232.209Z" fill="white"/>
<path d="M67.6378 232.209C67.6378 230.184 65.9957 228.541 63.9701 228.541C61.9445 228.541 60.3024 230.184 60.3024 232.209C60.3024 234.235 61.9445 235.877 63.9701 235.877C65.9957 235.877 67.6378 234.235 67.6378 232.209Z" fill="#000037"/>
<path d="M161.065 149.974C161.065 124.517 140.427 103.88 114.97 103.88C89.5127 103.88 68.8756 124.517 68.8756 149.974C68.8756 175.432 89.5127 196.069 114.97 196.069C140.427 196.069 161.065 175.432 161.065 149.974Z" fill="white"/>
<path d="M154.663 149.974C154.663 128.052 136.892 110.281 114.97 110.281C93.0483 110.281 75.2772 128.052 75.2772 149.974C75.2772 171.896 93.0483 189.667 114.97 189.667C136.892 189.667 154.663 171.896 154.663 149.974Z" fill="#000037"/>
<path d="M114.821 128.426C109.177 128.464 103.773 130.717 99.7718 134.698C95.7704 138.679 93.4909 144.072 93.4237 149.716C93.3565 155.36 95.5068 160.806 99.4122 164.881C103.318 168.957 108.666 171.337 114.308 171.51C119.95 171.684 125.435 169.636 129.583 165.808C133.731 161.98 136.212 156.677 136.491 151.039C136.771 145.401 134.827 139.879 131.077 135.66C127.328 131.44 122.072 128.861 116.441 128.475" stroke="white" stroke-width="6.75045" stroke-linecap="round" stroke-linejoin="round" stroke-dasharray="13.5 13.5"/>
<path d="M123.002 149.974C123.002 145.539 119.406 141.943 114.97 141.943C110.534 141.943 106.938 145.539 106.938 149.974C106.938 154.41 110.534 158.006 114.97 158.006C119.406 158.006 123.002 154.41 123.002 149.974Z" fill="white"/>
<path d="M118.638 149.974C118.638 147.949 116.996 146.307 114.97 146.307C112.945 146.307 111.302 147.949 111.302 149.974C111.302 152 112.945 153.642 114.97 153.642C116.996 153.642 118.638 152 118.638 149.974Z" fill="#000037"/>
<path d="M212.02 67.8068C212.02 42.3494 191.383 21.7122 165.926 21.7122C140.469 21.7122 119.831 42.3494 119.831 67.8068C119.831 93.2641 140.469 113.901 165.926 113.901C191.383 113.901 212.02 93.2641 212.02 67.8068Z" fill="white"/>
<path d="M205.619 67.8067C205.619 45.885 187.848 28.1138 165.926 28.1138C144.004 28.1138 126.233 45.885 126.233 67.8067C126.233 89.7285 144.004 107.5 165.926 107.5C187.848 107.5 205.619 89.7285 205.619 67.8067Z" fill="#000037"/>
<path d="M165.777 46.258C160.133 46.2969 154.729 48.5491 150.728 52.5305C146.726 56.5118 144.447 61.9043 144.38 67.5486C144.312 73.1928 146.463 78.6381 150.368 82.7136C154.273 86.7891 159.622 89.1694 165.264 89.3427C170.906 89.5161 176.391 87.4686 180.539 83.6405C184.687 79.8124 187.168 74.5094 187.447 68.8716C187.726 63.2339 185.782 57.7117 182.033 53.4922C178.284 49.2728 173.028 46.6931 167.397 46.3077" stroke="white" stroke-width="6.75045" stroke-linecap="round" stroke-linejoin="round" stroke-dasharray="13.5 13.5"/>
<path d="M173.958 67.8068C173.958 63.371 170.362 59.7751 165.926 59.7751C161.49 59.7751 157.894 63.371 157.894 67.8068C157.894 72.2425 161.49 75.8384 165.926 75.8384C170.362 75.8384 173.958 72.2425 173.958 67.8068Z" fill="white"/>
<path d="M169.594 67.8067C169.594 65.7812 167.951 64.1391 165.926 64.1391C163.9 64.1391 162.258 65.7812 162.258 67.8067C162.258 69.8323 163.9 71.4744 165.926 71.4744C167.951 71.4744 169.594 69.8323 169.594 67.8067Z" fill="#000037"/>
<path d="M294.58 100.502C294.58 75.0446 273.943 54.4074 248.486 54.4074C223.028 54.4074 202.391 75.0446 202.391 100.502C202.391 125.959 223.028 146.597 248.486 146.597C273.943 146.597 294.58 125.959 294.58 100.502Z" fill="white"/>
<path d="M288.179 100.502C288.179 78.5802 270.407 60.8091 248.486 60.8091C226.564 60.8091 208.793 78.5802 208.793 100.502C208.793 122.424 226.564 140.195 248.486 140.195C270.407 140.195 288.179 122.424 288.179 100.502Z" fill="#B93C3C"/>
<path d="M248.337 78.9532C242.692 78.9921 237.289 81.2444 233.287 85.2257C229.286 89.207 227.006 94.5995 226.939 100.244C226.872 105.888 229.022 111.333 232.928 115.409C236.833 119.484 242.182 121.865 247.824 122.038C253.466 122.211 258.95 120.164 263.099 116.336C267.247 112.508 269.727 107.205 270.007 101.567C270.286 95.9292 268.342 90.4069 264.593 86.1875C260.843 81.968 255.588 79.3883 249.956 79.003" stroke="white" stroke-width="6.75045" stroke-linecap="round" stroke-linejoin="round" stroke-dasharray="13.5 13.5"/>
<path d="M256.517 100.502C256.517 96.0662 252.921 92.4703 248.486 92.4703C244.05 92.4703 240.454 96.0662 240.454 100.502C240.454 104.938 244.05 108.534 248.486 108.534C252.921 108.534 256.517 104.938 256.517 100.502Z" fill="white"/>
<path d="M252.153 100.502C252.153 98.4764 250.511 96.8343 248.486 96.8343C246.46 96.8343 244.818 98.4764 244.818 100.502C244.818 102.528 246.46 104.17 248.486 104.17C250.511 104.17 252.153 102.528 252.153 100.502Z" fill="#B93C3C"/>
<path d="M381.908 199.432C381.908 173.974 361.271 153.337 335.813 153.337C310.356 153.337 289.719 173.974 289.719 199.432C289.719 224.889 310.356 245.526 335.813 245.526C361.271 245.526 381.908 224.889 381.908 199.432Z" fill="white"/>
<path d="M375.506 199.431C375.506 177.51 357.735 159.739 335.813 159.739C313.892 159.739 296.12 177.51 296.12 199.432C296.12 221.353 313.892 239.124 335.813 239.124C357.735 239.124 375.506 221.353 375.506 199.431Z" fill="#B93C3C"/>
<path d="M335.665 177.883C330.02 177.922 324.616 180.174 320.615 184.155C316.614 188.137 314.334 193.529 314.267 199.173C314.2 204.818 316.35 210.263 320.255 214.338C324.161 218.414 329.51 220.794 335.152 220.968C340.794 221.141 346.278 219.093 350.426 215.265C354.575 211.437 357.055 206.134 357.334 200.496C357.614 194.859 355.67 189.336 351.921 185.117C348.171 180.898 342.915 178.318 337.284 177.933" stroke="white" stroke-width="6.75045" stroke-linecap="round" stroke-linejoin="round" stroke-dasharray="13.5 13.5"/>
<path d="M343.845 199.432C343.845 194.996 340.249 191.4 335.813 191.4C331.378 191.4 327.782 194.996 327.782 199.432C327.782 203.867 331.378 207.463 335.813 207.463C340.249 207.463 343.845 203.867 343.845 199.432Z" fill="white"/>
<path d="M339.481 199.432C339.481 197.406 337.839 195.764 335.813 195.764C333.788 195.764 332.146 197.406 332.146 199.432C332.146 201.457 333.788 203.099 335.813 203.099C337.839 203.099 339.481 201.457 339.481 199.432Z" fill="#B93C3C"/>
<path d="M381.908 100.502C381.908 75.0446 361.271 54.4074 335.813 54.4074C310.356 54.4074 289.719 75.0446 289.719 100.502C289.719 125.959 310.356 146.597 335.813 146.597C361.271 146.597 381.908 125.959 381.908 100.502Z" fill="white"/>
<path d="M375.506 100.502C375.506 78.5802 357.735 60.8091 335.813 60.8091C313.892 60.8091 296.12 78.5802 296.12 100.502C296.12 122.424 313.892 140.195 335.813 140.195C357.735 140.195 375.506 122.424 375.506 100.502Z" fill="#B93C3C"/>
<path d="M335.665 78.9532C330.02 78.9921 324.616 81.2444 320.615 85.2257C316.613 89.207 314.334 94.5995 314.267 100.244C314.2 105.888 316.35 111.333 320.255 115.409C324.161 119.484 329.51 121.865 335.152 122.038C340.794 122.211 346.278 120.164 350.427 116.336C354.575 112.508 357.055 107.205 357.334 101.567C357.614 95.9291 355.67 90.4069 351.921 86.1874C348.171 81.968 342.915 79.3883 337.284 79.003" stroke="white" stroke-width="6.75045" stroke-linecap="round" stroke-linejoin="round" stroke-dasharray="13.5 13.5"/>
<path d="M343.845 100.502C343.845 96.0662 340.249 92.4703 335.813 92.4703C331.378 92.4703 327.782 96.0662 327.782 100.502C327.782 104.938 331.378 108.534 335.813 108.534C340.249 108.534 343.845 104.938 343.845 100.502Z" fill="white"/>
<path d="M339.481 100.502C339.481 98.4764 337.839 96.8343 335.813 96.8343C333.788 96.8343 332.146 98.4764 332.146 100.502C332.146 102.528 333.788 104.17 335.813 104.17C337.839 104.17 339.481 102.528 339.481 100.502Z" fill="#B93C3C"/>
</g>
<defs>
<clipPath id="clip0_1_499">
<rect width="300" height="400" fill="white" transform="translate(0 300) rotate(-90)"/>
</clipPath>
</defs>
</svg>
