<svg width="400" height="300" viewBox="0 0 400 300" fill="none" xmlns="http://www.w3.org/2000/svg">
<g clip-path="url(#clip0_1_551)">
<path d="M126.877 202.214C126.877 168.46 99.5141 141.097 65.7598 141.097C32.0054 141.097 4.64209 168.46 4.64209 202.214C4.64209 235.969 32.0054 263.332 65.7598 263.332C99.5141 263.332 126.877 235.969 126.877 202.214Z" fill="black"/>
<path d="M216.877 202.214C216.877 168.46 189.514 141.097 155.76 141.097C122.005 141.097 94.6421 168.46 94.6421 202.214C94.6421 235.969 122.005 263.332 155.76 263.332C189.514 263.332 216.877 235.969 216.877 202.214Z" fill="black"/>
<path d="M305.377 202.214C305.377 168.46 278.014 141.097 244.26 141.097C210.505 141.097 183.142 168.46 183.142 202.214C183.142 235.969 210.505 263.332 244.26 263.332C278.014 263.332 305.377 235.969 305.377 202.214Z" fill="black"/>
<path d="M395.377 202.214C395.377 168.46 368.014 141.097 334.26 141.097C300.505 141.097 273.142 168.46 273.142 202.214C273.142 235.969 300.505 263.332 334.26 263.332C368.014 263.332 395.377 235.969 395.377 202.214Z" fill="black"/>
<path d="M126.877 97.7862C126.877 64.0318 99.5141 36.6685 65.7598 36.6685C32.0054 36.6685 4.64209 64.0318 4.64209 97.7862C4.64209 131.541 32.0054 158.904 65.7598 158.904C99.5141 158.904 126.877 131.541 126.877 97.7862Z" fill="black"/>
<path d="M216.877 97.7862C216.877 64.0318 189.514 36.6685 155.76 36.6685C122.005 36.6685 94.6421 64.0318 94.6421 97.7862C94.6421 131.541 122.005 158.904 155.76 158.904C189.514 158.904 216.877 131.541 216.877 97.7862Z" fill="black"/>
<path d="M305.377 97.7862C305.377 64.0318 278.014 36.6685 244.26 36.6685C210.505 36.6685 183.142 64.0318 183.142 97.7862C183.142 131.541 210.505 158.904 244.26 158.904C278.014 158.904 305.377 131.541 305.377 97.7862Z" fill="black"/>
<path d="M395.377 97.7862C395.377 64.0318 368.014 36.6685 334.26 36.6685C300.505 36.6685 273.142 64.0318 273.142 97.7862C273.142 131.541 300.505 158.904 334.26 158.904C368.014 158.904 395.377 131.541 395.377 97.7862Z" fill="black"/>
<path d="M111.854 202.214C111.854 176.757 91.2171 156.12 65.7598 156.12C40.3024 156.12 19.6652 176.757 19.6652 202.214C19.6652 227.672 40.3024 248.309 65.7598 248.309C91.2171 248.309 111.854 227.672 111.854 202.214Z" fill="white"/>
<path d="M105.453 202.214C105.453 180.292 87.6815 162.521 65.7598 162.521C43.838 162.521 26.0669 180.293 26.0669 202.214C26.0669 224.136 43.838 241.907 65.7598 241.907C87.6815 241.907 105.453 224.136 105.453 202.214Z" fill="#000037"/>
<path d="M65.6111 180.666C59.9666 180.704 54.5627 182.957 50.5613 186.938C46.56 190.919 44.2807 196.312 44.2135 201.956C44.1462 207.6 46.2964 213.046 50.2018 217.121C54.1072 221.197 59.456 223.577 65.098 223.75C70.74 223.924 76.2247 221.876 80.3729 218.048C84.5211 214.22 87.0015 208.917 87.2809 203.279C87.5603 197.641 85.6163 192.119 81.8669 187.9C78.1174 183.68 72.862 181.101 67.2305 180.715" stroke="white" stroke-width="6.75045" stroke-linecap="round" stroke-linejoin="round" stroke-dasharray="13.5 13.5"/>
<path d="M73.7913 202.214C73.7913 197.779 70.1955 194.183 65.7597 194.183C61.3239 194.183 57.728 197.779 57.728 202.214C57.728 206.65 61.3239 210.246 65.7597 210.246C70.1955 210.246 73.7913 206.65 73.7913 202.214Z" fill="white"/>
<path d="M69.4274 202.214C69.4274 200.189 67.7853 198.547 65.7598 198.547C63.7342 198.547 62.0922 200.189 62.0922 202.214C62.0922 204.24 63.7342 205.882 65.7598 205.882C67.7853 205.882 69.4274 204.24 69.4274 202.214Z" fill="#000037"/>
<path d="M201.854 202.214C201.854 176.757 181.217 156.12 155.76 156.12C130.302 156.12 109.665 176.757 109.665 202.214C109.665 227.672 130.302 248.309 155.76 248.309C181.217 248.309 201.854 227.672 201.854 202.214Z" fill="white"/>
<path d="M195.453 202.214C195.453 180.292 177.682 162.521 155.76 162.521C133.838 162.521 116.067 180.293 116.067 202.214C116.067 224.136 133.838 241.907 155.76 241.907C177.682 241.907 195.453 224.136 195.453 202.214Z" fill="#000037"/>
<path d="M155.611 180.665C149.967 180.704 144.563 182.957 140.561 186.938C136.56 190.919 134.281 196.312 134.213 201.956C134.146 207.6 136.296 213.046 140.202 217.121C144.107 221.197 149.456 223.577 155.098 223.75C160.74 223.924 166.225 221.876 170.373 218.048C174.521 214.22 177.002 208.917 177.281 203.279C177.56 197.641 175.616 192.119 171.867 187.9C168.117 183.68 162.862 181.101 157.231 180.715" stroke="white" stroke-width="6.75045" stroke-linecap="round" stroke-linejoin="round" stroke-dasharray="13.5 13.5"/>
<path d="M163.791 202.214C163.791 197.779 160.195 194.183 155.76 194.183C151.324 194.183 147.728 197.779 147.728 202.214C147.728 206.65 151.324 210.246 155.76 210.246C160.195 210.246 163.791 206.65 163.791 202.214Z" fill="white"/>
<path d="M159.427 202.214C159.427 200.189 157.785 198.547 155.76 198.547C153.734 198.547 152.092 200.189 152.092 202.214C152.092 204.24 153.734 205.882 155.76 205.882C157.785 205.882 159.427 204.24 159.427 202.214Z" fill="#000037"/>
<path d="M290.354 202.214C290.354 176.757 269.717 156.12 244.26 156.12C218.802 156.12 198.165 176.757 198.165 202.214C198.165 227.672 218.802 248.309 244.26 248.309C269.717 248.309 290.354 227.672 290.354 202.214Z" fill="white"/>
<path d="M283.953 202.214C283.953 180.292 266.182 162.521 244.26 162.521C222.338 162.521 204.567 180.293 204.567 202.214C204.567 224.136 222.338 241.907 244.26 241.907C266.182 241.907 283.953 224.136 283.953 202.214Z" fill="#000037"/>
<path d="M244.111 180.665C238.467 180.704 233.063 182.957 229.061 186.938C225.06 190.919 222.781 196.312 222.713 201.956C222.646 207.6 224.796 213.046 228.702 217.121C232.607 221.197 237.956 223.577 243.598 223.75C249.24 223.924 254.725 221.876 258.873 218.048C263.021 214.22 265.502 208.917 265.781 203.279C266.06 197.641 264.116 192.119 260.367 187.9C256.617 183.68 251.362 181.101 245.731 180.715" stroke="white" stroke-width="6.75045" stroke-linecap="round" stroke-linejoin="round" stroke-dasharray="13.5 13.5"/>
<path d="M252.291 202.214C252.291 197.779 248.695 194.183 244.26 194.183C239.824 194.183 236.228 197.779 236.228 202.214C236.228 206.65 239.824 210.246 244.26 210.246C248.695 210.246 252.291 206.65 252.291 202.214Z" fill="white"/>
<path d="M247.927 202.214C247.927 200.189 246.285 198.547 244.26 198.547C242.234 198.547 240.592 200.189 240.592 202.214C240.592 204.24 242.234 205.882 244.26 205.882C246.285 205.882 247.927 204.24 247.927 202.214Z" fill="#000037"/>
<path d="M380.354 202.214C380.354 176.757 359.717 156.12 334.26 156.12C308.802 156.12 288.165 176.757 288.165 202.214C288.165 227.672 308.802 248.309 334.26 248.309C359.717 248.309 380.354 227.672 380.354 202.214Z" fill="white"/>
<path d="M373.953 202.214C373.953 180.292 356.182 162.521 334.26 162.521C312.338 162.521 294.567 180.292 294.567 202.214C294.567 224.136 312.338 241.907 334.26 241.907C356.182 241.907 373.953 224.136 373.953 202.214Z" fill="#000037"/>
<path d="M334.111 180.665C328.467 180.704 323.063 182.957 319.061 186.938C315.06 190.919 312.781 196.312 312.713 201.956C312.646 207.6 314.796 213.046 318.702 217.121C322.607 221.197 327.956 223.577 333.598 223.75C339.24 223.924 344.725 221.876 348.873 218.048C353.021 214.22 355.502 208.917 355.781 203.279C356.06 197.641 354.116 192.119 350.367 187.9C346.617 183.68 341.362 181.101 335.731 180.715" stroke="white" stroke-width="6.75045" stroke-linecap="round" stroke-linejoin="round" stroke-dasharray="13.5 13.5"/>
<path d="M342.291 202.214C342.291 197.779 338.695 194.183 334.26 194.183C329.824 194.183 326.228 197.779 326.228 202.214C326.228 206.65 329.824 210.246 334.26 210.246C338.695 210.246 342.291 206.65 342.291 202.214Z" fill="white"/>
<path d="M337.927 202.214C337.927 200.189 336.285 198.547 334.26 198.547C332.234 198.547 330.592 200.189 330.592 202.214C330.592 204.24 332.234 205.882 334.26 205.882C336.285 205.882 337.927 204.24 337.927 202.214Z" fill="#000037"/>
<path d="M111.854 97.7862C111.854 72.3289 91.2171 51.6916 65.7598 51.6916C40.3024 51.6916 19.6652 72.3289 19.6652 97.7862C19.6652 123.244 40.3024 143.881 65.7598 143.881C91.2171 143.881 111.854 123.244 111.854 97.7862Z" fill="white"/>
<path d="M105.453 97.7862C105.453 75.8644 87.6815 58.0933 65.7598 58.0933C43.838 58.0933 26.0669 75.8644 26.0669 97.7862C26.0669 119.708 43.838 137.479 65.7598 137.479C87.6815 137.479 105.453 119.708 105.453 97.7862Z" fill="#000037"/>
<path d="M65.6111 76.2374C59.9666 76.2763 54.5627 78.5286 50.5613 82.5099C46.56 86.4913 44.2807 91.8838 44.2135 97.528C44.1462 103.172 46.2965 108.618 50.2019 112.693C54.1073 116.769 59.456 119.149 65.098 119.322C70.7399 119.496 76.2247 117.448 80.3729 113.62C84.5211 109.792 87.0015 104.489 87.2809 98.8511C87.5603 93.2134 85.6163 87.6911 81.8669 83.4717C78.1174 79.2522 72.862 76.6725 67.2305 76.2872" stroke="white" stroke-width="6.75045" stroke-linecap="round" stroke-linejoin="round" stroke-dasharray="13.5 13.5"/>
<path d="M73.7913 97.7862C73.7913 93.3505 70.1955 89.7546 65.7597 89.7546C61.3239 89.7546 57.728 93.3505 57.728 97.7862C57.728 102.222 61.3239 105.818 65.7597 105.818C70.1955 105.818 73.7913 102.222 73.7913 97.7862Z" fill="white"/>
<path d="M69.4274 97.7862C69.4274 95.7606 67.7853 94.1186 65.7598 94.1186C63.7342 94.1186 62.0922 95.7606 62.0922 97.7862C62.0922 99.8118 63.7342 101.454 65.7598 101.454C67.7853 101.454 69.4274 99.8118 69.4274 97.7862Z" fill="#000037"/>
<path d="M201.854 97.7862C201.854 72.3289 181.217 51.6916 155.76 51.6916C130.302 51.6916 109.665 72.3289 109.665 97.7862C109.665 123.244 130.302 143.881 155.76 143.881C181.217 143.881 201.854 123.244 201.854 97.7862Z" fill="white"/>
<path d="M195.453 97.7862C195.453 75.8644 177.682 58.0933 155.76 58.0933C133.838 58.0933 116.067 75.8644 116.067 97.7862C116.067 119.708 133.838 137.479 155.76 137.479C177.682 137.479 195.453 119.708 195.453 97.7862Z" fill="#000037"/>
<path d="M155.611 76.2374C149.967 76.2763 144.563 78.5286 140.561 82.5099C136.56 86.4913 134.281 91.8838 134.213 97.528C134.146 103.172 136.296 108.618 140.202 112.693C144.107 116.769 149.456 119.149 155.098 119.322C160.74 119.496 166.225 117.448 170.373 113.62C174.521 109.792 177.002 104.489 177.281 98.8511C177.56 93.2134 175.616 87.6911 171.867 83.4717C168.117 79.2522 162.862 76.6725 157.231 76.2872" stroke="white" stroke-width="6.75045" stroke-linecap="round" stroke-linejoin="round" stroke-dasharray="13.5 13.5"/>
<path d="M163.791 97.7862C163.791 93.3505 160.195 89.7546 155.76 89.7546C151.324 89.7546 147.728 93.3505 147.728 97.7862C147.728 102.222 151.324 105.818 155.76 105.818C160.195 105.818 163.791 102.222 163.791 97.7862Z" fill="white"/>
<path d="M159.427 97.7862C159.427 95.7606 157.785 94.1186 155.76 94.1186C153.734 94.1186 152.092 95.7606 152.092 97.7862C152.092 99.8118 153.734 101.454 155.76 101.454C157.785 101.454 159.427 99.8118 159.427 97.7862Z" fill="#000037"/>
<path d="M290.354 97.7862C290.354 72.3288 269.717 51.6916 244.26 51.6916C218.802 51.6916 198.165 72.3288 198.165 97.7862C198.165 123.244 218.802 143.881 244.26 143.881C269.717 143.881 290.354 123.244 290.354 97.7862Z" fill="white"/>
<path d="M283.953 97.7862C283.953 75.8644 266.182 58.0933 244.26 58.0933C222.338 58.0933 204.567 75.8644 204.567 97.7862C204.567 119.708 222.338 137.479 244.26 137.479C266.182 137.479 283.953 119.708 283.953 97.7862Z" fill="#000037"/>
<path d="M244.111 76.2374C238.467 76.2763 233.063 78.5286 229.061 82.5099C225.06 86.4913 222.781 91.8838 222.713 97.528C222.646 103.172 224.796 108.618 228.702 112.693C232.607 116.769 237.956 119.149 243.598 119.322C249.24 119.496 254.725 117.448 258.873 113.62C263.021 109.792 265.502 104.489 265.781 98.8511C266.06 93.2134 264.116 87.6911 260.367 83.4717C256.617 79.2522 251.362 76.6725 245.731 76.2872" stroke="white" stroke-width="6.75045" stroke-linecap="round" stroke-linejoin="round" stroke-dasharray="13.5 13.5"/>
<path d="M252.291 97.7862C252.291 93.3504 248.695 89.7545 244.26 89.7545C239.824 89.7545 236.228 93.3504 236.228 97.7862C236.228 102.222 239.824 105.818 244.26 105.818C248.695 105.818 252.291 102.222 252.291 97.7862Z" fill="white"/>
<path d="M247.927 97.7862C247.927 95.7606 246.285 94.1186 244.26 94.1186C242.234 94.1186 240.592 95.7606 240.592 97.7862C240.592 99.8118 242.234 101.454 244.26 101.454C246.285 101.454 247.927 99.8118 247.927 97.7862Z" fill="#000037"/>
<path d="M380.354 97.7862C380.354 72.3288 359.717 51.6916 334.26 51.6916C308.802 51.6916 288.165 72.3288 288.165 97.7862C288.165 123.244 308.802 143.881 334.26 143.881C359.717 143.881 380.354 123.244 380.354 97.7862Z" fill="white"/>
<path d="M373.953 97.7862C373.953 75.8644 356.182 58.0933 334.26 58.0933C312.338 58.0933 294.567 75.8644 294.567 97.7862C294.567 119.708 312.338 137.479 334.26 137.479C356.182 137.479 373.953 119.708 373.953 97.7862Z" fill="#000037"/>
<path d="M334.111 76.2374C328.467 76.2763 323.063 78.5286 319.061 82.5099C315.06 86.4912 312.781 91.8837 312.713 97.528C312.646 103.172 314.796 108.617 318.702 112.693C322.607 116.769 327.956 119.149 333.598 119.322C339.24 119.496 344.725 117.448 348.873 113.62C353.021 109.792 355.502 104.489 355.781 98.8511C356.06 93.2133 354.116 87.6911 350.367 83.4716C346.617 79.2522 341.362 76.6725 335.73 76.2872" stroke="white" stroke-width="6.75045" stroke-linecap="round" stroke-linejoin="round" stroke-dasharray="13.5 13.5"/>
<path d="M342.291 97.7862C342.291 93.3504 338.695 89.7545 334.26 89.7545C329.824 89.7545 326.228 93.3504 326.228 97.7862C326.228 102.222 329.824 105.818 334.26 105.818C338.695 105.818 342.291 102.222 342.291 97.7862Z" fill="white"/>
<path d="M337.927 97.7862C337.927 95.7606 336.285 94.1186 334.26 94.1186C332.234 94.1186 330.592 95.7606 330.592 97.7862C330.592 99.8118 332.234 101.454 334.26 101.454C336.285 101.454 337.927 99.8118 337.927 97.7862Z" fill="#000037"/>
</g>
<defs>
<clipPath id="clip0_1_551">
<rect width="300" height="400" fill="white" transform="translate(0 300) rotate(-90)"/>
</clipPath>
</defs>
</svg>
