<svg width="400" height="300" viewBox="0 0 400 300" fill="none" xmlns="http://www.w3.org/2000/svg">
<g clip-path="url(#clip0_1_602)">
<path d="M124.118 62.5761C124.118 28.8217 96.755 1.45837 63.0006 1.45837C29.2462 1.45837 1.88293 28.8217 1.88293 62.5761C1.88293 96.3305 29.2462 123.694 63.0006 123.694C96.755 123.694 124.118 96.3304 124.118 62.5761Z" fill="black"/>
<path d="M124.118 237.231C124.118 203.477 96.755 176.114 63.0006 176.114C29.2462 176.114 1.88293 203.477 1.88293 237.231C1.88293 270.986 29.2462 298.349 63.0006 298.349C96.755 298.349 124.118 270.986 124.118 237.231Z" fill="black"/>
<path d="M124.118 149.904C124.118 116.149 96.755 88.7861 63.0006 88.7861C29.2462 88.7861 1.88293 116.149 1.88293 149.904C1.88293 183.658 29.2462 211.021 63.0006 211.021C96.755 211.021 124.118 183.658 124.118 149.904Z" fill="black"/>
<path d="M109.095 149.904C109.095 124.446 88.458 103.809 63.0006 103.809C37.5433 103.809 16.906 124.446 16.906 149.904C16.906 175.361 37.5433 195.998 63.0006 195.998C88.458 195.998 109.095 175.361 109.095 149.904Z" fill="white"/>
<path d="M102.693 149.904C102.693 127.982 84.9224 110.211 63.0006 110.211C41.0788 110.211 23.3077 127.982 23.3077 149.904C23.3077 171.826 41.0788 189.597 63.0006 189.597C84.9224 189.597 102.693 171.826 102.693 149.904Z" fill="#000037"/>
<path d="M62.852 128.355C57.2075 128.394 51.8036 130.646 47.8022 134.627C43.8008 138.609 41.5215 144.001 41.4543 149.646C41.3871 155.29 43.5373 160.735 47.4427 164.811C51.3481 168.886 56.6968 171.266 62.3388 171.44C67.9808 171.613 73.4655 169.566 77.6137 165.737C81.7619 161.909 84.2424 156.606 84.5217 150.969C84.8011 145.331 82.8571 139.809 79.1077 135.589C75.3583 131.37 70.1028 128.79 64.4714 128.405" stroke="white" stroke-width="6.75045" stroke-linecap="round" stroke-linejoin="round" stroke-dasharray="13.5 13.5"/>
<path d="M71.0322 149.904C71.0322 145.468 67.4363 141.872 63.0005 141.872C58.5648 141.872 54.9689 145.468 54.9689 149.904C54.9689 154.34 58.5648 157.935 63.0005 157.935C67.4363 157.935 71.0322 154.34 71.0322 149.904Z" fill="white"/>
<path d="M66.6682 149.904C66.6682 147.878 65.0262 146.236 63.0006 146.236C60.975 146.236 59.333 147.878 59.333 149.904C59.333 151.929 60.975 153.571 63.0006 153.571C65.0262 153.571 66.6682 151.929 66.6682 149.904Z" fill="#000037"/>
<path d="M109.095 237.231C109.095 211.774 88.458 191.137 63.0006 191.137C37.5433 191.137 16.906 211.774 16.906 237.231C16.906 262.689 37.5433 283.326 63.0006 283.326C88.458 283.326 109.095 262.689 109.095 237.231Z" fill="white"/>
<path d="M102.693 237.231C102.693 215.31 84.9224 197.539 63.0006 197.539C41.0788 197.539 23.3077 215.31 23.3077 237.231C23.3077 259.153 41.0788 276.924 63.0006 276.924C84.9224 276.924 102.693 259.153 102.693 237.231Z" fill="#000037"/>
<path d="M62.852 215.683C57.2075 215.722 51.8036 217.974 47.8022 221.955C43.8008 225.937 41.5215 231.329 41.4543 236.973C41.3871 242.618 43.5373 248.063 47.4427 252.138C51.3481 256.214 56.6968 258.594 62.3388 258.767C67.9808 258.941 73.4655 256.893 77.6137 253.065C81.7619 249.237 84.2424 243.934 84.5217 238.296C84.8011 232.659 82.8571 227.136 79.1077 222.917C75.3583 218.697 70.1029 216.118 64.4714 215.732" stroke="white" stroke-width="6.75045" stroke-linecap="round" stroke-linejoin="round" stroke-dasharray="13.5 13.5"/>
<path d="M71.0322 237.231C71.0322 232.796 67.4363 229.2 63.0005 229.2C58.5648 229.2 54.9689 232.796 54.9689 237.231C54.9689 241.667 58.5648 245.263 63.0005 245.263C67.4363 245.263 71.0322 241.667 71.0322 237.231Z" fill="white"/>
<path d="M66.6682 237.231C66.6682 235.206 65.0262 233.564 63.0006 233.564C60.975 233.564 59.333 235.206 59.333 237.231C59.333 239.257 60.975 240.899 63.0006 240.899C65.0262 240.899 66.6682 239.257 66.6682 237.231Z" fill="#000037"/>
<path d="M109.095 62.5761C109.095 37.1187 88.458 16.4815 63.0006 16.4815C37.5433 16.4815 16.906 37.1187 16.906 62.5761C16.906 88.0334 37.5433 108.671 63.0006 108.671C88.458 108.671 109.095 88.0334 109.095 62.5761Z" fill="white"/>
<path d="M102.693 62.5761C102.693 40.6543 84.9224 22.8832 63.0006 22.8832C41.0788 22.8832 23.3077 40.6543 23.3077 62.5761C23.3077 84.4979 41.0788 102.269 63.0006 102.269C84.9224 102.269 102.693 84.4979 102.693 62.5761Z" fill="#000037"/>
<path d="M62.852 41.0273C57.2075 41.0662 51.8036 43.3185 47.8022 47.2998C43.8008 51.2811 41.5215 56.6736 41.4543 62.3179C41.3871 67.9621 43.5373 73.4074 47.4427 77.4829C51.3481 81.5584 56.6968 83.9387 62.3388 84.1121C67.9808 84.2854 73.4655 82.2379 77.6137 78.4098C81.7619 74.5817 84.2424 69.2787 84.5217 63.641C84.8011 58.0033 82.8571 52.481 79.1077 48.2616C75.3583 44.0421 70.1028 41.4624 64.4714 41.0771" stroke="white" stroke-width="6.75045" stroke-linecap="round" stroke-linejoin="round" stroke-dasharray="13.5 13.5"/>
<path d="M71.0322 62.5761C71.0322 58.1403 67.4363 54.5444 63.0005 54.5444C58.5648 54.5444 54.9689 58.1403 54.9689 62.5761C54.9689 67.0118 58.5648 70.6077 63.0005 70.6077C67.4363 70.6077 71.0322 67.0118 71.0322 62.5761Z" fill="white"/>
<path d="M66.6682 62.5761C66.6682 60.5505 65.0262 58.9085 63.0006 58.9085C60.975 58.9085 59.333 60.5505 59.333 62.5761C59.333 64.6017 60.975 66.2437 63.0006 66.2437C65.0262 66.2437 66.6682 64.6017 66.6682 62.5761Z" fill="#000037"/>
<path d="M398.118 62.5761C398.118 28.8217 370.755 1.45835 337.001 1.45836C303.246 1.45836 275.883 28.8217 275.883 62.5761C275.883 96.3304 303.246 123.694 337.001 123.694C370.755 123.694 398.118 96.3304 398.118 62.5761Z" fill="black"/>
<path d="M398.118 237.231C398.118 203.477 370.755 176.114 337.001 176.114C303.246 176.114 275.883 203.477 275.883 237.231C275.883 270.986 303.246 298.349 337.001 298.349C370.755 298.349 398.118 270.986 398.118 237.231Z" fill="black"/>
<path d="M398.118 149.904C398.118 116.149 370.755 88.7861 337.001 88.7861C303.246 88.7861 275.883 116.149 275.883 149.904C275.883 183.658 303.246 211.021 337.001 211.021C370.755 211.021 398.118 183.658 398.118 149.904Z" fill="black"/>
<path d="M383.095 149.904C383.095 124.446 362.458 103.809 337.001 103.809C311.543 103.809 290.906 124.446 290.906 149.904C290.906 175.361 311.543 195.998 337.001 195.998C362.458 195.998 383.095 175.361 383.095 149.904Z" fill="white"/>
<path d="M376.693 149.904C376.693 127.982 358.922 110.211 337.001 110.211C315.079 110.211 297.308 127.982 297.308 149.904C297.308 171.826 315.079 189.597 337.001 189.597C358.922 189.597 376.693 171.826 376.693 149.904Z" fill="#000037"/>
<path d="M336.852 128.355C331.207 128.394 325.804 130.646 321.802 134.627C317.801 138.609 315.522 144.001 315.454 149.646C315.387 155.29 317.537 160.735 321.443 164.811C325.348 168.886 330.697 171.266 336.339 171.44C341.981 171.613 347.465 169.566 351.614 165.737C355.762 161.909 358.242 156.606 358.522 150.969C358.801 145.331 356.857 139.809 353.108 135.589C349.358 131.37 344.103 128.79 338.471 128.405" stroke="white" stroke-width="6.75045" stroke-linecap="round" stroke-linejoin="round" stroke-dasharray="13.5 13.5"/>
<path d="M345.032 149.904C345.032 145.468 341.436 141.872 337.001 141.872C332.565 141.872 328.969 145.468 328.969 149.904C328.969 154.34 332.565 157.935 337.001 157.935C341.436 157.935 345.032 154.34 345.032 149.904Z" fill="white"/>
<path d="M340.668 149.904C340.668 147.878 339.026 146.236 337.001 146.236C334.975 146.236 333.333 147.878 333.333 149.904C333.333 151.929 334.975 153.571 337.001 153.571C339.026 153.571 340.668 151.929 340.668 149.904Z" fill="#000037"/>
<path d="M383.095 237.231C383.095 211.774 362.458 191.137 337.001 191.137C311.543 191.137 290.906 211.774 290.906 237.231C290.906 262.689 311.543 283.326 337.001 283.326C362.458 283.326 383.095 262.689 383.095 237.231Z" fill="white"/>
<path d="M376.693 237.231C376.693 215.31 358.922 197.539 337.001 197.539C315.079 197.539 297.308 215.31 297.308 237.231C297.308 259.153 315.079 276.924 337.001 276.924C358.922 276.924 376.693 259.153 376.693 237.231Z" fill="#000037"/>
<path d="M336.852 215.683C331.207 215.722 325.804 217.974 321.802 221.955C317.801 225.936 315.522 231.329 315.454 236.973C315.387 242.617 317.537 248.063 321.443 252.138C325.348 256.214 330.697 258.594 336.339 258.767C341.981 258.941 347.465 256.893 351.614 253.065C355.762 249.237 358.242 243.934 358.522 238.296C358.801 232.659 356.857 227.136 353.108 222.917C349.358 218.697 344.103 216.118 338.471 215.732" stroke="white" stroke-width="6.75045" stroke-linecap="round" stroke-linejoin="round" stroke-dasharray="13.5 13.5"/>
<path d="M345.032 237.231C345.032 232.796 341.436 229.2 337.001 229.2C332.565 229.2 328.969 232.796 328.969 237.231C328.969 241.667 332.565 245.263 337.001 245.263C341.436 245.263 345.032 241.667 345.032 237.231Z" fill="white"/>
<path d="M340.668 237.231C340.668 235.206 339.026 233.564 337.001 233.564C334.975 233.564 333.333 235.206 333.333 237.231C333.333 239.257 334.975 240.899 337.001 240.899C339.026 240.899 340.668 239.257 340.668 237.231Z" fill="#000037"/>
<path d="M383.095 62.5761C383.095 37.1187 362.458 16.4815 337.001 16.4815C311.543 16.4815 290.906 37.1187 290.906 62.5761C290.906 88.0334 311.543 108.671 337.001 108.671C362.458 108.671 383.095 88.0334 383.095 62.5761Z" fill="white"/>
<path d="M376.693 62.5761C376.693 40.6543 358.922 22.8832 337.001 22.8832C315.079 22.8832 297.308 40.6543 297.308 62.5761C297.308 84.4978 315.079 102.269 337.001 102.269C358.922 102.269 376.693 84.4978 376.693 62.5761Z" fill="#000037"/>
<path d="M336.852 41.0273C331.207 41.0662 325.804 43.3185 321.802 47.2998C317.801 51.2811 315.522 56.6736 315.454 62.3179C315.387 67.9621 317.537 73.4074 321.443 77.4829C325.348 81.5584 330.697 83.9387 336.339 84.1121C341.981 84.2854 347.465 82.2379 351.614 78.4098C355.762 74.5817 358.242 69.2787 358.522 63.641C358.801 58.0032 356.857 52.481 353.108 48.2615C349.358 44.0421 344.103 41.4624 338.471 41.0771" stroke="white" stroke-width="6.75045" stroke-linecap="round" stroke-linejoin="round" stroke-dasharray="13.5 13.5"/>
<path d="M345.032 62.5761C345.032 58.1403 341.436 54.5444 337.001 54.5444C332.565 54.5444 328.969 58.1403 328.969 62.5761C328.969 67.0118 332.565 70.6077 337.001 70.6077C341.436 70.6077 345.032 67.0118 345.032 62.5761Z" fill="white"/>
<path d="M340.668 62.5761C340.668 60.5505 339.026 58.9084 337.001 58.9084C334.975 58.9084 333.333 60.5505 333.333 62.5761C333.333 64.6016 334.975 66.2437 337.001 66.2437C339.026 66.2437 340.668 64.6016 340.668 62.5761Z" fill="#000037"/>
<path d="M261.53 236.971C261.53 203.217 234.167 175.854 200.412 175.854C166.658 175.854 139.295 203.217 139.295 236.971C139.295 270.726 166.658 298.089 200.412 298.089C234.167 298.089 261.53 270.726 261.53 236.971Z" fill="black"/>
<path d="M261.53 62.3159C261.53 28.5616 234.167 1.19825 200.412 1.19825C166.658 1.19826 139.295 28.5616 139.295 62.3159C139.295 96.0703 166.658 123.434 200.412 123.434C234.167 123.434 261.53 96.0703 261.53 62.3159Z" fill="black"/>
<path d="M261.53 149.997C261.53 116.243 234.167 88.8795 200.412 88.8795C166.658 88.8795 139.295 116.243 139.295 149.997C139.295 183.752 166.658 211.115 200.412 211.115C234.167 211.115 261.53 183.752 261.53 149.997Z" fill="black"/>
<path d="M246.507 149.997C246.507 124.54 225.87 103.903 200.412 103.903C174.955 103.903 154.318 124.54 154.318 149.997C154.318 175.455 174.955 196.092 200.412 196.092C225.87 196.092 246.507 175.455 246.507 149.997Z" fill="white"/>
<path d="M240.105 149.997C240.105 128.075 222.334 110.304 200.412 110.304C178.491 110.304 160.72 128.075 160.72 149.997C160.72 171.919 178.491 189.69 200.412 189.69C222.334 189.69 240.105 171.919 240.105 149.997Z" fill="#B93C3C"/>
<path d="M200.264 128.448C194.619 128.487 189.215 130.74 185.214 134.721C181.213 138.702 178.933 144.095 178.866 149.739C178.799 155.383 180.949 160.829 184.855 164.904C188.76 168.98 194.109 171.36 199.751 171.533C205.393 171.707 210.877 169.659 215.026 165.831C219.174 162.003 221.654 156.7 221.934 151.062C222.213 145.424 220.269 139.902 216.52 135.683C212.77 131.463 207.515 128.884 201.883 128.498" stroke="white" stroke-width="6.75045" stroke-linecap="round" stroke-linejoin="round" stroke-dasharray="13.5 13.5"/>
<path d="M208.444 149.997C208.444 145.561 204.848 141.966 200.412 141.966C195.977 141.966 192.381 145.561 192.381 149.997C192.381 154.433 195.977 158.029 200.412 158.029C204.848 158.029 208.444 154.433 208.444 149.997Z" fill="white"/>
<path d="M204.08 149.997C204.08 147.972 202.438 146.33 200.412 146.33C198.387 146.33 196.745 147.972 196.745 149.997C196.745 152.023 198.387 153.665 200.412 153.665C202.438 153.665 204.08 152.023 204.08 149.997Z" fill="#B93C3C"/>
<path d="M246.507 236.971C246.507 211.514 225.87 190.877 200.412 190.877C174.955 190.877 154.318 211.514 154.318 236.971C154.318 262.429 174.955 283.066 200.412 283.066C225.87 283.066 246.507 262.429 246.507 236.971Z" fill="white"/>
<path d="M240.105 236.971C240.105 215.05 222.334 197.278 200.412 197.278C178.491 197.278 160.72 215.05 160.72 236.971C160.72 258.893 178.491 276.664 200.412 276.664C222.334 276.664 240.105 258.893 240.105 236.971Z" fill="#B93C3C"/>
<path d="M200.264 215.423C194.619 215.461 189.215 217.714 185.214 221.695C181.213 225.676 178.933 231.069 178.866 236.713C178.799 242.357 180.949 247.803 184.855 251.878C188.76 255.954 194.109 258.334 199.751 258.507C205.393 258.681 210.877 256.633 215.026 252.805C219.174 248.977 221.654 243.674 221.934 238.036C222.213 232.398 220.269 226.876 216.52 222.657C212.77 218.437 207.515 215.858 201.883 215.472" stroke="white" stroke-width="6.75045" stroke-linecap="round" stroke-linejoin="round" stroke-dasharray="13.5 13.5"/>
<path d="M208.444 236.971C208.444 232.536 204.848 228.94 200.412 228.94C195.977 228.94 192.381 232.536 192.381 236.971C192.381 241.407 195.977 245.003 200.412 245.003C204.848 245.003 208.444 241.407 208.444 236.971Z" fill="white"/>
<path d="M204.08 236.971C204.08 234.946 202.438 233.304 200.412 233.304C198.387 233.304 196.745 234.946 196.745 236.971C196.745 238.997 198.387 240.639 200.412 240.639C202.438 240.639 204.08 238.997 204.08 236.971Z" fill="#B93C3C"/>
<path d="M246.507 62.3159C246.507 36.8586 225.87 16.2213 200.412 16.2213C174.955 16.2213 154.318 36.8586 154.318 62.3159C154.318 87.7733 174.955 108.411 200.412 108.411C225.87 108.411 246.507 87.7733 246.507 62.3159Z" fill="white"/>
<path d="M240.105 62.3159C240.105 40.3942 222.334 22.6231 200.412 22.6231C178.491 22.6231 160.72 40.3942 160.72 62.3159C160.72 84.2377 178.491 102.009 200.412 102.009C222.334 102.009 240.105 84.2377 240.105 62.3159Z" fill="#B93C3C"/>
<path d="M200.264 40.7672C194.619 40.8061 189.215 43.0583 185.214 47.0397C181.213 51.021 178.933 56.4135 178.866 62.0578C178.799 67.702 180.949 73.1473 184.855 77.2228C188.76 81.2983 194.109 83.6786 199.751 83.8519C205.393 84.0253 210.877 81.9778 215.026 78.1497C219.174 74.3216 221.654 69.0186 221.934 63.3809C222.213 57.7431 220.269 52.2209 216.52 48.0014C212.77 43.782 207.515 41.2023 201.883 40.8169" stroke="white" stroke-width="6.75045" stroke-linecap="round" stroke-linejoin="round" stroke-dasharray="13.5 13.5"/>
<path d="M208.444 62.3159C208.444 57.8802 204.848 54.2843 200.412 54.2843C195.977 54.2843 192.381 57.8802 192.381 62.3159C192.381 66.7517 195.977 70.3476 200.412 70.3476C204.848 70.3476 208.444 66.7517 208.444 62.3159Z" fill="white"/>
<path d="M204.08 62.3159C204.08 60.2904 202.438 58.6483 200.412 58.6483C198.387 58.6483 196.745 60.2904 196.745 62.3159C196.745 64.3415 198.387 65.9836 200.412 65.9836C202.438 65.9836 204.08 64.3415 204.08 62.3159Z" fill="#B93C3C"/>
</g>
<defs>
<clipPath id="clip0_1_602">
<rect width="300" height="400" fill="white" transform="translate(0 300) rotate(-90)"/>
</clipPath>
</defs>
</svg>
