<svg width="400" height="300" viewBox="0 0 400 300" fill="none" xmlns="http://www.w3.org/2000/svg">
<g clip-path="url(#clip0_1_662)">
<path fill-rule="evenodd" clip-rule="evenodd" d="M112.46 264.91C113.632 273.059 102.049 282.799 98.7469 271.153C90.8474 234.013 68.8953 108.138 62.2952 93.727C58.1078 81.076 80.6718 52.2602 91.1271 34.415C98.2603 23.3339 106.35 28.3815 109.998 36.9124C112.288 43.8191 116.403 84.5008 113.514 106.291C113.047 110.448 102.001 108.87 100.417 118.154C91.7084 160.747 106.6 221.623 112.46 264.91Z" fill="#19328C"/>
<path fill-rule="evenodd" clip-rule="evenodd" d="M111.108 108.496C114.652 109.58 119.582 110.132 120.759 112.426C122.421 116.829 121.285 121.72 125.437 124.163C131.733 127.725 149.582 149.505 162.752 164.612C166.486 168.895 163.74 176.138 156.778 176.605L182.468 176.664L181.884 165.936C173.85 156.595 146.939 130.845 146.624 119.325C145.824 110.168 142.727 99.5675 136.017 97.0442C130.024 94.9192 125.794 101.222 122.45 100.639C118.544 99.7297 114.517 92.1924 114.487 89.6643C114.434 85.349 107.335 107.417 111.108 108.496Z" fill="#19328C"/>
<path fill-rule="evenodd" clip-rule="evenodd" d="M195.758 242.629C184.158 198.304 148.194 93.6894 154.921 78.3607C165.09 59.3701 189.012 24.3425 199.111 23.8577C208.936 23.6649 209.772 23.7741 217.701 31.303C229.796 42.4988 289.9 78.3585 313.022 83.5826C318.888 84.7915 330.234 83.9591 334.936 87.9751C341.825 93.5971 333.88 162.822 331.915 207.885C331.353 223.12 314.16 230.195 313.638 207.432C313.063 178.44 311.746 128.911 303.823 123.039C296.384 117.736 212.668 81.1598 203.652 81.0748C197.997 80.9851 184.747 90.201 180.927 95.6904C175.717 102.391 207.147 196.33 213.684 238.147L195.758 242.629Z" fill="#19328C"/>
<path fill-rule="evenodd" clip-rule="evenodd" d="M208.237 261.096C233.404 249.268 279.873 223.769 324.706 213.584L322.717 186.31C288.981 193.057 231.653 209.532 203.531 225.519C153.298 254.311 159.947 285.167 208.237 261.096Z" fill="#19328C"/>
<path fill-rule="evenodd" clip-rule="evenodd" d="M138.017 177.469C123.477 180.2 125.936 190.641 141.288 189.019L322.185 173.323L321.531 161.3L138.017 177.469Z" fill="#19328C"/>
<path fill-rule="evenodd" clip-rule="evenodd" d="M139.133 119.244L139.133 130.571L318.613 151.931L318.613 140.948L139.133 119.244Z" fill="#19328C"/>
</g>
<defs>
<clipPath id="clip0_1_662">
<rect width="300" height="400" fill="white" transform="translate(0 300) rotate(-90)"/>
</clipPath>
</defs>
</svg>
