<svg width="400" height="300" viewBox="0 0 400 300" fill="none" xmlns="http://www.w3.org/2000/svg">
<g clip-path="url(#clip0_1_671)">
<path fill-rule="evenodd" clip-rule="evenodd" d="M308.105 122.421L337.299 119.253C338.821 127.729 336.954 134.303 336.379 140.326C342.824 135.259 345.896 127.964 348.538 119.168L369.363 117.769C370.006 130.6 370.112 132.663 370.901 142.579C372.49 133.224 373.708 129.773 375.378 123.199C379.684 133.181 381.039 136.142 387.852 149.602C383.803 135.086 383.427 129.83 380.289 118.489C385.347 122.594 387.679 127.28 395.659 130.237C390.296 118.962 382.474 110.72 377.889 105.273C375.727 99.8018 373.597 96.0979 370.219 88.292C368.676 92.321 368.475 98.8941 368.358 105.723L346.627 107.784C341.811 96.5265 333.715 89.7141 330.145 84.3293C334.043 92.9587 334.471 98.6216 335.644 108.236L305.94 111.372L308.105 122.421Z" fill="#B93C3C"/>
<path fill-rule="evenodd" clip-rule="evenodd" d="M307.798 180.928L336.993 183.954C336.523 192.546 333.187 198.571 331.238 204.33C338.69 200.734 343.367 194.258 347.97 186.226L368.598 189.225C366.267 201.883 365.895 203.919 364.378 213.763C368.083 204.965 370.067 201.851 373.211 195.785C375.108 206.431 375.747 209.604 379.287 224.17C378.685 209.153 379.531 203.944 379.085 192.217C383.071 197.283 384.264 202.346 391.363 206.904C388.733 194.775 383.007 185.091 379.792 178.814C378.945 173.021 377.722 168.959 376.228 160.632C373.795 164.241 372.084 170.615 370.395 177.256L348.732 174.714C346.631 162.716 340.309 154.371 338.069 148.367C339.88 157.606 338.992 163.223 337.919 172.853L308.234 169.69L307.798 180.928Z" fill="#B93C3C"/>
<path fill-rule="evenodd" clip-rule="evenodd" d="M234.324 221.718C227.805 234.477 223.212 237.898 218.492 241.937C208.967 250.276 203.628 258.309 196.985 268.007C204.583 259.678 210.783 252.409 224.019 245.244L219.406 268.344C225.637 251.48 233.802 238.69 242.744 230.069L234.324 221.718Z" fill="black"/>
<path fill-rule="evenodd" clip-rule="evenodd" d="M264.259 65.6593C254.539 46.2361 242.648 29.6082 236.125 4.93018C247.252 32.5004 257.698 47.525 272.812 61.0387C275.997 62.495 279.183 60.8072 282.369 60.2667L257.445 73.8168C261.027 70.6154 265.389 68.1408 264.259 65.6593Z" fill="black" stroke="black" stroke-width="0.442893"/>
<path fill-rule="evenodd" clip-rule="evenodd" d="M233.026 85.5812C241.947 79.9355 213.585 49.0803 202.443 32.9648L228.521 62.8518L210.337 33.7384C224.594 50.7985 234.04 70.8724 249.188 77.516L233.026 85.5812Z" fill="black" stroke="black" stroke-width="0.310495"/>
<path fill-rule="evenodd" clip-rule="evenodd" d="M67.6148 205.365C68.0456 208.017 67.5094 209.652 66.5973 210.753C65.5112 212.255 64.23 213.343 62.9133 214.316C59.6232 216.761 56.1724 218.796 52.9942 221.612C52.357 222.16 51.7321 222.734 51.1259 223.341C54.9821 224.867 59.0403 226.137 62.9526 226.329C66.7951 226.517 70.4818 225.526 72.8262 223.215C72.7368 223.147 72.542 222.792 72.2514 222.342C71.8281 221.62 71.5724 220.379 71.2311 218.765C70.9679 217.348 70.7943 215.524 70.4644 213.324C70.3486 212.453 70.1422 211.331 69.7814 209.973C69.6356 209.001 68.9513 207.437 67.6148 205.365ZM72.8262 223.215C72.3268 223.782 71.8919 224.391 71.538 225.038C71.1994 231.741 70.0105 238.107 68.9338 244.567C73.3782 242.686 77.9075 240.869 82.2928 238.893C84.8796 237.715 87.3819 236.443 89.5555 234.913C88.7582 234.427 87.8815 233.827 86.9032 233.155C82.6521 230.158 78.1541 226.615 72.8731 223.21C72.8641 223.231 72.8484 223.232 72.8262 223.215ZM89.5555 234.913C89.2586 236.357 89.0188 237.809 88.8977 239.282C88.5736 242.703 88.9402 246.387 90.9044 249.917C92.0729 251.984 93.7224 253.948 95.6974 255.718C97.0514 253.993 98.0661 252.17 98.8044 250.325C100.901 244.93 100.853 239.562 100.475 234.386C98.4964 235.296 96.8126 236.023 95.3992 236.273C94.4283 236.442 93.622 236.536 93.1171 236.415C92.6196 236.392 91.8747 236.086 90.9324 235.664C90.4997 235.463 90.0424 235.209 89.5555 234.913ZM100.475 234.386L100.476 234.387C107.66 238.888 113.632 242.162 117.786 244.658C118.212 237.455 119.942 230.799 123.613 224.499C115.805 228.449 108.252 232.029 100.475 234.386ZM123.613 224.499C125.232 225.418 126.552 226.25 127.538 227.02C128.504 231.428 128.78 235.948 128.414 240.541C131.683 238.918 137.074 236.756 144.36 234.131C138.585 230.516 133.231 226.442 128.391 222.061C126.785 222.884 125.194 223.699 123.613 224.499ZM144.36 234.131C144.345 236.665 144.117 239.213 143.688 241.77C142.647 246.391 142.055 251.228 142.255 256.268C144.706 255.201 147.053 254.014 149.26 252.696C153.726 250.037 157.661 246.795 160.315 243.017C158.863 242.639 157.311 242.011 155.692 241.25C153.22 240.053 150.801 238.422 148.404 236.547C147.035 235.767 145.686 234.962 144.36 234.131ZM160.315 243.017C160.453 244.775 160.761 246.536 161.287 248.28C162.747 253.299 166.222 258.26 171.952 261.709C172.318 260.924 172.641 260.135 172.919 259.344C175.274 252.358 173.894 245.733 170.981 240.318C169.532 241.631 168.087 242.652 166.734 243.007C165.466 243.483 163.778 243.554 162.063 243.349C161.499 243.287 160.916 243.174 160.315 243.017ZM170.981 240.318C171.728 240.659 172.502 240.969 173.297 241.247C179.568 243.35 186.826 243.569 194.162 242.793C192.363 239.916 190.331 237.257 188.189 234.761C185.443 231.557 182.498 228.619 179.41 225.889C178.837 227.47 178.21 229.01 177.518 230.502C175.749 234.205 173.914 237.487 171.569 239.77C171.373 239.957 171.177 240.141 170.981 240.318ZM179.41 225.889C187.019 224.917 194.741 222.952 202.39 220.469C200.349 218.763 198.274 217.124 196.176 215.538C192.165 212.571 188.12 209.675 184.042 206.861C183.691 208.984 183.32 211.108 182.931 213.23C181.965 217.638 180.858 221.895 179.41 225.889ZM184.042 206.861C191.404 204.431 198.748 201.793 206.061 198.908C199.702 194.598 193.259 190.494 186.73 186.633C186.073 193.374 185.156 200.119 184.042 206.861ZM186.73 186.633C192.168 184.453 197.583 182.125 202.968 179.63C204.698 178.83 206.424 178.013 208.147 177.181C201.473 173.337 194.717 169.74 187.898 166.348C187.823 170.485 187.655 174.609 187.379 178.716C187.205 181.354 186.987 183.993 186.73 186.633ZM187.898 166.348C194.841 162.94 201.722 159.293 208.538 155.459C204.416 153.452 200.275 151.513 196.122 149.632C193.284 148.346 190.44 147.084 187.592 145.839C187.65 147.19 187.703 148.537 187.748 149.883C187.935 155.389 187.997 160.88 187.898 166.348ZM187.592 145.839C194.313 142.013 200.989 138.042 207.647 134.038C200.579 130.978 193.501 127.985 186.425 124.961C186.853 131.988 187.296 138.945 187.592 145.839ZM186.425 124.961C189.225 123.276 192.025 121.59 194.828 119.911C198.681 117.607 202.54 115.295 206.405 112.981C199.355 109.954 192.323 106.94 185.313 103.914C185.542 109.408 185.827 114.89 186.149 120.358C186.24 121.896 186.332 123.43 186.425 124.961ZM185.313 103.914C192.031 99.9152 198.772 95.9188 205.543 91.9537C199.845 89.4734 194.166 86.9786 188.508 84.4556C187.207 83.9288 185.904 83.4183 184.599 82.9261C184.661 83.4921 184.72 84.0599 184.776 84.6294C184.857 91.0746 185.046 97.503 185.313 103.914ZM184.599 82.9261C191.098 79.169 197.467 74.94 203.455 69.92C195.955 67.2898 188.397 65.3616 180.883 64.4661C182.827 70.2226 183.896 76.4522 184.599 82.9261ZM180.883 64.4661C181.171 64.2143 181.459 63.9602 181.744 63.7037C186.943 58.9689 191.874 53.5794 195.44 46.9675C190.611 46.6113 185.884 46.7549 181.429 47.5853C178.341 48.1686 175.404 49.1135 172.792 50.4191C173.455 51.0262 174.106 51.7048 174.738 52.4272C177.32 55.4108 179.121 59.4896 180.725 64.0043C180.778 64.1579 180.831 64.3118 180.883 64.4661ZM172.792 50.4191C174.949 45.9496 175.963 40.7872 174.845 35.2848C174.387 33.0991 173.599 30.8954 172.512 28.7322C167.522 32.3513 164.207 37.0332 162.496 41.858C161.842 43.6668 161.391 45.4998 161.113 47.3383C161.744 47.2231 162.362 47.1453 162.967 47.1102C165.146 46.9699 167.304 47.2106 168.968 47.9433C170.265 48.3989 171.551 49.2841 172.792 50.4191ZM161.113 47.3383C158.309 42.9777 153.934 39.1893 148.851 36.1419C147.097 35.0864 145.251 34.1117 143.33 33.2173C142.85 39.7171 143.652 45.9522 145.275 51.7783C145.561 52.8041 145.875 53.8172 146.215 54.8165C146.549 54.5448 146.887 54.2772 147.23 54.0139C149.82 52.0473 152.532 50.3696 155.336 49.1617C157.323 48.3295 159.269 47.6748 161.113 47.3383ZM146.215 54.8165C140.03 52.2043 133.166 50.4591 125.842 49.8443C125.215 49.7068 124.641 49.5693 124.12 49.434C128.424 55.2294 129.646 61.6619 128.081 67.6631C127.74 67.9572 127.357 68.2712 126.934 68.6056C127.461 68.7512 127.988 68.899 128.515 69.0488C131.985 66.2418 136.034 63.4131 140.372 60.5407C142.101 58.479 144.068 56.5616 146.215 54.8165ZM126.934 68.6056C121.273 63.2195 118.725 56.6136 118.538 48.7671C117.353 49.7505 115.934 50.8748 114.298 52.1459C109.889 55.3146 105.914 58.8853 102.912 62.8529C104.746 63.2896 106.648 63.9277 108.601 64.6814C114.746 65.5236 120.836 66.9197 126.934 68.6056ZM102.912 62.8529C102.475 60.1849 101.771 57.5235 100.704 54.9031C99.0162 50.7358 96.3629 46.66 92.4681 43.1709C91.5361 44.7548 90.7477 46.3698 90.1221 47.9998C87.9711 53.6214 87.9123 59.3524 89.483 64.3554C90.8548 63.5111 92.3607 62.8762 93.8622 62.5494C95.5816 62.1261 97.6162 62.0976 99.7564 62.3094C100.782 62.4096 101.835 62.5965 102.912 62.8529ZM89.483 64.3554L89.4666 64.3433C83.658 60.1082 75.595 58.3809 67.1847 58.1804C68.4274 61.242 69.9724 64.105 71.6752 66.7891C74.1067 70.3525 75.7558 74.0177 76.4545 77.9671C78.2117 76.0481 79.9924 74.218 81.8347 72.4981C84.2377 68.9714 86.6713 65.9327 89.4775 64.3587L89.483 64.3554ZM76.4545 77.9671C70.9211 78.0019 67.1291 77.8627 65.2905 77.0093C63.9674 75.4221 62.7743 73.7592 61.6952 72.0238C60.481 74.7592 57.3958 78.7444 53.1673 84.086C58.4487 84.4653 63.8219 85.2818 69.282 86.2815C71.6939 83.3802 74.0523 80.5905 76.4545 77.9671ZM53.1673 84.086C50.4021 80.2337 48.202 76.0177 46.3416 71.4817C45.1968 69.0491 43.8248 66.6296 42.138 64.3116C37.4721 70.4823 34.3592 77.3474 34.8734 83.9379C34.8907 84.1438 34.9116 84.3489 34.9359 84.5531C34.988 84.5338 35.0405 84.5148 35.0932 84.4961C37.4487 83.5133 40.8666 83.5826 44.7073 83.8936C47.5001 83.8041 50.3204 83.8815 53.1673 84.086ZM34.9359 84.5531C32.8855 82.009 30.0939 79.8304 26.6689 78.4195C23.2104 76.9942 19.1165 76.3664 14.8232 76.6503C14.4535 76.6757 14.0825 76.7071 13.7104 76.7444C16.383 84.5995 22.1772 89.8527 28.3919 93.4091C28.9638 90.9642 29.6969 88.8309 30.8709 87.469C31.4018 86.7877 32.0087 86.1852 32.6545 85.7316C33.2819 85.2674 34.0696 84.8731 34.9359 84.5531ZM28.3919 93.4091C28.1227 93.4565 27.8534 93.5071 27.5839 93.5609C20.539 95.0235 13.6634 98.5607 7.34545 103.088C8.72183 103.77 10.1104 104.401 11.5058 104.987C17.3626 107.458 23.3451 109.176 29.3323 110.294C28.7597 107.998 28.337 105.7 28.0956 103.416C27.755 99.9405 27.7228 96.6398 28.3281 93.6862C28.3491 93.5934 28.3704 93.501 28.3919 93.4091ZM29.3323 110.294C26.4673 112.467 23.7191 114.868 21.1014 117.452C18.2897 120.229 15.6239 123.219 13.1428 126.423C19.2091 127.348 25.229 127.739 31.0989 127.561C32.8532 127.749 34.5701 128.094 36.2405 128.588C35.9355 127.558 35.637 126.517 35.344 125.465C33.4227 122.06 31.8492 118.441 30.6072 114.697C30.1263 113.232 29.6986 111.763 29.3323 110.294ZM36.2405 128.588C32.1822 134.999 29.1077 138.571 27.7896 139.581C27.0703 139.659 26.3483 139.723 25.6232 139.772C27.2788 141.521 29.2244 145.523 32.1972 150.704C34.6195 147.411 37.4835 144.151 40.5018 140.812C38.9128 137.021 37.519 132.905 36.2405 128.588ZM32.1972 150.704C24.652 151.739 16.8196 151.572 8.36996 151.642C8.42476 151.723 8.47985 151.806 8.53523 151.888C11.3242 157.119 15.3444 161.612 20.2243 163.916C21.8268 164.667 23.5052 165.189 25.203 165.479C25.1882 165.129 25.202 164.782 25.2459 164.448C25.3209 163.381 25.8506 162.094 26.5823 160.689C27.8357 157.255 29.8002 153.963 32.1972 150.704ZM25.203 165.479C22.6133 166.156 20.1265 167.449 17.9713 169.28C14.4386 172.289 11.9251 176.594 10.23 181.422C16.2927 181.577 21.941 180.194 27.0338 178.357C29.0152 177.64 30.9351 176.838 32.8036 175.966C32.1676 175.465 31.5559 174.953 30.9711 174.429C28.2108 171.747 25.9146 169.367 25.5078 167.22C25.3319 166.657 25.2278 166.063 25.203 165.479ZM32.8036 175.966C30.8287 182.819 30.2568 190.334 30.2521 197.894C32.1771 196.909 34.0593 195.883 35.9089 194.83C40.654 192.033 45.4416 189.262 50.6343 186.898C48.1905 185.377 45.7755 184.019 43.4477 182.757C39.5265 180.575 35.8805 178.391 32.8036 175.966ZM50.6343 186.898C50.5631 189.952 50.3784 192.984 49.986 195.948C49.4083 200.379 48.3522 204.765 45.5916 207.846C45.5916 207.846 45.6203 207.833 45.6203 207.833C48.4395 206.358 51.949 206.241 55.4854 206.334C59.7068 206.475 63.9261 206.492 67.768 205.581C67.0644 204.598 66.3756 203.296 65.5665 201.76C64.7952 200.186 63.6649 198.256 61.9872 196.109C59.663 193.374 57.239 191.325 55.0035 189.796C53.5451 188.762 52.0846 187.801 50.6343 186.898Z" fill="#004900"/>
<path fill-rule="evenodd" clip-rule="evenodd" d="M323.397 277.488C173.926 264.816 198.37 63.9145 197.047 63.5677L228.42 86.6375C228.42 86.6375 316.176 53.6281 321.476 17.9108C324.549 -2.80164 314.458 72.6171 314.261 146.861C314.098 208.117 323.651 270.362 323.397 277.488Z" fill="black" stroke="black" stroke-width="0.961924"/>
<path d="M258.696 223.034C260.592 221.473 262.847 221.043 264.967 221.839C267.086 222.635 268.897 224.592 270.001 227.28C271.106 229.968 271.416 233.168 270.861 236.18C270.307 239.191 268.934 241.767 267.044 243.344C265.154 244.92 262.901 245.369 260.778 244.591C258.656 243.813 256.837 241.872 255.721 239.193C254.604 236.515 254.282 233.317 254.823 230.301C255.365 227.285 256.727 224.698 258.61 223.105" fill="white"/>
<path d="M239.816 202.449C241.713 200.888 243.968 200.459 246.088 201.255C248.207 202.051 250.017 204.007 251.122 206.695C252.227 209.383 252.536 212.584 251.982 215.595C251.428 218.606 250.055 221.183 248.165 222.759C246.275 224.336 244.022 224.785 241.899 224.007C239.777 223.229 237.958 221.288 236.842 218.609C235.725 215.93 235.403 212.733 235.944 209.717C236.486 206.701 237.848 204.113 239.731 202.52" fill="white"/>
<path d="M260.148 189.188C262.045 187.627 264.3 187.198 266.419 187.994C268.538 188.79 270.349 190.746 271.454 193.434C272.559 196.122 272.868 199.322 272.314 202.334C271.759 205.345 270.387 207.921 268.497 209.498C266.607 211.075 264.353 211.523 262.231 210.745C260.108 209.967 258.289 208.026 257.173 205.348C256.057 202.669 255.734 199.471 256.276 196.455C256.817 193.44 258.179 190.852 260.063 189.259" fill="white"/>
<path d="M278.873 206.428C280.769 204.867 283.024 204.437 285.144 205.233C287.263 206.029 289.074 207.986 290.179 210.674C291.283 213.362 291.593 216.562 291.038 219.574C290.484 222.585 289.111 225.161 287.221 226.738C285.331 228.315 283.078 228.763 280.955 227.985C278.833 227.207 277.014 225.266 275.898 222.587C274.781 219.909 274.459 216.711 275 213.695C275.542 210.679 276.904 208.092 278.787 206.499" fill="white"/>
<path d="M278.577 238.983C280.473 237.422 282.729 236.993 284.848 237.789C286.967 238.585 288.778 240.541 289.883 243.229C290.988 245.917 291.297 249.118 290.743 252.129C290.188 255.14 288.816 257.716 286.926 259.293C285.035 260.87 282.782 261.318 280.66 260.541C278.537 259.763 276.718 257.821 275.602 255.143C274.486 252.464 274.163 249.267 274.705 246.251C275.246 243.235 276.608 240.647 278.491 239.054" fill="white"/>
<path d="M300.427 218.983C302.324 217.422 304.579 216.993 306.698 217.789C308.818 218.585 310.628 220.541 311.733 223.229C312.838 225.917 313.147 229.118 312.593 232.129C312.039 235.14 310.666 237.716 308.776 239.293C306.886 240.87 304.633 241.318 302.51 240.54C300.387 239.762 298.569 237.821 297.452 235.143C296.336 232.464 296.013 229.266 296.555 226.25C297.097 223.235 298.459 220.647 300.342 219.054" fill="white"/>
<path d="M299.562 246.999C301.458 245.438 303.714 245.008 305.833 245.804C307.952 246.6 309.763 248.557 310.868 251.245C311.973 253.933 312.282 257.133 311.728 260.144C311.173 263.156 309.801 265.732 307.911 267.309C306.02 268.885 303.767 269.334 301.645 268.556C299.522 267.778 297.703 265.837 296.587 263.158C295.471 260.48 295.148 257.282 295.69 254.266C296.231 251.25 297.593 248.662 299.476 247.07" fill="white"/>
<path d="M265.812 106.874C267.709 105.313 269.964 104.884 272.083 105.68C274.203 106.476 276.013 108.432 277.118 111.12C278.223 113.809 278.532 117.009 277.978 120.02C277.424 123.031 276.051 125.608 274.161 127.184C272.271 128.761 270.018 129.21 267.895 128.432C265.772 127.654 263.954 125.713 262.837 123.034C261.721 120.355 261.398 117.158 261.94 114.142C262.482 111.126 263.843 108.538 265.727 106.945" fill="white"/>
<path d="M283.383 95.4764C285.279 93.9157 287.534 93.4863 289.654 94.2822C291.773 95.0782 293.584 97.0347 294.689 99.7227C295.793 102.411 296.103 105.611 295.548 108.622C294.994 111.633 293.621 114.21 291.731 115.787C289.841 117.363 287.588 117.812 285.465 117.034C283.343 116.256 281.524 114.315 280.408 111.636C279.291 108.958 278.969 105.76 279.51 102.744C280.052 99.7283 281.414 97.1403 283.297 95.5476" fill="white"/>
<path d="M303.092 81.2259C304.989 79.6652 307.244 79.2358 309.363 80.0318C311.482 80.8278 313.293 82.7842 314.398 85.4723C315.503 88.1604 315.812 91.3607 315.258 94.3719C314.703 97.3831 313.331 99.9594 311.441 101.536C309.551 103.113 307.297 103.561 305.175 102.783C303.052 102.005 301.233 100.064 300.117 97.3858C299.001 94.7072 298.678 91.5095 299.22 88.4937C299.762 85.4778 301.123 82.8899 303.007 81.2971" fill="white"/>
<path d="M265.023 76.8628C266.92 75.3021 269.175 74.8727 271.294 75.6687C273.414 76.4647 275.224 78.4211 276.329 81.1091C277.434 83.7972 277.743 86.9976 277.189 90.0087C276.635 93.0199 275.262 95.5962 273.372 97.173C271.482 98.7497 269.229 99.1983 267.106 98.4203C264.983 97.6423 263.165 95.7012 262.048 93.0226C260.932 90.344 260.609 87.1463 261.151 84.1305C261.693 81.1147 263.054 78.5268 264.938 76.934" fill="white"/>
<path d="M284.352 65.0353C286.248 63.4746 288.503 63.0452 290.623 63.8412C292.742 64.6372 294.553 66.5936 295.658 69.2817C296.762 71.9697 297.072 75.1701 296.517 78.1813C295.963 81.1925 294.59 83.7688 292.7 85.3455C290.81 86.9223 288.557 87.3708 286.434 86.5928C284.312 85.8148 282.493 83.8738 281.377 81.1952C280.26 78.5165 279.938 75.3189 280.479 72.303C281.021 69.2872 282.383 66.6993 284.266 65.1065" fill="white"/>
<path d="M301.919 51.7253C303.816 50.1646 306.071 49.7352 308.19 50.5312C310.309 51.3272 312.12 53.2836 313.225 55.9717C314.33 58.6597 314.639 61.8601 314.085 64.8713C313.53 67.8825 312.158 70.4588 310.268 72.0355C308.378 73.6123 306.124 74.0608 304.002 73.2828C301.879 72.5048 300.06 70.5638 298.944 67.8852C297.828 65.2066 297.505 62.0089 298.047 58.993C298.588 55.9772 299.95 53.3893 301.834 51.7965" fill="white"/>
<path d="M244.512 85.7858C246.408 84.2251 248.663 83.7957 250.783 84.5917C252.902 85.3877 254.712 87.3441 255.817 90.0322C256.922 92.7202 257.232 95.9206 256.677 98.9318C256.123 101.943 254.75 104.519 252.86 106.096C250.97 107.673 248.717 108.121 246.594 107.343C244.472 106.565 242.653 104.624 241.537 101.946C240.42 99.267 240.098 96.0694 240.639 93.0535C241.181 90.0377 242.543 87.4498 244.426 85.857" fill="white"/>
<path d="M243.609 113.963C245.505 112.402 247.76 111.973 249.88 112.769C251.999 113.565 253.81 115.521 254.915 118.209C256.02 120.897 256.329 124.097 255.774 127.109C255.22 130.12 253.847 132.696 251.957 134.273C250.067 135.85 247.814 136.298 245.691 135.52C243.569 134.742 241.75 132.801 240.634 130.123C239.518 127.444 239.195 124.246 239.737 121.23C240.278 118.215 241.64 115.627 243.523 114.034" fill="white"/>
<path d="M223.605 96.7656C225.502 95.2049 227.757 94.7755 229.876 95.5715C231.996 96.3675 233.806 98.3239 234.911 101.012C236.016 103.7 236.325 106.9 235.771 109.912C235.217 112.923 233.844 115.499 231.954 117.076C230.064 118.653 227.811 119.101 225.688 118.323C223.566 117.545 221.747 115.604 220.631 112.925C219.514 110.247 219.192 107.049 219.733 104.033C220.275 101.018 221.637 98.4296 223.52 96.8368" fill="white"/>
<path d="M203.618 112.159C205.515 110.599 207.77 110.169 209.889 110.965C212.008 111.761 213.819 113.718 214.924 116.406C216.029 119.094 216.338 122.294 215.784 125.305C215.229 128.316 213.857 130.893 211.967 132.469C210.077 134.046 207.823 134.495 205.701 133.717C203.578 132.939 201.759 130.998 200.643 128.319C199.527 125.64 199.204 122.443 199.746 119.427C200.287 116.411 201.649 113.823 203.533 112.23" fill="white"/>
<path d="M204.671 82.498C206.568 80.9373 208.823 80.5079 210.943 81.3039C213.062 82.0998 214.872 84.0563 215.977 86.7443C217.082 89.4324 217.391 92.6328 216.837 95.6439C216.283 98.6551 214.91 101.231 213.02 102.808C211.13 104.385 208.877 104.833 206.754 104.055C204.632 103.277 202.813 101.336 201.697 98.6578C200.58 95.9792 200.258 92.7815 200.799 89.7657C201.341 86.7499 202.703 84.1619 204.586 82.5692" fill="white"/>
<path d="M208.719 190.336C207.996 201.21 206.208 214.872 204.663 221.329C202.004 232.442 198.115 239.776 192.372 244.512C188.023 248.097 184.32 249.369 178.193 249.38C167.78 249.399 154.961 243.838 143.092 234.153C141.78 233.083 139.495 231.693 138.013 231.065C136.531 230.436 133.319 228.934 130.873 227.727L126.428 225.532L119.346 231.329C111.818 237.491 108.563 239.805 103.366 242.69C101.586 243.678 99.2202 245.061 98.1079 245.763C95.6388 247.323 93.3751 246.9 91.0936 246.89C86.452 246.87 80.9912 243.344 74.3423 235.41C71.3586 231.85 69.7266 231.247 69.2097 220.719C68.9889 216.223 68.6001 211.939 68.3455 211.199C67.189 207.835 63.6216 203.428 59.8766 200.736C57.6607 199.144 55.8702 198.207 47.7516 194.391C35.5771 188.67 26.082 182.99 20.747 178.237C13.715 171.973 11.9564 167.532 14.434 162.297C17.1904 156.472 21.1665 151.434 28.0608 145.032L31.5527 141.79L30.3312 138.807C29.6594 137.167 28.4884 133.856 27.7291 131.45C26.9699 129.044 25.4375 124.88 24.3239 122.197C17.6286 106.062 18.1324 89.3709 25.5257 82.3833C27.3345 80.6737 30.399 79.3203 33.1907 78.998C36.656 78.598 50.8443 79.4025 56.4477 80.3167C65.3006 81.7611 64.1376 81.9599 67.1047 78.4951C68.5169 76.8461 71.6111 73.607 73.9807 71.2971C76.3502 68.9873 79.0968 66.1603 80.0841 65.0149C82.5624 62.14 86.4291 59.2196 89.3835 57.9914C94.5435 55.8463 99.1537 55.7647 106.092 57.6959C108.374 58.3312 112.335 59.2681 114.893 59.7778C117.452 60.2875 121.831 61.3372 124.626 62.1106L129.708 63.5166L132.918 61.0203C134.683 59.6474 137.43 57.6243 139.021 56.5247C140.612 55.425 142.835 53.4945 143.961 52.2348C151.831 43.43 162.782 38.1623 170.831 39.3093C174.751 39.8679 177.606 41.1779 181.379 44.1489C189.258 50.3541 196.239 61.7847 201.505 77.1066C202.675 80.51 202.733 81.0042 203.084 90.5662C203.61 104.878 203.886 108.544 206.483 135.824C207.258 143.968 208.083 153.204 208.316 156.351C208.913 164.413 209.145 183.938 208.719 190.336Z" fill="#004900"/>
<path fill-rule="evenodd" clip-rule="evenodd" d="M158.935 199.961C160.226 208.992 150.58 225.332 151.169 226.65C151.451 227.281 161.946 206.268 162.396 208.01C164.51 216.192 164.899 225.158 165.918 233.542L167.913 202.259L175.893 234.008C175.55 223.192 172.192 210.035 174.521 201.442C169.782 202.654 163.211 201.352 158.935 199.961Z" fill="white" stroke="white" stroke-width="2.38692" stroke-linejoin="round"/>
<path fill-rule="evenodd" clip-rule="evenodd" d="M191.514 173.169L172.407 222.805L190.978 200.04L186.253 227.012L212.797 187.613L191.514 173.169Z" fill="#B93C3C"/>
<path d="M61.2718 157.087C62.6058 155.45 64.4322 154.223 66.5164 153.564C68.6007 152.905 70.8478 152.844 72.9692 153.39C75.0905 153.935 76.9894 155.062 78.422 156.624C79.8546 158.187 80.7556 160.116 81.0092 162.161C81.2629 164.207 80.8576 166.277 79.8455 168.106C78.8334 169.934 77.2606 171.438 75.3291 172.424C73.3975 173.409 71.1954 173.832 69.0053 173.638C66.8153 173.443 64.7372 172.641 63.038 171.333" fill="#004900"/>
<path d="M61.2718 157.087C62.6058 155.45 64.4322 154.223 66.5164 153.564C68.6007 152.905 70.8478 152.844 72.9692 153.39C75.0905 153.935 76.9894 155.062 78.422 156.624C79.8546 158.187 80.7556 160.116 81.0092 162.161C81.2629 164.207 80.8576 166.277 79.8455 168.106C78.8334 169.934 77.2606 171.438 75.3291 172.424C73.3975 173.409 71.1954 173.832 69.0053 173.638C66.8153 173.443 64.7372 172.641 63.038 171.333" stroke="white" stroke-width="8.72118" stroke-linecap="round" stroke-linejoin="round"/>
<path d="M64.3336 116.432C66.047 115.14 68.1337 114.357 70.3257 114.184C72.5178 114.01 74.7152 114.454 76.6359 115.458C78.5566 116.462 80.1129 117.981 81.105 119.819C82.0971 121.657 82.4798 123.731 82.2038 125.774C81.9279 127.818 81.006 129.737 79.5564 131.286C78.1068 132.835 76.1958 133.944 74.0686 134.469C71.9413 134.994 69.6951 134.911 67.6181 134.233C65.5411 133.554 63.7282 132.31 62.4121 130.659" fill="#004900"/>
<path d="M64.3336 116.432C66.047 115.14 68.1337 114.357 70.3257 114.184C72.5178 114.01 74.7152 114.454 76.6359 115.458C78.5566 116.462 80.1129 117.981 81.105 119.819C82.0971 121.657 82.4798 123.731 82.2038 125.774C81.9279 127.818 81.006 129.737 79.5564 131.286C78.1068 132.835 76.1958 133.944 74.0686 134.469C71.9413 134.994 69.6951 134.911 67.6181 134.233C65.5411 133.554 63.7282 132.31 62.4121 130.659" stroke="white" stroke-width="8.72113" stroke-linecap="round" stroke-linejoin="round"/>
<path d="M96.1013 137.218C97.6494 135.755 99.6293 134.758 101.787 134.356C103.944 133.954 106.181 134.164 108.21 134.961C110.239 135.757 111.967 137.103 113.173 138.825C114.378 140.548 115.007 142.569 114.977 144.628C114.947 146.687 114.261 148.691 113.006 150.383C111.751 152.074 109.984 153.376 107.933 154.12C105.882 154.865 103.64 155.019 101.495 154.563C99.35 154.106 97.3996 153.059 95.8944 151.558" fill="#004900"/>
<path d="M96.1013 137.218C97.6494 135.755 99.6293 134.758 101.787 134.356C103.944 133.954 106.181 134.164 108.21 134.961C110.239 135.757 111.967 137.103 113.173 138.825C114.378 140.548 115.007 142.569 114.977 144.628C114.947 146.687 114.261 148.691 113.006 150.383C111.751 152.074 109.984 153.376 107.933 154.12C105.882 154.865 103.64 155.019 101.495 154.563C99.35 154.106 97.3996 153.059 95.8944 151.558" stroke="white" stroke-width="8.72169" stroke-linecap="round" stroke-linejoin="round"/>
<path d="M93.3661 179.838C94.2289 177.944 95.6768 176.334 97.5239 175.215C99.3711 174.097 101.533 173.521 103.733 173.561C105.932 173.601 108.069 174.255 109.868 175.44C111.667 176.625 113.047 178.287 113.83 180.211C114.614 182.136 114.765 184.236 114.264 186.241C113.764 188.246 112.634 190.066 111.021 191.466C109.408 192.867 107.384 193.783 105.21 194.099C103.037 194.415 100.811 194.116 98.8208 193.239" fill="#004900"/>
<path d="M93.3661 179.838C94.2289 177.944 95.6768 176.334 97.5239 175.215C99.3711 174.097 101.533 173.521 103.733 173.561C105.932 173.601 108.069 174.255 109.868 175.44C111.667 176.625 113.047 178.287 113.83 180.211C114.614 182.136 114.765 184.236 114.264 186.241C113.764 188.246 112.634 190.066 111.021 191.466C109.408 192.867 107.384 193.783 105.21 194.099C103.037 194.415 100.811 194.116 98.8208 193.239" stroke="white" stroke-width="8.71746" stroke-linecap="round" stroke-linejoin="round"/>
<path d="M98.2818 96.0571C100.219 95.0811 102.424 94.6695 104.613 94.8749C106.801 95.0804 108.875 95.8936 110.566 97.2102C112.258 98.5268 113.491 100.287 114.106 102.264C114.722 104.241 114.692 106.345 114.021 108.307C113.35 110.268 112.068 111.997 110.34 113.271C108.612 114.545 106.516 115.307 104.322 115.458C102.128 115.61 99.9359 115.144 98.027 114.12C96.118 113.097 94.5793 111.562 93.6085 109.714" fill="#004900"/>
<path d="M98.2818 96.0571C100.219 95.0811 102.424 94.6695 104.613 94.8749C106.801 95.0804 108.875 95.8936 110.566 97.2102C112.258 98.5268 113.491 100.287 114.106 102.264C114.722 104.241 114.692 106.345 114.021 108.307C113.35 110.268 112.068 111.997 110.34 113.271C108.612 114.545 106.516 115.307 104.322 115.458C102.128 115.61 99.9359 115.144 98.027 114.12C96.118 113.097 94.5793 111.562 93.6085 109.714" stroke="white" stroke-width="8.71854" stroke-linecap="round" stroke-linejoin="round"/>
<path d="M125.689 160.113C126.552 158.219 128 156.609 129.847 155.49C131.694 154.372 133.856 153.795 136.056 153.835C138.255 153.876 140.392 154.53 142.191 155.715C143.99 156.9 145.37 158.562 146.153 160.486C146.937 162.411 147.088 164.51 146.587 166.516C146.087 168.521 144.957 170.341 143.344 171.741C141.731 173.141 139.707 174.058 137.533 174.374C135.36 174.69 133.134 174.39 131.144 173.514" fill="#004900"/>
<path d="M125.689 160.113C126.552 158.219 128 156.609 129.847 155.49C131.694 154.372 133.856 153.795 136.056 153.835C138.255 153.876 140.392 154.53 142.191 155.715C143.99 156.9 145.37 158.562 146.153 160.486C146.937 162.411 147.088 164.51 146.587 166.516C146.087 168.521 144.957 170.341 143.344 171.741C141.731 173.141 139.707 174.058 137.533 174.374C135.36 174.69 133.134 174.39 131.144 173.514" stroke="white" stroke-width="8.71746" stroke-linecap="round" stroke-linejoin="round"/>
<path d="M130.162 117.612C132.099 116.636 134.304 116.224 136.493 116.43C138.682 116.635 140.755 117.449 142.447 118.765C144.138 120.082 145.371 121.842 145.987 123.819C146.602 125.796 146.572 127.9 145.901 129.862C145.23 131.823 143.948 133.552 142.22 134.826C140.492 136.1 138.396 136.862 136.202 137.013C134.008 137.165 131.816 136.699 129.907 135.675C127.998 134.652 126.459 133.117 125.489 131.269" fill="#004900"/>
<path d="M130.162 117.612C132.099 116.636 134.304 116.224 136.493 116.43C138.682 116.635 140.755 117.449 142.447 118.765C144.138 120.082 145.371 121.842 145.987 123.819C146.602 125.796 146.572 127.9 145.901 129.862C145.23 131.823 143.948 133.552 142.22 134.826C140.492 136.1 138.396 136.862 136.202 137.013C134.008 137.165 131.816 136.699 129.907 135.675C127.998 134.652 126.459 133.117 125.489 131.269" stroke="white" stroke-width="8.71854" stroke-linecap="round" stroke-linejoin="round"/>
<path d="M162.183 137.411C163.731 135.947 165.711 134.951 167.868 134.548C170.026 134.146 172.263 134.357 174.291 135.153C176.32 135.95 178.048 137.295 179.254 139.018C180.46 140.741 181.088 142.761 181.059 144.82C181.029 146.88 180.343 148.884 179.087 150.575C177.832 152.267 176.066 153.568 174.015 154.313C171.964 155.058 169.722 155.212 167.577 154.755C165.432 154.298 163.481 153.252 161.976 151.75" fill="#004900"/>
<path d="M162.183 137.411C163.731 135.947 165.711 134.951 167.868 134.548C170.026 134.146 172.263 134.357 174.291 135.153C176.32 135.95 178.048 137.295 179.254 139.018C180.46 140.741 181.088 142.761 181.059 144.82C181.029 146.88 180.343 148.884 179.087 150.575C177.832 152.267 176.066 153.568 174.015 154.313C171.964 155.058 169.722 155.212 167.577 154.755C165.432 154.298 163.481 153.252 161.976 151.75" stroke="white" stroke-width="8.72169" stroke-linecap="round" stroke-linejoin="round"/>
<path d="M133.906 79.8911C136.085 79.6073 138.305 79.9397 140.281 80.8455C142.257 81.7513 143.898 83.1893 144.994 84.9747C146.091 86.7602 146.592 88.8117 146.434 90.8658C146.276 92.92 145.466 94.8831 144.108 96.5031C142.749 98.1231 140.905 99.3261 138.811 99.9577C136.717 100.589 134.469 100.62 132.356 100.047C130.243 99.4744 128.361 98.3232 126.952 96.7417C125.543 95.1602 124.671 93.2205 124.448 91.1716" fill="#004900"/>
<path d="M133.906 79.8911C136.085 79.6073 138.305 79.9397 140.281 80.8455C142.257 81.7513 143.898 83.1893 144.994 84.9747C146.091 86.7602 146.592 88.8117 146.434 90.8658C146.276 92.92 145.466 94.8831 144.108 96.5031C142.749 98.1231 140.905 99.3261 138.811 99.9577C136.717 100.589 134.469 100.62 132.356 100.047C130.243 99.4744 128.361 98.3232 126.952 96.7417C125.543 95.1602 124.671 93.2205 124.448 91.1716" stroke="white" stroke-width="8.71278" stroke-linecap="round" stroke-linejoin="round"/>
<path d="M168.108 99.6371C170.287 99.3533 172.507 99.6857 174.482 100.592C176.458 101.497 178.099 102.935 179.196 104.721C180.292 106.506 180.794 108.558 180.636 110.612C180.478 112.666 179.668 114.629 178.309 116.249C176.951 117.869 175.106 119.072 173.012 119.704C170.919 120.335 168.671 120.366 166.558 119.793C164.445 119.22 162.563 118.069 161.154 116.488C159.745 114.906 158.873 112.967 158.649 110.918" fill="#004900"/>
<path d="M168.108 99.6371C170.287 99.3533 172.507 99.6857 174.482 100.592C176.458 101.497 178.099 102.935 179.196 104.721C180.292 106.506 180.794 108.558 180.636 110.612C180.478 112.666 179.668 114.629 178.309 116.249C176.951 117.869 175.106 119.072 173.012 119.704C170.919 120.335 168.671 120.366 166.558 119.793C164.445 119.22 162.563 118.069 161.154 116.488C159.745 114.906 158.873 112.967 158.649 110.918" stroke="white" stroke-width="8.71278" stroke-linecap="round" stroke-linejoin="round"/>
<path d="M125.471 202.927C125.434 200.868 126.056 198.846 127.256 197.12C128.457 195.394 130.18 194.043 132.207 193.241C134.233 192.439 136.469 192.222 138.628 192.618C140.786 193.014 142.769 194.005 144.322 195.464C145.875 196.923 146.927 198.783 147.342 200.806C147.758 202.828 147.518 204.92 146.654 206.814C145.79 208.708 144.341 210.317 142.493 211.435C140.645 212.552 138.483 213.127 136.283 213.086" fill="#004900"/>
<path d="M125.471 202.927C125.434 200.868 126.056 198.846 127.256 197.12C128.457 195.394 130.18 194.043 132.207 193.241C134.233 192.439 136.469 192.222 138.628 192.618C140.786 193.014 142.769 194.005 144.322 195.464C145.875 196.923 146.927 198.783 147.342 200.806C147.758 202.828 147.518 204.92 146.654 206.814C145.79 208.708 144.341 210.317 142.493 211.435C140.645 212.552 138.483 213.127 136.283 213.086" stroke="white" stroke-width="8.71222" stroke-linecap="round" stroke-linejoin="round"/>
<path d="M159.046 181.766C159.01 179.707 159.631 177.685 160.832 175.959C162.032 174.233 163.756 172.882 165.782 172.08C167.808 171.278 170.044 171.061 172.203 171.457C174.362 171.853 176.345 172.844 177.898 174.303C179.45 175.762 180.502 177.622 180.917 179.644C181.333 181.667 181.093 183.759 180.229 185.653C179.365 187.547 177.916 189.156 176.068 190.274C174.22 191.391 172.058 191.966 169.858 191.925" fill="#004900"/>
<path d="M159.046 181.766C159.01 179.707 159.631 177.685 160.832 175.959C162.032 174.233 163.756 172.882 165.782 172.08C167.808 171.278 170.044 171.061 172.203 171.457C174.362 171.853 176.345 172.844 177.898 174.303C179.45 175.762 180.502 177.622 180.917 179.644C181.333 181.667 181.093 183.759 180.229 185.653C179.365 187.547 177.916 189.156 176.068 190.274C174.22 191.391 172.058 191.966 169.858 191.925" stroke="white" stroke-width="8.71222" stroke-linecap="round" stroke-linejoin="round"/>
<path d="M223.129 178.095C225.026 176.534 227.281 176.105 229.4 176.901C231.519 177.697 233.33 179.653 234.435 182.341C235.54 185.029 235.849 188.23 235.295 191.241C234.74 194.252 233.368 196.829 231.478 198.405C229.588 199.982 227.334 200.431 225.212 199.653C223.089 198.875 221.27 196.934 220.154 194.255C219.038 191.576 218.715 188.379 219.257 185.363C219.798 182.347 221.16 179.759 223.044 178.166" fill="white"/>
<path d="M242.772 162.247C244.668 160.686 246.923 160.257 249.043 161.053C251.162 161.849 252.972 163.805 254.077 166.493C255.182 169.181 255.492 172.382 254.937 175.393C254.383 178.404 253.01 180.98 251.12 182.557C249.23 184.134 246.977 184.582 244.854 183.804C242.732 183.026 240.913 181.085 239.797 178.407C238.68 175.728 238.358 172.53 238.899 169.515C239.441 166.499 240.803 163.911 242.686 162.318" fill="white"/>
<path fill-rule="evenodd" clip-rule="evenodd" d="M314.975 76.5445C316.157 101.167 316.548 124.244 310.341 148.306C308.937 162.381 319.13 189.894 319.438 218.911C321.029 237.95 312.752 238.013 301.029 231.199C283.89 221.099 260.06 178.089 239.953 144.881C239.596 156.971 230.919 184.201 217.033 187.35C207.618 189.604 196.374 186.98 193.401 177.13C190.253 166.814 189.364 164.434 194.277 149.05C194.461 143.895 200.852 138.345 203.964 133.745C211.94 127.234 218.124 119.36 232.414 117.644C238.736 117.89 245.058 118.311 251.381 121.882C259.534 129.412 271.857 146.753 276.298 156.541C273.124 147.224 262.736 129.786 258.075 121.034C279.891 107.647 297.534 92.1468 314.975 76.5445Z" fill="white" stroke="black" stroke-width="6" stroke-linecap="round" stroke-linejoin="round"/>
<path fill-rule="evenodd" clip-rule="evenodd" d="M203.042 162.663C204.924 163.626 205.915 164.154 209.02 163.877C211.162 162.167 213.259 160.92 210.601 157.176C208.393 154.778 206.901 155.367 204.89 155.517C201.854 156.786 200.828 156.615 200.354 158.324C199.975 160.399 202.138 161.563 203.042 162.663Z" fill="black"/>
<path fill-rule="evenodd" clip-rule="evenodd" d="M187.546 238.32C185.966 261.328 179.722 273.818 176.374 296.274C176.963 279.233 178.675 271.485 177.355 254.146C170.802 272.684 169.09 271.759 161.525 289.034C169.413 266.763 168.031 262.08 171.934 235.223L187.546 238.32Z" fill="#004900"/>
<path fill-rule="evenodd" clip-rule="evenodd" d="M52.0463 151.794C48.5618 155.947 44.3759 156.275 39.4172 152.39L47.2446 160.665L34.3822 155.322L44.3781 163.377L31.5037 161.308L42.5114 165.997L31.4348 168.62L44.2258 170.077L32.1203 174.415C43.3796 172 46.792 174.915 53.9569 177.759C49.4872 168.65 47.0734 160.632 52.0463 151.794Z" fill="white" stroke="white" stroke-width="1.90968" stroke-linecap="round" stroke-linejoin="round"/>
<path fill-rule="evenodd" clip-rule="evenodd" d="M58.4556 95.2779C54.9367 96.2852 52.0444 98.661 49.7897 102.43L38.8504 96.4668L46.9926 106.046L34.1061 103.208L45.9928 109.83L33.3059 111.401L45.3225 114.749L35.1451 120.009C39.7879 120.475 45.2263 119.361 46.0494 127.41C47.4197 117.797 53.8073 100.646 58.4556 95.2779Z" fill="white" stroke="white" stroke-width="2.13132" stroke-linecap="round" stroke-linejoin="round"/>
<path fill-rule="evenodd" clip-rule="evenodd" d="M85.6905 98.9103C78.9868 95.7005 74.8878 96.1486 69.6538 95.0027L84.2137 92.7866L74.9262 84.7198L86.7544 87.7262L80.5316 75.7371L89.0349 82.9555L89.8432 68.8309L92.6307 79.83L99.0911 69.2953C96.2339 74.8029 95.7941 80.3706 102.826 86.365C88.3885 85.2169 87.3709 92.1592 85.6905 98.9103Z" fill="white" stroke="white" stroke-width="2.10276" stroke-linejoin="round"/>
<path fill-rule="evenodd" clip-rule="evenodd" d="M105.815 65.8546L115.291 91.7678C118.306 86.2602 119.844 82.8847 125.515 81.7293L120.528 65.8546L121.525 82.1962L114.543 68.1891L116.538 83.5969L105.815 65.8546Z" fill="white" stroke="white" stroke-width="2.38692" stroke-linejoin="round"/>
<path fill-rule="evenodd" clip-rule="evenodd" d="M149.782 71.6674C152.063 66.0166 154.237 63.6524 154.184 53.6314L157.762 77.2703L149.782 71.6674Z" fill="white" stroke="white" stroke-width="2.38692" stroke-linejoin="round"/>
<path fill-rule="evenodd" clip-rule="evenodd" d="M171.304 89.1459C171.471 79.6325 168.308 69.5328 166.729 60.0653C171.592 68.3573 172.184 77.4488 174.701 86.1799C177.103 79.1317 179.665 72.2964 182.301 63.8491C181.453 72.7137 179.073 81.1387 182.809 87.9859C185.622 82.7971 188.486 77.8948 190.574 68.6333L189.138 102.295C187.959 95.6354 175.834 87.5379 171.304 89.1459Z" fill="white" stroke="white" stroke-width="2.38692" stroke-linejoin="round"/>
<path fill-rule="evenodd" clip-rule="evenodd" d="M105.119 201.883C96.1205 201.668 95.0909 201.449 90.7794 196.899C89.1171 206.197 84.4328 207.705 80.3987 213.026L93.0805 203.825L86.1055 225.196L95.6168 207.981L95.6168 231.132L98.7873 211.542C103.56 212.56 103.611 219.504 107.03 226.68C105.071 219.11 102.01 207.871 105.119 201.883Z" fill="white" stroke="white" stroke-width="2.14587" stroke-linejoin="round"/>
<path fill-rule="evenodd" clip-rule="evenodd" d="M60.2705 191.877C68.2516 190.147 75.2354 189.583 81.7401 184.099C80.1652 187.458 82.5179 188.168 83.4067 194.164C75.4882 191.233 67.9199 193.592 60.2705 191.877Z" fill="white" stroke="white" stroke-width="2.05925" stroke-linejoin="round"/>
<path fill-rule="evenodd" clip-rule="evenodd" d="M118.16 207.912C112.319 221.704 114.479 223.406 114.479 223.406L120.983 209.185L118.16 207.912Z" fill="white" stroke="white" stroke-width="2.13662" stroke-linejoin="round"/>
<path fill-rule="evenodd" clip-rule="evenodd" d="M285.138 271.422C287.421 280.79 293.858 288.253 298.236 293.459C296.302 287.791 293.981 281.006 293.37 275.012C293.284 271.828 293.262 271.932 295.222 272.304L275.875 264.993C277.662 266.59 283.907 268.897 285.138 271.422Z" fill="black" stroke="black" stroke-width="0.220879"/>
</g>
<defs>
<clipPath id="clip0_1_671">
<rect width="300" height="400" fill="white" transform="translate(0 300) rotate(-90)"/>
</clipPath>
</defs>
</svg>
