<svg width="400" height="300" viewBox="0 0 400 300" fill="none" xmlns="http://www.w3.org/2000/svg">
<g clip-path="url(#clip0_1_730)">
<path d="M45.3943 164.349C45.3943 151.275 37.1934 140.677 27.0769 140.677C16.9605 140.677 8.75952 151.275 8.75952 164.349C8.75952 177.422 16.9605 188.021 27.0769 188.021C37.1934 188.021 45.3943 177.422 45.3943 164.349Z" fill="#004900"/>
<path d="M45.3943 136.567C45.3943 123.493 37.1934 112.895 27.0769 112.895C16.9605 112.895 8.75952 123.493 8.75952 136.567C8.75952 149.64 16.9605 160.239 27.0769 160.239C37.1934 160.239 45.3943 149.64 45.3943 136.567Z" fill="#004900"/>
<path d="M188.666 165.516C188.666 152.442 180.465 141.844 170.349 141.844C160.232 141.844 152.031 152.442 152.031 165.516C152.031 178.589 160.232 189.188 170.349 189.188C180.465 189.188 188.666 178.589 188.666 165.516Z" fill="#004900"/>
<path d="M159.814 150.412L30.6414 150.412" stroke="#004900" stroke-width="52.7536" stroke-linecap="round"/>
<path d="M188.666 135.011C188.666 121.937 180.465 111.339 170.349 111.339C160.232 111.339 152.031 121.937 152.031 135.011C152.031 148.084 160.232 158.683 170.349 158.683C180.465 158.683 188.666 148.084 188.666 135.011Z" fill="#004900"/>
<path d="M117.021 139.468C117.021 122.1 106.127 108.021 92.6874 108.021C79.2481 108.021 68.3534 122.1 68.3534 139.468C68.3534 156.836 79.2481 170.916 92.6874 170.916C106.127 170.916 117.021 156.836 117.021 139.468Z" fill="#004900"/>
<path d="M117.021 161.214C117.021 143.846 106.127 129.766 92.6875 129.766C79.2482 129.766 68.3535 143.846 68.3535 161.214C68.3535 178.582 79.2482 192.661 92.6875 192.661C106.127 192.661 117.021 178.582 117.021 161.214Z" fill="#004900"/>
<path d="M32.1576 150.412L68.4544 150.412" stroke="white" stroke-width="12" stroke-linecap="round"/>
<path d="M120.245 150.412L165.07 150.412" stroke="white" stroke-width="12" stroke-linecap="round"/>
<path d="M38.3988 150.412C38.3988 145.649 34.6638 141.787 30.0565 141.787C25.4492 141.787 21.7142 145.649 21.7142 150.412C21.7142 155.175 25.4492 159.037 30.0565 159.037C34.6638 159.037 38.3988 155.175 38.3988 150.412Z" fill="white"/>
<path d="M105.144 159.386C98.9661 155.331 99.2324 144.462 105.144 141.049" stroke="white" stroke-width="10" stroke-linecap="round" stroke-linejoin="round"/>
<path d="M87.6043 159.386C81.4266 155.331 81.6929 144.462 87.6043 141.049" stroke="white" stroke-width="10" stroke-linecap="round" stroke-linejoin="round"/>
<path d="M253.827 164.349C253.827 151.275 245.626 140.677 235.51 140.677C225.393 140.677 217.192 151.275 217.192 164.349C217.192 177.422 225.393 188.021 235.51 188.021C245.626 188.021 253.827 177.422 253.827 164.349Z" fill="#004900"/>
<path d="M253.827 136.567C253.827 123.493 245.626 112.895 235.51 112.895C225.393 112.895 217.192 123.493 217.192 136.567C217.192 149.64 225.393 160.239 235.51 160.239C245.626 160.239 253.827 149.64 253.827 136.567Z" fill="#004900"/>
<path d="M397.099 165.516C397.099 152.442 388.898 141.844 378.781 141.844C368.665 141.844 360.464 152.442 360.464 165.516C360.464 178.589 368.665 189.188 378.781 189.188C388.898 189.188 397.099 178.589 397.099 165.516Z" fill="#004900"/>
<path d="M368.247 150.412L239.074 150.412" stroke="#004900" stroke-width="52.7536" stroke-linecap="round"/>
<path d="M397.099 135.011C397.099 121.937 388.898 111.339 378.781 111.339C368.665 111.339 360.464 121.937 360.464 135.011C360.464 148.084 368.665 158.683 378.781 158.683C388.898 158.683 397.099 148.084 397.099 135.011Z" fill="#004900"/>
<path d="M325.454 139.468C325.454 122.1 314.559 108.021 301.12 108.021C287.681 108.021 276.786 122.1 276.786 139.468C276.786 156.836 287.681 170.916 301.12 170.916C314.559 170.916 325.454 156.836 325.454 139.468Z" fill="#004900"/>
<path d="M325.454 161.214C325.454 143.846 314.559 129.766 301.12 129.766C287.681 129.766 276.786 143.846 276.786 161.214C276.786 178.582 287.681 192.661 301.12 192.661C314.559 192.661 325.454 178.582 325.454 161.214Z" fill="#004900"/>
<path d="M240.59 150.412L276.887 150.412" stroke="white" stroke-width="12" stroke-linecap="round"/>
<path d="M328.678 150.412L373.503 150.412" stroke="white" stroke-width="12" stroke-linecap="round"/>
<path d="M246.831 150.412C246.831 145.649 243.096 141.787 238.489 141.787C233.882 141.787 230.147 145.649 230.147 150.412C230.147 155.175 233.882 159.037 238.489 159.037C243.096 159.037 246.831 155.175 246.831 150.412Z" fill="white"/>
<path d="M313.576 159.386C307.399 155.331 307.665 144.462 313.576 141.049" stroke="white" stroke-width="10" stroke-linecap="round" stroke-linejoin="round"/>
<path d="M296.037 159.386C289.859 155.331 290.125 144.462 296.037 141.049" stroke="white" stroke-width="10" stroke-linecap="round" stroke-linejoin="round"/>
</g>
<defs>
<clipPath id="clip0_1_730">
<rect width="300" height="400" fill="white" transform="translate(0.00012207 300) rotate(-90)"/>
</clipPath>
</defs>
</svg>
