<svg width="400" height="300" viewBox="0 0 400 300" fill="none" xmlns="http://www.w3.org/2000/svg">
<g clip-path="url(#clip0_1_759)">
<path d="M45.3942 164.349C45.3942 151.275 37.1932 140.677 27.0768 140.677C16.9604 140.677 8.7594 151.275 8.7594 164.349C8.7594 177.422 16.9604 188.021 27.0768 188.021C37.1932 188.021 45.3942 177.422 45.3942 164.349Z" fill="#004900"/>
<path d="M45.3942 136.567C45.3942 123.493 37.1932 112.895 27.0768 112.895C16.9604 112.895 8.7594 123.493 8.7594 136.567C8.7594 149.64 16.9604 160.239 27.0768 160.239C37.1932 160.239 45.3942 149.64 45.3942 136.567Z" fill="#004900"/>
<path d="M188.666 165.516C188.666 152.442 180.465 141.844 170.349 141.844C160.232 141.844 152.031 152.442 152.031 165.516C152.031 178.589 160.232 189.188 170.349 189.188C180.465 189.188 188.666 178.589 188.666 165.516Z" fill="#004900"/>
<path d="M159.814 150.412L30.6412 150.412" stroke="#004900" stroke-width="52.7536" stroke-linecap="round"/>
<path d="M188.666 135.011C188.666 121.937 180.465 111.339 170.349 111.339C160.232 111.339 152.031 121.937 152.031 135.011C152.031 148.084 160.232 158.683 170.349 158.683C180.465 158.683 188.666 148.084 188.666 135.011Z" fill="#004900"/>
<path d="M117.021 139.468C117.021 122.1 106.127 108.021 92.6872 108.021C79.248 108.021 68.3533 122.1 68.3533 139.468C68.3533 156.836 79.248 170.916 92.6872 170.916C106.127 170.916 117.021 156.836 117.021 139.468Z" fill="#004900"/>
<path d="M117.021 161.214C117.021 143.846 106.127 129.766 92.6872 129.766C79.248 129.766 68.3533 143.846 68.3533 161.214C68.3533 178.582 79.248 192.661 92.6872 192.661C106.127 192.661 117.021 178.582 117.021 161.214Z" fill="#004900"/>
<path d="M32.1575 150.412L68.4543 150.412" stroke="white" stroke-width="12" stroke-linecap="round"/>
<path d="M120.245 150.412L165.07 150.412" stroke="white" stroke-width="12" stroke-linecap="round"/>
<path d="M38.3987 150.412C38.3987 145.649 34.6637 141.787 30.0564 141.787C25.4491 141.787 21.7141 145.649 21.7141 150.412C21.7141 155.175 25.4491 159.037 30.0564 159.037C34.6637 159.037 38.3987 155.175 38.3987 150.412Z" fill="white"/>
<path d="M105.144 159.386C98.966 155.331 99.2323 144.462 105.144 141.049" stroke="white" stroke-width="10" stroke-linecap="round" stroke-linejoin="round"/>
<path d="M87.6042 159.386C81.4265 155.331 81.6927 144.462 87.6042 141.049" stroke="white" stroke-width="10" stroke-linecap="round" stroke-linejoin="round"/>
<path d="M253.827 263.669C253.827 250.595 245.626 239.997 235.509 239.997C225.393 239.997 217.192 250.595 217.192 263.669C217.192 276.743 225.393 287.341 235.509 287.341C245.626 287.341 253.827 276.743 253.827 263.669Z" fill="#004900"/>
<path d="M253.827 235.887C253.827 222.813 245.626 212.215 235.509 212.215C225.393 212.215 217.192 222.813 217.192 235.887C217.192 248.961 225.393 259.559 235.509 259.559C245.626 259.559 253.827 248.961 253.827 235.887Z" fill="#004900"/>
<path d="M397.099 264.836C397.099 251.762 388.898 241.164 378.781 241.164C368.665 241.164 360.464 251.762 360.464 264.836C360.464 277.91 368.665 288.508 378.781 288.508C388.898 288.508 397.099 277.91 397.099 264.836Z" fill="#004900"/>
<path d="M368.247 249.732L239.074 249.732" stroke="#004900" stroke-width="52.7536" stroke-linecap="round"/>
<path d="M397.099 234.331C397.099 221.257 388.898 210.659 378.781 210.659C368.665 210.659 360.464 221.257 360.464 234.331C360.464 247.405 368.665 258.003 378.781 258.003C388.898 258.003 397.099 247.405 397.099 234.331Z" fill="#004900"/>
<path d="M325.454 238.788C325.454 221.42 314.559 207.341 301.12 207.341C287.68 207.341 276.786 221.42 276.786 238.788C276.786 256.156 287.68 270.236 301.12 270.236C314.559 270.236 325.454 256.156 325.454 238.788Z" fill="#004900"/>
<path d="M325.454 260.534C325.454 243.166 314.559 229.086 301.12 229.086C287.681 229.086 276.786 243.166 276.786 260.534C276.786 277.902 287.681 291.981 301.12 291.981C314.559 291.981 325.454 277.902 325.454 260.534Z" fill="#004900"/>
<path d="M240.59 249.732L276.887 249.732" stroke="white" stroke-width="12" stroke-linecap="round"/>
<path d="M328.678 249.732L373.503 249.732" stroke="white" stroke-width="12" stroke-linecap="round"/>
<path d="M246.831 249.732C246.831 244.969 243.096 241.107 238.489 241.107C233.882 241.107 230.147 244.969 230.147 249.732C230.147 254.496 233.882 258.357 238.489 258.357C243.096 258.357 246.831 254.496 246.831 249.732Z" fill="white"/>
<path d="M313.576 258.706C307.399 254.651 307.665 243.782 313.576 240.369" stroke="white" stroke-width="10" stroke-linecap="round" stroke-linejoin="round"/>
<path d="M296.037 258.706C289.859 254.651 290.125 243.782 296.037 240.369" stroke="white" stroke-width="10" stroke-linecap="round" stroke-linejoin="round"/>
<path d="M253.827 60.8318C253.827 47.7581 245.626 37.1597 235.509 37.1597C225.393 37.1597 217.192 47.7581 217.192 60.8318C217.192 73.9056 225.393 84.5039 235.509 84.5039C245.626 84.5039 253.827 73.9055 253.827 60.8318Z" fill="#004900"/>
<path d="M253.827 33.0498C253.827 19.9761 245.626 9.37773 235.509 9.37773C225.393 9.37773 217.192 19.9761 217.192 33.0498C217.192 46.1236 225.393 56.7219 235.509 56.7219C245.626 56.7219 253.827 46.1236 253.827 33.0498Z" fill="#004900"/>
<path d="M397.099 61.9988C397.099 48.9251 388.898 38.3267 378.781 38.3267C368.665 38.3267 360.464 48.9251 360.464 61.9988C360.464 75.0725 368.665 85.6709 378.781 85.6709C388.898 85.6709 397.099 75.0725 397.099 61.9988Z" fill="#004900"/>
<path d="M368.247 46.8951L239.074 46.8951" stroke="#004900" stroke-width="52.7536" stroke-linecap="round"/>
<path d="M397.099 31.4938C397.099 18.4201 388.898 7.8217 378.781 7.8217C368.665 7.8217 360.464 18.4201 360.464 31.4938C360.464 44.5675 368.665 55.1659 378.781 55.1659C388.898 55.1659 397.099 44.5675 397.099 31.4938Z" fill="#004900"/>
<path d="M325.454 35.9513C325.454 18.5833 314.559 4.50385 301.12 4.50385C287.68 4.50385 276.786 18.5833 276.786 35.9513C276.786 53.3192 287.68 67.3987 301.12 67.3987C314.559 67.3987 325.454 53.3192 325.454 35.9513Z" fill="#004900"/>
<path d="M325.454 57.6969C325.454 40.3289 314.559 26.2494 301.12 26.2494C287.681 26.2495 276.786 40.3289 276.786 57.6969C276.786 75.0648 287.681 89.1443 301.12 89.1443C314.559 89.1443 325.454 75.0648 325.454 57.6969Z" fill="#004900"/>
<path d="M240.59 46.8951L276.887 46.8951" stroke="white" stroke-width="12" stroke-linecap="round"/>
<path d="M328.678 46.8951L373.503 46.8951" stroke="white" stroke-width="12" stroke-linecap="round"/>
<path d="M246.831 46.8952C246.831 42.1318 243.096 38.2704 238.489 38.2704C233.882 38.2704 230.147 42.1318 230.147 46.8952C230.147 51.6585 233.882 55.5199 238.489 55.5199C243.096 55.5199 246.831 51.6585 246.831 46.8952Z" fill="white"/>
<path d="M313.576 55.8694C307.399 51.8138 307.665 40.9452 313.576 37.532" stroke="white" stroke-width="10" stroke-linecap="round" stroke-linejoin="round"/>
<path d="M296.037 55.8694C289.859 51.8138 290.125 40.9452 296.037 37.532" stroke="white" stroke-width="10" stroke-linecap="round" stroke-linejoin="round"/>
</g>
<defs>
<clipPath id="clip0_1_759">
<rect width="300" height="400" fill="white" transform="translate(0 300) rotate(-90)"/>
</clipPath>
</defs>
</svg>
