<svg width="400" height="300" viewBox="0 0 400 300" fill="none" xmlns="http://www.w3.org/2000/svg">
<g clip-path="url(#clip0_1_800)">
<path d="M253.827 241.986C253.827 228.913 245.626 218.314 235.509 218.314C225.393 218.314 217.192 228.913 217.192 241.986C217.192 255.06 225.393 265.658 235.509 265.658C245.626 265.658 253.827 255.06 253.827 241.986Z" fill="#004900"/>
<path d="M253.827 214.204C253.827 201.131 245.626 190.532 235.509 190.532C225.393 190.532 217.192 201.131 217.192 214.204C217.192 227.278 225.393 237.876 235.509 237.876C245.626 237.876 253.827 227.278 253.827 214.204Z" fill="#004900"/>
<path d="M397.099 243.153C397.099 230.08 388.898 219.481 378.781 219.481C368.665 219.481 360.464 230.08 360.464 243.153C360.464 256.227 368.665 266.825 378.781 266.825C388.898 266.825 397.099 256.227 397.099 243.153Z" fill="#004900"/>
<path d="M368.247 228.05L239.074 228.05" stroke="#004900" stroke-width="52.7536" stroke-linecap="round"/>
<path d="M397.099 212.648C397.099 199.575 388.898 188.976 378.781 188.976C368.665 188.976 360.464 199.575 360.464 212.648C360.464 225.722 368.665 236.32 378.781 236.32C388.898 236.32 397.099 225.722 397.099 212.648Z" fill="#004900"/>
<path d="M325.454 217.106C325.454 199.738 314.559 185.658 301.12 185.658C287.68 185.658 276.786 199.738 276.786 217.106C276.786 234.474 287.68 248.553 301.12 248.553C314.559 248.553 325.454 234.474 325.454 217.106Z" fill="#004900"/>
<path d="M325.454 238.851C325.454 221.483 314.559 207.404 301.12 207.404C287.681 207.404 276.786 221.483 276.786 238.851C276.786 256.219 287.681 270.299 301.12 270.299C314.559 270.299 325.454 256.219 325.454 238.851Z" fill="#004900"/>
<path d="M240.59 228.05L276.887 228.05" stroke="white" stroke-width="12" stroke-linecap="round"/>
<path d="M328.678 228.05L373.503 228.05" stroke="white" stroke-width="12" stroke-linecap="round"/>
<path d="M246.831 228.05C246.831 223.286 243.096 219.425 238.489 219.425C233.882 219.425 230.147 223.286 230.147 228.05C230.147 232.813 233.882 236.674 238.489 236.674C243.096 236.674 246.831 232.813 246.831 228.05Z" fill="white"/>
<path d="M313.576 237.024C307.399 232.968 307.665 222.1 313.576 218.687" stroke="white" stroke-width="10" stroke-linecap="round" stroke-linejoin="round"/>
<path d="M296.037 237.024C289.859 232.968 290.125 222.1 296.037 218.687" stroke="white" stroke-width="10" stroke-linecap="round" stroke-linejoin="round"/>
<path d="M253.827 86.7111C253.827 73.6373 245.626 63.039 235.509 63.039C225.393 63.039 217.192 73.6373 217.192 86.7111C217.192 99.7848 225.393 110.383 235.509 110.383C245.626 110.383 253.827 99.7848 253.827 86.7111Z" fill="#004900"/>
<path d="M253.827 58.9291C253.827 45.8554 245.626 35.257 235.509 35.257C225.393 35.257 217.192 45.8554 217.192 58.9291C217.192 72.0028 225.393 82.6012 235.509 82.6012C245.626 82.6012 253.827 72.0028 253.827 58.9291Z" fill="#004900"/>
<path d="M397.099 87.8781C397.099 74.8043 388.898 64.206 378.781 64.206C368.665 64.206 360.464 74.8043 360.464 87.8781C360.464 100.952 368.665 111.55 378.781 111.55C388.898 111.55 397.099 100.952 397.099 87.8781Z" fill="#004900"/>
<path d="M368.247 72.7744L239.074 72.7744" stroke="#004900" stroke-width="52.7536" stroke-linecap="round"/>
<path d="M397.099 57.3731C397.099 44.2993 388.898 33.701 378.781 33.701C368.665 33.701 360.464 44.2993 360.464 57.3731C360.464 70.4468 368.665 81.0452 378.781 81.0452C388.898 81.0452 397.099 70.4468 397.099 57.3731Z" fill="#004900"/>
<path d="M325.454 61.8305C325.454 44.4626 314.559 30.3831 301.12 30.3831C287.68 30.3831 276.786 44.4626 276.786 61.8305C276.786 79.1985 287.68 93.278 301.12 93.278C314.559 93.278 325.454 79.1985 325.454 61.8305Z" fill="#004900"/>
<path d="M325.454 83.5761C325.454 66.2082 314.559 52.1287 301.12 52.1287C287.681 52.1287 276.786 66.2082 276.786 83.5761C276.786 100.944 287.681 115.024 301.12 115.024C314.559 115.024 325.454 100.944 325.454 83.5761Z" fill="#004900"/>
<path d="M240.59 72.7744L276.887 72.7744" stroke="white" stroke-width="12" stroke-linecap="round"/>
<path d="M328.678 72.7744L373.503 72.7744" stroke="white" stroke-width="12" stroke-linecap="round"/>
<path d="M246.831 72.7744C246.831 68.0111 243.096 64.1497 238.489 64.1497C233.882 64.1497 230.147 68.0111 230.147 72.7744C230.147 77.5377 233.882 81.3992 238.489 81.3992C243.096 81.3992 246.831 77.5377 246.831 72.7744Z" fill="white"/>
<path d="M313.576 81.7487C307.399 77.6931 307.665 66.8245 313.576 63.4113" stroke="white" stroke-width="10" stroke-linecap="round" stroke-linejoin="round"/>
<path d="M296.037 81.7487C289.859 77.6931 290.125 66.8245 296.037 63.4113" stroke="white" stroke-width="10" stroke-linecap="round" stroke-linejoin="round"/>
<path d="M45.3942 241.986C45.3942 228.913 37.1932 218.314 27.0768 218.314C16.9604 218.314 8.7594 228.913 8.7594 241.986C8.7594 255.06 16.9604 265.658 27.0768 265.658C37.1932 265.658 45.3942 255.06 45.3942 241.986Z" fill="#004900"/>
<path d="M45.3942 214.204C45.3942 201.131 37.1932 190.532 27.0768 190.532C16.9604 190.532 8.7594 201.131 8.7594 214.204C8.7594 227.278 16.9604 237.876 27.0768 237.876C37.1932 237.876 45.3942 227.278 45.3942 214.204Z" fill="#004900"/>
<path d="M188.666 243.153C188.666 230.08 180.465 219.481 170.349 219.481C160.232 219.481 152.031 230.08 152.031 243.153C152.031 256.227 160.232 266.825 170.349 266.825C180.465 266.825 188.666 256.227 188.666 243.153Z" fill="#004900"/>
<path d="M159.814 228.05L30.6412 228.05" stroke="#004900" stroke-width="52.7536" stroke-linecap="round"/>
<path d="M188.666 212.648C188.666 199.575 180.465 188.976 170.349 188.976C160.232 188.976 152.031 199.575 152.031 212.648C152.031 225.722 160.232 236.32 170.349 236.32C180.465 236.32 188.666 225.722 188.666 212.648Z" fill="#004900"/>
<path d="M117.021 217.106C117.021 199.738 106.127 185.658 92.6872 185.658C79.248 185.658 68.3533 199.738 68.3533 217.106C68.3533 234.474 79.248 248.553 92.6872 248.553C106.127 248.553 117.021 234.474 117.021 217.106Z" fill="#004900"/>
<path d="M117.021 238.851C117.021 221.483 106.127 207.404 92.6872 207.404C79.248 207.404 68.3533 221.483 68.3533 238.851C68.3533 256.219 79.248 270.299 92.6872 270.299C106.127 270.299 117.021 256.219 117.021 238.851Z" fill="#004900"/>
<path d="M32.1575 228.05L68.4543 228.05" stroke="white" stroke-width="12" stroke-linecap="round"/>
<path d="M120.245 228.05L165.07 228.05" stroke="white" stroke-width="12" stroke-linecap="round"/>
<path d="M38.3987 228.05C38.3987 223.286 34.6637 219.425 30.0564 219.425C25.4491 219.425 21.7141 223.286 21.7141 228.05C21.7141 232.813 25.4491 236.674 30.0564 236.674C34.6637 236.674 38.3987 232.813 38.3987 228.05Z" fill="white"/>
<path d="M105.144 237.024C98.966 232.968 99.2323 222.1 105.144 218.687" stroke="white" stroke-width="10" stroke-linecap="round" stroke-linejoin="round"/>
<path d="M87.6042 237.024C81.4265 232.968 81.6927 222.1 87.6042 218.687" stroke="white" stroke-width="10" stroke-linecap="round" stroke-linejoin="round"/>
<path d="M45.3942 86.7111C45.3942 73.6373 37.1932 63.039 27.0768 63.039C16.9604 63.039 8.7594 73.6373 8.7594 86.7111C8.7594 99.7848 16.9604 110.383 27.0768 110.383C37.1932 110.383 45.3942 99.7848 45.3942 86.7111Z" fill="#004900"/>
<path d="M45.3942 58.9291C45.3942 45.8554 37.1932 35.257 27.0768 35.257C16.9604 35.257 8.7594 45.8554 8.7594 58.9291C8.7594 72.0028 16.9604 82.6012 27.0768 82.6012C37.1932 82.6012 45.3942 72.0028 45.3942 58.9291Z" fill="#004900"/>
<path d="M188.666 87.8781C188.666 74.8043 180.465 64.206 170.349 64.206C160.232 64.206 152.031 74.8043 152.031 87.8781C152.031 100.952 160.232 111.55 170.349 111.55C180.465 111.55 188.666 100.952 188.666 87.8781Z" fill="#004900"/>
<path d="M159.814 72.7744L30.6412 72.7744" stroke="#004900" stroke-width="52.7536" stroke-linecap="round"/>
<path d="M188.666 57.3731C188.666 44.2993 180.465 33.701 170.349 33.701C160.232 33.701 152.031 44.2993 152.031 57.3731C152.031 70.4468 160.232 81.0452 170.349 81.0452C180.465 81.0452 188.666 70.4468 188.666 57.3731Z" fill="#004900"/>
<path d="M117.021 61.8305C117.021 44.4626 106.127 30.3831 92.6872 30.3831C79.248 30.3831 68.3533 44.4626 68.3533 61.8305C68.3533 79.1985 79.248 93.278 92.6872 93.278C106.127 93.278 117.021 79.1985 117.021 61.8305Z" fill="#004900"/>
<path d="M117.021 83.5761C117.021 66.2082 106.127 52.1287 92.6872 52.1287C79.248 52.1287 68.3533 66.2082 68.3533 83.5761C68.3533 100.944 79.248 115.024 92.6872 115.024C106.127 115.024 117.021 100.944 117.021 83.5761Z" fill="#004900"/>
<path d="M32.1575 72.7744L68.4543 72.7744" stroke="white" stroke-width="12" stroke-linecap="round"/>
<path d="M120.245 72.7744L165.07 72.7744" stroke="white" stroke-width="12" stroke-linecap="round"/>
<path d="M38.3987 72.7744C38.3987 68.0111 34.6637 64.1497 30.0564 64.1497C25.4491 64.1497 21.7141 68.0111 21.7141 72.7744C21.7141 77.5377 25.4491 81.3992 30.0564 81.3992C34.6637 81.3992 38.3987 77.5377 38.3987 72.7744Z" fill="white"/>
<path d="M105.144 81.7487C98.966 77.6931 99.2323 66.8245 105.144 63.4113" stroke="white" stroke-width="10" stroke-linecap="round" stroke-linejoin="round"/>
<path d="M87.6042 81.7487C81.4265 77.6931 81.6927 66.8245 87.6042 63.4113" stroke="white" stroke-width="10" stroke-linecap="round" stroke-linejoin="round"/>
</g>
<defs>
<clipPath id="clip0_1_800">
<rect width="300" height="400" fill="white" transform="translate(0 300) rotate(-90)"/>
</clipPath>
</defs>
</svg>
