<svg width="400" height="300" viewBox="0 0 400 300" fill="none" xmlns="http://www.w3.org/2000/svg">
<g clip-path="url(#clip0_1_855)">
<path d="M253.827 263.669C253.827 250.595 245.626 239.997 235.509 239.997C225.393 239.997 217.192 250.595 217.192 263.669C217.192 276.743 225.393 287.341 235.509 287.341C245.626 287.341 253.827 276.743 253.827 263.669Z" fill="#004900"/>
<path d="M253.827 235.887C253.827 222.813 245.626 212.215 235.509 212.215C225.393 212.215 217.192 222.813 217.192 235.887C217.192 248.961 225.393 259.559 235.509 259.559C245.626 259.559 253.827 248.961 253.827 235.887Z" fill="#004900"/>
<path d="M397.099 264.836C397.099 251.762 388.898 241.164 378.781 241.164C368.665 241.164 360.464 251.762 360.464 264.836C360.464 277.91 368.665 288.508 378.781 288.508C388.898 288.508 397.099 277.91 397.099 264.836Z" fill="#004900"/>
<path d="M368.247 249.732L239.074 249.732" stroke="#004900" stroke-width="52.7536" stroke-linecap="round"/>
<path d="M397.099 234.331C397.099 221.257 388.898 210.659 378.781 210.659C368.665 210.659 360.464 221.257 360.464 234.331C360.464 247.405 368.665 258.003 378.781 258.003C388.898 258.003 397.099 247.405 397.099 234.331Z" fill="#004900"/>
<path d="M325.454 238.788C325.454 221.42 314.559 207.341 301.12 207.341C287.68 207.341 276.786 221.42 276.786 238.788C276.786 256.156 287.68 270.236 301.12 270.236C314.559 270.236 325.454 256.156 325.454 238.788Z" fill="#004900"/>
<path d="M325.454 260.534C325.454 243.166 314.559 229.086 301.12 229.086C287.681 229.086 276.786 243.166 276.786 260.534C276.786 277.902 287.681 291.981 301.12 291.981C314.559 291.981 325.454 277.902 325.454 260.534Z" fill="#004900"/>
<path d="M240.59 249.732L276.887 249.732" stroke="white" stroke-width="12" stroke-linecap="round"/>
<path d="M328.678 249.732L373.503 249.732" stroke="white" stroke-width="12" stroke-linecap="round"/>
<path d="M246.831 249.732C246.831 244.969 243.096 241.107 238.489 241.107C233.882 241.107 230.147 244.969 230.147 249.732C230.147 254.496 233.882 258.357 238.489 258.357C243.096 258.357 246.831 254.496 246.831 249.732Z" fill="white"/>
<path d="M313.576 258.706C307.399 254.651 307.665 243.782 313.576 240.369" stroke="white" stroke-width="10" stroke-linecap="round" stroke-linejoin="round"/>
<path d="M296.037 258.706C289.859 254.651 290.125 243.782 296.037 240.369" stroke="white" stroke-width="10" stroke-linecap="round" stroke-linejoin="round"/>
<path d="M253.827 60.8318C253.827 47.7581 245.626 37.1597 235.509 37.1597C225.393 37.1597 217.192 47.7581 217.192 60.8318C217.192 73.9056 225.393 84.5039 235.509 84.5039C245.626 84.5039 253.827 73.9055 253.827 60.8318Z" fill="#004900"/>
<path d="M253.827 33.0498C253.827 19.9761 245.626 9.37773 235.509 9.37773C225.393 9.37773 217.192 19.9761 217.192 33.0498C217.192 46.1236 225.393 56.7219 235.509 56.7219C245.626 56.7219 253.827 46.1236 253.827 33.0498Z" fill="#004900"/>
<path d="M397.099 61.9988C397.099 48.9251 388.898 38.3267 378.781 38.3267C368.665 38.3267 360.464 48.9251 360.464 61.9988C360.464 75.0725 368.665 85.6709 378.781 85.6709C388.898 85.6709 397.099 75.0725 397.099 61.9988Z" fill="#004900"/>
<path d="M368.247 46.8952L239.074 46.8952" stroke="#004900" stroke-width="52.7536" stroke-linecap="round"/>
<path d="M397.099 31.4938C397.099 18.4201 388.898 7.8217 378.781 7.8217C368.665 7.8217 360.464 18.4201 360.464 31.4938C360.464 44.5675 368.665 55.1659 378.781 55.1659C388.898 55.1659 397.099 44.5675 397.099 31.4938Z" fill="#004900"/>
<path d="M325.454 35.9513C325.454 18.5833 314.559 4.50385 301.12 4.50385C287.68 4.50385 276.786 18.5833 276.786 35.9513C276.786 53.3192 287.68 67.3987 301.12 67.3987C314.559 67.3987 325.454 53.3192 325.454 35.9513Z" fill="#004900"/>
<path d="M325.454 57.6969C325.454 40.3289 314.559 26.2494 301.12 26.2494C287.681 26.2495 276.786 40.3289 276.786 57.6969C276.786 75.0648 287.681 89.1443 301.12 89.1443C314.559 89.1443 325.454 75.0648 325.454 57.6969Z" fill="#004900"/>
<path d="M240.59 46.8952L276.887 46.8952" stroke="white" stroke-width="12" stroke-linecap="round"/>
<path d="M328.678 46.8952L373.503 46.8952" stroke="white" stroke-width="12" stroke-linecap="round"/>
<path d="M246.831 46.8952C246.831 42.1318 243.096 38.2704 238.489 38.2704C233.882 38.2704 230.147 42.1318 230.147 46.8952C230.147 51.6585 233.882 55.5199 238.489 55.5199C243.096 55.5199 246.831 51.6585 246.831 46.8952Z" fill="white"/>
<path d="M313.576 55.8693C307.399 51.8138 307.665 40.9452 313.576 37.532" stroke="white" stroke-width="10" stroke-linecap="round" stroke-linejoin="round"/>
<path d="M296.037 55.8693C289.859 51.8138 290.125 40.9452 296.037 37.532" stroke="white" stroke-width="10" stroke-linecap="round" stroke-linejoin="round"/>
<path d="M149.236 164.349C149.236 151.275 141.035 140.677 130.918 140.677C120.802 140.677 112.601 151.275 112.601 164.349C112.601 177.422 120.802 188.021 130.918 188.021C141.035 188.021 149.236 177.422 149.236 164.349Z" fill="#B93C3C"/>
<path d="M149.236 136.567C149.236 123.493 141.035 112.895 130.918 112.895C120.802 112.895 112.601 123.493 112.601 136.567C112.601 149.64 120.802 160.239 130.918 160.239C141.035 160.239 149.236 149.64 149.236 136.567Z" fill="#B93C3C"/>
<path d="M292.508 165.516C292.508 152.442 284.307 141.844 274.19 141.844C264.074 141.844 255.873 152.442 255.873 165.516C255.873 178.589 264.074 189.188 274.19 189.188C284.307 189.188 292.508 178.589 292.508 165.516Z" fill="#B93C3C"/>
<path d="M263.656 150.412L134.483 150.412" stroke="#B93C3C" stroke-width="52.7536" stroke-linecap="round"/>
<path d="M292.508 135.011C292.508 121.937 284.307 111.339 274.19 111.339C264.074 111.339 255.873 121.937 255.873 135.011C255.873 148.084 264.074 158.683 274.19 158.683C284.307 158.683 292.508 148.084 292.508 135.011Z" fill="#B93C3C"/>
<path d="M220.863 139.468C220.863 122.1 209.968 108.021 196.529 108.021C183.09 108.021 172.195 122.1 172.195 139.468C172.195 156.836 183.09 170.916 196.529 170.916C209.968 170.916 220.863 156.836 220.863 139.468Z" fill="#B93C3C"/>
<path d="M220.863 161.214C220.863 143.846 209.968 129.766 196.529 129.766C183.09 129.766 172.195 143.846 172.195 161.214C172.195 178.582 183.09 192.661 196.529 192.661C209.968 192.661 220.863 178.582 220.863 161.214Z" fill="#B93C3C"/>
<path d="M135.999 150.412L172.296 150.412" stroke="white" stroke-width="12" stroke-linecap="round"/>
<path d="M224.087 150.412L268.912 150.412" stroke="white" stroke-width="12" stroke-linecap="round"/>
<path d="M142.24 150.412C142.24 145.649 138.505 141.787 133.898 141.787C129.291 141.787 125.556 145.649 125.556 150.412C125.556 155.175 129.291 159.037 133.898 159.037C138.505 159.037 142.24 155.175 142.24 150.412Z" fill="white"/>
<path d="M208.985 159.386C202.808 155.331 203.074 144.462 208.985 141.049" stroke="white" stroke-width="10" stroke-linecap="round" stroke-linejoin="round"/>
<path d="M191.446 159.386C185.268 155.331 185.534 144.462 191.446 141.049" stroke="white" stroke-width="10" stroke-linecap="round" stroke-linejoin="round"/>
<path d="M45.3942 60.8318C45.3942 47.7581 37.1932 37.1597 27.0768 37.1597C16.9604 37.1597 8.7594 47.7581 8.7594 60.8318C8.7594 73.9056 16.9604 84.5039 27.0768 84.5039C37.1932 84.5039 45.3942 73.9055 45.3942 60.8318Z" fill="#004900"/>
<path d="M45.3942 33.0498C45.3942 19.9761 37.1932 9.37773 27.0768 9.37773C16.9604 9.37773 8.7594 19.9761 8.7594 33.0498C8.7594 46.1236 16.9604 56.7219 27.0768 56.7219C37.1932 56.7219 45.3942 46.1236 45.3942 33.0498Z" fill="#004900"/>
<path d="M188.666 61.9988C188.666 48.9251 180.465 38.3267 170.349 38.3267C160.232 38.3267 152.031 48.9251 152.031 61.9988C152.031 75.0725 160.232 85.6709 170.349 85.6709C180.465 85.6709 188.666 75.0725 188.666 61.9988Z" fill="#004900"/>
<path d="M159.814 46.8952L30.6412 46.8952" stroke="#004900" stroke-width="52.7536" stroke-linecap="round"/>
<path d="M188.666 31.4938C188.666 18.4201 180.465 7.8217 170.349 7.8217C160.232 7.8217 152.031 18.4201 152.031 31.4938C152.031 44.5675 160.232 55.1659 170.349 55.1659C180.465 55.1659 188.666 44.5675 188.666 31.4938Z" fill="#004900"/>
<path d="M117.021 35.9513C117.021 18.5833 106.127 4.50385 92.6872 4.50385C79.248 4.50385 68.3533 18.5833 68.3533 35.9513C68.3533 53.3192 79.248 67.3987 92.6872 67.3987C106.127 67.3987 117.021 53.3192 117.021 35.9513Z" fill="#004900"/>
<path d="M117.021 57.6969C117.021 40.3289 106.127 26.2494 92.6872 26.2494C79.248 26.2495 68.3533 40.3289 68.3533 57.6969C68.3533 75.0648 79.248 89.1443 92.6872 89.1443C106.127 89.1443 117.021 75.0648 117.021 57.6969Z" fill="#004900"/>
<path d="M32.1575 46.8952L68.4543 46.8952" stroke="white" stroke-width="12" stroke-linecap="round"/>
<path d="M120.245 46.8952L165.07 46.8952" stroke="white" stroke-width="12" stroke-linecap="round"/>
<path d="M38.3987 46.8952C38.3987 42.1318 34.6637 38.2704 30.0564 38.2704C25.4491 38.2704 21.7141 42.1318 21.7141 46.8952C21.7141 51.6585 25.4491 55.5199 30.0564 55.5199C34.6637 55.5199 38.3987 51.6585 38.3987 46.8952Z" fill="white"/>
<path d="M105.144 55.8693C98.966 51.8138 99.2323 40.9452 105.144 37.532" stroke="white" stroke-width="10" stroke-linecap="round" stroke-linejoin="round"/>
<path d="M87.6042 55.8693C81.4265 51.8138 81.6927 40.9452 87.6042 37.532" stroke="white" stroke-width="10" stroke-linecap="round" stroke-linejoin="round"/>
<path d="M45.3942 263.669C45.3942 250.595 37.1932 239.997 27.0768 239.997C16.9604 239.997 8.7594 250.595 8.7594 263.669C8.7594 276.743 16.9604 287.341 27.0768 287.341C37.1932 287.341 45.3942 276.743 45.3942 263.669Z" fill="#004900"/>
<path d="M45.3942 235.887C45.3942 222.813 37.1932 212.215 27.0768 212.215C16.9604 212.215 8.7594 222.813 8.7594 235.887C8.7594 248.961 16.9604 259.559 27.0768 259.559C37.1932 259.559 45.3942 248.961 45.3942 235.887Z" fill="#004900"/>
<path d="M188.666 264.836C188.666 251.762 180.465 241.164 170.349 241.164C160.232 241.164 152.031 251.762 152.031 264.836C152.031 277.91 160.232 288.508 170.349 288.508C180.465 288.508 188.666 277.91 188.666 264.836Z" fill="#004900"/>
<path d="M159.814 249.732L30.6412 249.732" stroke="#004900" stroke-width="52.7536" stroke-linecap="round"/>
<path d="M188.666 234.331C188.666 221.257 180.465 210.659 170.349 210.659C160.232 210.659 152.031 221.257 152.031 234.331C152.031 247.405 160.232 258.003 170.349 258.003C180.465 258.003 188.666 247.405 188.666 234.331Z" fill="#004900"/>
<path d="M117.021 238.788C117.021 221.42 106.127 207.341 92.6872 207.341C79.248 207.341 68.3533 221.42 68.3533 238.788C68.3533 256.156 79.248 270.236 92.6872 270.236C106.127 270.236 117.021 256.156 117.021 238.788Z" fill="#004900"/>
<path d="M117.021 260.534C117.021 243.166 106.127 229.086 92.6872 229.086C79.248 229.086 68.3533 243.166 68.3533 260.534C68.3533 277.902 79.248 291.981 92.6872 291.981C106.127 291.981 117.021 277.902 117.021 260.534Z" fill="#004900"/>
<path d="M32.1575 249.732L68.4543 249.732" stroke="white" stroke-width="12" stroke-linecap="round"/>
<path d="M120.245 249.732L165.07 249.732" stroke="white" stroke-width="12" stroke-linecap="round"/>
<path d="M38.3987 249.732C38.3987 244.969 34.6637 241.107 30.0564 241.107C25.4491 241.107 21.7141 244.969 21.7141 249.732C21.7141 254.496 25.4491 258.357 30.0564 258.357C34.6637 258.357 38.3987 254.496 38.3987 249.732Z" fill="white"/>
<path d="M105.144 258.706C98.966 254.651 99.2323 243.782 105.144 240.369" stroke="white" stroke-width="10" stroke-linecap="round" stroke-linejoin="round"/>
<path d="M87.6042 258.706C81.4265 254.651 81.6927 243.782 87.6042 240.369" stroke="white" stroke-width="10" stroke-linecap="round" stroke-linejoin="round"/>
</g>
<defs>
<clipPath id="clip0_1_855">
<rect width="300" height="400" fill="white" transform="translate(0 300) rotate(-90)"/>
</clipPath>
</defs>
</svg>
