<svg width="400" height="300" viewBox="0 0 400 300" fill="none" xmlns="http://www.w3.org/2000/svg">
<g clip-path="url(#clip0_1_1149)">
<path d="M45.5605 60.6279C45.5605 47.5542 37.3595 36.9558 27.2431 36.9558C17.1267 36.9558 8.92566 47.5542 8.92566 60.6279C8.92566 73.7017 17.1267 84.3 27.2431 84.3C37.3595 84.3 45.5605 73.7017 45.5605 60.6279Z" fill="#004900"/>
<path d="M188.832 61.795C188.832 48.7212 180.631 38.1228 170.515 38.1228C160.399 38.1228 152.198 48.7212 152.198 61.795C152.198 74.8687 160.399 85.4671 170.515 85.4671C180.631 85.4671 188.832 74.8687 188.832 61.795Z" fill="#004900"/>
<path d="M117.187 57.493C117.187 40.1251 106.293 26.0456 92.8535 26.0456C79.4142 26.0456 68.5195 40.1251 68.5195 57.493C68.5195 74.861 79.4142 88.9404 92.8535 88.9404C106.293 88.9404 117.187 74.861 117.187 57.493Z" fill="#004900"/>
<path d="M45.5605 32.846C45.5605 19.7722 37.3595 9.17387 27.2431 9.17387C17.1267 9.17387 8.92566 19.7722 8.92566 32.846C8.92566 45.9197 17.1267 56.5181 27.2431 56.5181C37.3595 56.518 45.5605 45.9197 45.5605 32.846Z" fill="#004900"/>
<path d="M159.981 46.6913L30.8075 46.6913" stroke="#004900" stroke-width="52.7536" stroke-linecap="round"/>
<path d="M38.5649 46.6913C38.5649 41.928 34.83 38.0666 30.2227 38.0666C25.6154 38.0666 21.8804 41.928 21.8804 46.6913C21.8804 51.4546 25.6154 55.3161 30.2227 55.3161C34.83 55.3161 38.5649 51.4546 38.5649 46.6913Z" fill="white"/>
<path d="M91.5106 226.393L91.4499 163.218" stroke="#004900" stroke-width="34.7849" stroke-linecap="round"/>
<path d="M128.153 179.676L115.247 229.698" stroke="#004900" stroke-width="46.3798" stroke-linecap="round"/>
<path d="M162.244 233.816L75.892 129.355" stroke="#004900" stroke-width="45" stroke-linecap="round"/>
<path d="M45.5605 266.319C45.5605 253.245 37.3595 242.647 27.2431 242.647C17.1267 242.647 8.92566 253.245 8.92566 266.319C8.92566 279.393 17.1267 289.991 27.2431 289.991C37.3595 289.991 45.5605 279.393 45.5605 266.319Z" fill="#004900"/>
<path d="M45.5605 238.537C45.5605 225.463 37.3595 214.865 27.2431 214.865C17.1267 214.865 8.92566 225.463 8.92566 238.537C8.92566 251.611 17.1267 262.209 27.2431 262.209C37.3595 262.209 45.5605 251.611 45.5605 238.537Z" fill="#004900"/>
<path d="M188.832 267.486C188.832 254.412 180.631 243.814 170.515 243.814C160.399 243.814 152.198 254.412 152.198 267.486C152.198 280.56 160.399 291.158 170.515 291.158C180.631 291.158 188.832 280.56 188.832 267.486Z" fill="#004900"/>
<path d="M159.981 252.382L30.8075 252.382" stroke="#004900" stroke-width="52.7536" stroke-linecap="round"/>
<path d="M38.5649 252.382C38.5649 247.619 34.83 243.757 30.2227 243.757C25.6154 243.757 21.8804 247.619 21.8804 252.382C21.8804 257.146 25.6154 261.007 30.2227 261.007C34.83 261.007 38.5649 257.146 38.5649 252.382Z" fill="white"/>
<path d="M188.832 236.981C188.832 223.907 180.631 213.309 170.515 213.309C160.399 213.309 152.198 223.907 152.198 236.981C152.198 250.055 160.399 260.653 170.515 260.653C180.631 260.653 188.832 250.055 188.832 236.981Z" fill="#004900"/>
<path d="M117.187 241.438C117.187 224.07 106.293 209.991 92.8535 209.991C79.4142 209.991 68.5195 224.07 68.5195 241.438C68.5195 258.806 79.4142 272.886 92.8535 272.886C106.293 272.886 117.187 258.806 117.187 241.438Z" fill="#004900"/>
<path d="M117.187 263.184C117.187 245.816 106.293 231.737 92.8535 231.737C79.4142 231.737 68.5195 245.816 68.5195 263.184C68.5195 280.552 79.4142 294.631 92.8535 294.631C106.293 294.631 117.187 280.552 117.187 263.184Z" fill="#004900"/>
<path d="M32.3237 252.382L68.6205 252.382" stroke="white" stroke-width="12" stroke-linecap="round"/>
<path d="M120.411 252.382L165.236 252.382" stroke="white" stroke-width="12" stroke-linecap="round"/>
<path d="M105.31 261.356C99.1323 257.301 99.3985 246.432 105.31 243.019" stroke="white" stroke-width="10" stroke-linecap="round" stroke-linejoin="round"/>
<path d="M87.7704 261.356C81.5927 257.301 81.859 246.432 87.7704 243.019" stroke="white" stroke-width="10" stroke-linecap="round" stroke-linejoin="round"/>
<path d="M91.5106 73.3732L91.45 136.548" stroke="#004900" stroke-width="34.7849" stroke-linecap="round"/>
<path d="M188.832 31.29C188.832 18.2162 180.631 7.61787 170.515 7.61787C160.399 7.61787 152.198 18.2162 152.198 31.29C152.198 44.3637 160.399 54.9621 170.515 54.9621C180.631 54.9621 188.832 44.3637 188.832 31.29Z" fill="#004900"/>
<path d="M162.244 65.9502L75.892 170.412" stroke="#004900" stroke-width="45" stroke-linecap="round"/>
<path d="M117.187 35.7475C117.187 18.3796 106.293 4.30006 92.8535 4.30006C79.4142 4.30006 68.5195 18.3796 68.5195 35.7475C68.5195 53.1154 79.4142 67.1949 92.8535 67.1949C106.293 67.1949 117.187 53.1154 117.187 35.7475Z" fill="#004900"/>
<path d="M55.9966 124.394L55.9966 175.751C55.9966 176.826 57.2359 177.698 58.7646 177.698L127.269 177.698C128.798 177.698 130.037 176.826 130.037 175.751L130.037 124.394C130.037 123.319 128.798 122.448 127.269 122.448L58.7646 122.448C57.2359 122.448 55.9966 123.319 55.9966 124.394Z" fill="#004900"/>
<path d="M111.781 184.495L118.614 177.512" stroke="white" stroke-width="12" stroke-linecap="round"/>
<path d="M100.914 163.505L90.2903 150.122L75.4674 150.073" stroke="white" stroke-width="12" stroke-linecap="round"/>
<path d="M128.153 120.091L115.247 70.0684" stroke="#004900" stroke-width="46.3798" stroke-linecap="round"/>
<path d="M32.3237 46.6913L68.6205 46.6913" stroke="white" stroke-width="12" stroke-linecap="round"/>
<path d="M155.883 69.4863L128.82 102.468" stroke="white" stroke-width="12" stroke-linecap="round"/>
<path d="M120.411 46.6914L165.236 46.6914" stroke="white" stroke-width="12" stroke-linecap="round"/>
<path d="M105.31 55.6655C99.1323 51.61 99.3985 40.7413 105.31 37.3281" stroke="white" stroke-width="10" stroke-linecap="round" stroke-linejoin="round"/>
<path d="M87.7704 55.6655C81.5927 51.61 81.859 40.7413 87.7704 37.3281" stroke="white" stroke-width="10" stroke-linecap="round" stroke-linejoin="round"/>
<path d="M111.707 115.347L118.689 122.18" stroke="white" stroke-width="12" stroke-linecap="round"/>
<path d="M109.356 83.5948L98.5364 97.1012" stroke="white" stroke-width="12" stroke-linecap="round"/>
<path d="M100.914 136.261L90.2903 149.644L75.4674 149.694" stroke="white" stroke-width="12" stroke-linecap="round"/>
<path d="M155.883 230.28L128.82 197.298" stroke="white" stroke-width="12" stroke-linecap="round"/>
<path d="M109.356 216.172L98.5364 202.665" stroke="white" stroke-width="12" stroke-linecap="round"/>
<path d="M354.49 60.6279C354.49 47.5542 362.691 36.9558 372.807 36.9558C382.924 36.9558 391.125 47.5542 391.125 60.6279C391.125 73.7017 382.924 84.3 372.807 84.3C362.691 84.3 354.49 73.7017 354.49 60.6279Z" fill="#004900"/>
<path d="M211.218 61.7949C211.218 48.7212 219.419 38.1228 229.535 38.1228C239.652 38.1228 247.853 48.7212 247.853 61.7949C247.853 74.8687 239.652 85.467 229.535 85.467C219.419 85.467 211.218 74.8687 211.218 61.7949Z" fill="#004900"/>
<path d="M282.863 57.493C282.863 40.1251 293.757 26.0456 307.197 26.0456C320.636 26.0456 331.531 40.1251 331.531 57.493C331.531 74.8609 320.636 88.9404 307.197 88.9404C293.757 88.9404 282.863 74.8609 282.863 57.493Z" fill="#004900"/>
<path d="M354.49 32.8459C354.49 19.7722 362.691 9.17386 372.807 9.17386C382.924 9.17386 391.125 19.7722 391.125 32.8459C391.125 45.9197 382.924 56.518 372.807 56.518C362.691 56.518 354.49 45.9197 354.49 32.8459Z" fill="#004900"/>
<path d="M240.07 46.6913L369.243 46.6913" stroke="#004900" stroke-width="52.7536" stroke-linecap="round"/>
<path d="M361.485 46.6913C361.485 41.928 365.22 38.0666 369.828 38.0666C374.435 38.0666 378.17 41.928 378.17 46.6913C378.17 51.4546 374.435 55.316 369.828 55.316C365.22 55.316 361.485 51.4546 361.485 46.6913Z" fill="white"/>
<path d="M308.54 226.393L308.6 163.218" stroke="#004900" stroke-width="34.7849" stroke-linecap="round"/>
<path d="M271.897 179.676L284.803 229.698" stroke="#004900" stroke-width="46.3798" stroke-linecap="round"/>
<path d="M237.807 233.816L324.158 129.355" stroke="#004900" stroke-width="45" stroke-linecap="round"/>
<path d="M354.49 266.319C354.49 253.245 362.691 242.647 372.807 242.647C382.924 242.647 391.125 253.245 391.125 266.319C391.125 279.393 382.924 289.991 372.807 289.991C362.691 289.991 354.49 279.393 354.49 266.319Z" fill="#004900"/>
<path d="M354.49 238.537C354.49 225.463 362.691 214.865 372.807 214.865C382.924 214.865 391.125 225.463 391.125 238.537C391.125 251.611 382.924 262.209 372.807 262.209C362.691 262.209 354.49 251.611 354.49 238.537Z" fill="#004900"/>
<path d="M211.218 267.486C211.218 254.412 219.419 243.814 229.535 243.814C239.652 243.814 247.853 254.412 247.853 267.486C247.853 280.56 239.652 291.158 229.535 291.158C219.419 291.158 211.218 280.56 211.218 267.486Z" fill="#004900"/>
<path d="M240.07 252.382L369.243 252.382" stroke="#004900" stroke-width="52.7536" stroke-linecap="round"/>
<path d="M361.485 252.382C361.485 247.619 365.22 243.757 369.828 243.757C374.435 243.757 378.17 247.619 378.17 252.382C378.17 257.146 374.435 261.007 369.828 261.007C365.22 261.007 361.485 257.146 361.485 252.382Z" fill="white"/>
<path d="M211.218 236.981C211.218 223.907 219.419 213.309 229.535 213.309C239.652 213.309 247.853 223.907 247.853 236.981C247.853 250.055 239.652 260.653 229.535 260.653C219.419 260.653 211.218 250.055 211.218 236.981Z" fill="#004900"/>
<path d="M282.863 241.438C282.863 224.07 293.757 209.991 307.197 209.991C320.636 209.991 331.531 224.07 331.531 241.438C331.531 258.806 320.636 272.886 307.197 272.886C293.757 272.886 282.863 258.806 282.863 241.438Z" fill="#004900"/>
<path d="M282.863 263.184C282.863 245.816 293.757 231.737 307.197 231.737C320.636 231.737 331.531 245.816 331.531 263.184C331.531 280.552 320.636 294.631 307.197 294.631C293.757 294.631 282.863 280.552 282.863 263.184Z" fill="#004900"/>
<path d="M367.726 252.382L331.43 252.382" stroke="white" stroke-width="12" stroke-linecap="round"/>
<path d="M279.639 252.382L234.814 252.382" stroke="white" stroke-width="12" stroke-linecap="round"/>
<path d="M294.74 261.356C300.918 257.301 300.651 246.432 294.74 243.019" stroke="white" stroke-width="10" stroke-linecap="round" stroke-linejoin="round"/>
<path d="M312.28 261.356C318.457 257.301 318.191 246.432 312.28 243.019" stroke="white" stroke-width="10" stroke-linecap="round" stroke-linejoin="round"/>
<path d="M308.54 73.3731L308.6 136.548" stroke="#004900" stroke-width="34.7849" stroke-linecap="round"/>
<path d="M211.218 31.2899C211.218 18.2162 219.419 7.61786 229.535 7.61786C239.652 7.61786 247.853 18.2162 247.853 31.2899C247.853 44.3637 239.652 54.962 229.535 54.962C219.419 54.962 211.218 44.3637 211.218 31.2899Z" fill="#004900"/>
<path d="M237.807 65.9502L324.158 170.412" stroke="#004900" stroke-width="45" stroke-linecap="round"/>
<path d="M282.863 35.7475C282.863 18.3795 293.757 4.30005 307.197 4.30005C320.636 4.30005 331.531 18.3795 331.531 35.7475C331.531 53.1154 320.636 67.1949 307.197 67.1949C293.757 67.1949 282.863 53.1154 282.863 35.7475Z" fill="#004900"/>
<path d="M344.054 124.394L344.054 175.751C344.054 176.826 342.814 177.698 341.286 177.698L272.781 177.698C271.252 177.698 270.013 176.826 270.013 175.751L270.013 124.394C270.013 123.319 271.252 122.448 272.781 122.448L341.286 122.448C342.814 122.448 344.054 123.319 344.054 124.394Z" fill="#004900"/>
<path d="M288.269 184.495L281.436 177.512" stroke="white" stroke-width="12" stroke-linecap="round"/>
<path d="M299.136 163.505L309.76 150.122L324.583 150.073" stroke="white" stroke-width="12" stroke-linecap="round"/>
<path d="M271.897 120.091L284.803 70.0684" stroke="#004900" stroke-width="46.3798" stroke-linecap="round"/>
<path d="M367.726 46.6913L331.43 46.6913" stroke="white" stroke-width="12" stroke-linecap="round"/>
<path d="M244.167 69.4863L271.23 102.468" stroke="white" stroke-width="12" stroke-linecap="round"/>
<path d="M279.639 46.6913L234.814 46.6913" stroke="white" stroke-width="12" stroke-linecap="round"/>
<path d="M294.74 55.6655C300.918 51.6099 300.651 40.7413 294.74 37.3281" stroke="white" stroke-width="10" stroke-linecap="round" stroke-linejoin="round"/>
<path d="M312.28 55.6655C318.457 51.6099 318.191 40.7413 312.28 37.3281" stroke="white" stroke-width="10" stroke-linecap="round" stroke-linejoin="round"/>
<path d="M288.344 115.347L281.361 122.18" stroke="white" stroke-width="12" stroke-linecap="round"/>
<path d="M290.694 83.5948L301.514 97.1012" stroke="white" stroke-width="12" stroke-linecap="round"/>
<path d="M299.136 136.261L309.76 149.644L324.583 149.694" stroke="white" stroke-width="12" stroke-linecap="round"/>
<path d="M244.167 230.28L271.23 197.298" stroke="white" stroke-width="12" stroke-linecap="round"/>
<path d="M290.694 216.172L301.514 202.665" stroke="white" stroke-width="12" stroke-linecap="round"/>
</g>
<defs>
<clipPath id="clip0_1_1149">
<rect width="300" height="400" fill="white" transform="translate(0 300) rotate(-90)"/>
</clipPath>
</defs>
</svg>
