<svg width="400" height="300" viewBox="0 0 400 300" fill="none" xmlns="http://www.w3.org/2000/svg">
<g clip-path="url(#clip0_1_1231)">
<path d="M41.3611 162.969C41.3611 151.853 34.4632 142.842 25.9543 142.842C17.4453 142.842 10.5475 151.853 10.5475 162.969C10.5475 174.085 17.4453 183.096 25.9543 183.096C34.4632 183.096 41.3611 174.085 41.3611 162.969Z" fill="#B93C3C"/>
<path d="M41.3611 136.986C41.3611 125.87 34.4632 116.859 25.9543 116.859C17.4453 116.859 10.5475 125.87 10.5475 136.986C10.5475 148.101 17.4453 157.112 25.9543 157.112C34.4632 157.112 41.3611 148.101 41.3611 136.986Z" fill="#B93C3C"/>
<path d="M123.959 164.06C123.959 152.945 117.061 143.934 108.552 143.934C100.043 143.934 93.1449 152.945 93.1449 164.06C93.1449 175.176 100.043 184.187 108.552 184.187C117.061 184.187 123.959 175.176 123.959 164.06Z" fill="#B93C3C"/>
<path d="M105.966 149.935L23.856 149.935" stroke="#B93C3C" stroke-width="38.1977" stroke-linecap="round"/>
<path d="M123.959 135.53C123.959 124.415 117.061 115.404 108.552 115.404C100.043 115.404 93.1449 124.415 93.1449 135.53C93.1449 146.646 100.043 155.657 108.552 155.657C117.061 155.657 123.959 146.646 123.959 135.53Z" fill="#B93C3C"/>
<path d="M83.8972 139.699C83.8972 126.163 75.4973 115.19 65.1355 115.19C54.7737 115.19 46.3738 126.163 46.3738 139.699C46.3738 153.235 54.7737 164.209 65.1355 164.209C75.4973 164.209 83.8972 153.235 83.8972 139.699Z" fill="#B93C3C"/>
<path d="M83.8972 160.037C83.8972 146.501 75.4973 135.527 65.1355 135.527C54.7737 135.527 46.3738 146.501 46.3738 160.037C46.3738 173.573 54.7737 184.546 65.1355 184.546C75.4973 184.546 83.8972 173.573 83.8972 160.037Z" fill="#B93C3C"/>
<path d="M22.3906 150.1L48.4371 150.1" stroke="white" stroke-width="11" stroke-linecap="round"/>
<path d="M81.4006 150.1L106.078 150.1" stroke="white" stroke-width="11" stroke-linecap="round"/>
<path d="M64.708 150.853L64.708 149.339" stroke="white" stroke-width="11" stroke-linecap="round" stroke-linejoin="round"/>
<path d="M308.338 267.637C308.338 256.522 301.44 247.51 292.931 247.51C284.422 247.51 277.524 256.522 277.524 267.637C277.524 278.753 284.422 287.764 292.931 287.764C301.44 287.764 308.338 278.753 308.338 267.637Z" fill="#004900"/>
<path d="M308.338 241.654C308.338 230.538 301.44 221.527 292.931 221.527C284.422 221.527 277.524 230.538 277.524 241.654C277.524 252.77 284.422 261.781 292.931 261.781C301.44 261.781 308.338 252.77 308.338 241.654Z" fill="#004900"/>
<path d="M390.935 268.729C390.935 257.613 384.037 248.602 375.529 248.602C367.02 248.602 360.122 257.613 360.122 268.729C360.122 279.844 367.02 288.855 375.529 288.855C384.037 288.855 390.935 279.844 390.935 268.729Z" fill="#004900"/>
<path d="M372.943 254.603L290.833 254.603" stroke="#004900" stroke-width="38.1977" stroke-linecap="round"/>
<path d="M390.935 240.199C390.935 229.083 384.037 220.072 375.529 220.072C367.02 220.072 360.122 229.083 360.122 240.199C360.122 251.314 367.02 260.326 375.529 260.326C384.037 260.326 390.935 251.314 390.935 240.199Z" fill="#004900"/>
<path d="M350.874 244.368C350.874 230.831 342.474 219.858 332.112 219.858C321.751 219.858 313.351 230.831 313.351 244.368C313.351 257.904 321.751 268.877 332.112 268.877C342.474 268.877 350.874 257.904 350.874 244.368Z" fill="#004900"/>
<path d="M350.874 264.705C350.874 251.169 342.474 240.196 332.112 240.196C321.751 240.196 313.351 251.169 313.351 264.705C313.351 278.242 321.751 289.215 332.112 289.215C342.474 289.215 350.874 278.242 350.874 264.705Z" fill="#004900"/>
<path d="M289.368 254.769L315.414 254.769" stroke="white" stroke-width="11" stroke-linecap="round"/>
<path d="M348.378 254.769L373.055 254.769" stroke="white" stroke-width="11" stroke-linecap="round"/>
<path d="M331.685 255.521L331.685 254.008" stroke="white" stroke-width="11" stroke-linecap="round" stroke-linejoin="round"/>
<path d="M308.338 59.2046C308.338 48.0889 301.44 39.0779 292.931 39.0779C284.422 39.0779 277.524 48.0889 277.524 59.2046C277.524 70.3203 284.422 79.3314 292.931 79.3314C301.44 79.3314 308.338 70.3203 308.338 59.2046Z" fill="#004900"/>
<path d="M308.338 33.2215C308.338 22.1058 301.44 13.0947 292.931 13.0947C284.422 13.0947 277.524 22.1058 277.524 33.2215C277.524 44.3372 284.422 53.3483 292.931 53.3483C301.44 53.3483 308.338 44.3372 308.338 33.2215Z" fill="#004900"/>
<path d="M390.935 60.2961C390.935 49.1804 384.037 40.1693 375.529 40.1693C367.02 40.1693 360.122 49.1804 360.122 60.2961C360.122 71.4118 367.02 80.4229 375.529 80.4229C384.037 80.4229 390.935 71.4118 390.935 60.2961Z" fill="#004900"/>
<path d="M372.943 46.1704L290.833 46.1704" stroke="#004900" stroke-width="38.1977" stroke-linecap="round"/>
<path d="M390.935 31.7662C390.935 20.6505 384.037 11.6394 375.529 11.6394C367.02 11.6394 360.122 20.6505 360.122 31.7662C360.122 42.8819 367.02 51.8929 375.529 51.8929C384.037 51.8929 390.935 42.8819 390.935 31.7662Z" fill="#004900"/>
<path d="M350.874 35.9351C350.874 22.3989 342.474 11.4256 332.112 11.4256C321.751 11.4256 313.351 22.3989 313.351 35.9351C313.351 49.4713 321.751 60.4445 332.112 60.4445C342.474 60.4445 350.874 49.4713 350.874 35.9351Z" fill="#004900"/>
<path d="M350.874 56.2727C350.874 42.7365 342.474 31.7633 332.112 31.7633C321.751 31.7633 313.351 42.7365 313.351 56.2727C313.351 69.8089 321.751 80.7822 332.112 80.7822C342.474 80.7822 350.874 69.8089 350.874 56.2727Z" fill="#004900"/>
<path d="M289.368 46.336L315.414 46.336" stroke="white" stroke-width="11" stroke-linecap="round"/>
<path d="M348.378 46.336L373.055 46.336" stroke="white" stroke-width="11" stroke-linecap="round"/>
<path d="M331.685 47.0887L331.685 45.575" stroke="white" stroke-width="11" stroke-linecap="round" stroke-linejoin="round"/>
<path d="M176.381 267.637C176.381 256.522 169.483 247.51 160.974 247.51C152.465 247.51 145.567 256.522 145.567 267.637C145.567 278.753 152.465 287.764 160.974 287.764C169.483 287.764 176.381 278.753 176.381 267.637Z" fill="#004900"/>
<path d="M176.381 241.654C176.381 230.538 169.483 221.527 160.974 221.527C152.465 221.527 145.567 230.538 145.567 241.654C145.567 252.77 152.465 261.781 160.974 261.781C169.483 261.781 176.381 252.77 176.381 241.654Z" fill="#004900"/>
<path d="M258.978 268.729C258.978 257.613 252.08 248.602 243.571 248.602C235.062 248.602 228.165 257.613 228.165 268.729C228.165 279.844 235.062 288.856 243.571 288.856C252.08 288.856 258.978 279.844 258.978 268.729Z" fill="#004900"/>
<path d="M240.986 254.603L158.876 254.603" stroke="#004900" stroke-width="38.1977" stroke-linecap="round"/>
<path d="M258.978 240.199C258.978 229.083 252.08 220.072 243.571 220.072C235.062 220.072 228.165 229.083 228.165 240.199C228.165 251.314 235.062 260.326 243.571 260.326C252.08 260.326 258.978 251.314 258.978 240.199Z" fill="#004900"/>
<path d="M218.917 244.368C218.917 230.831 210.517 219.858 200.155 219.858C189.793 219.858 181.393 230.831 181.393 244.368C181.393 257.904 189.793 268.877 200.155 268.877C210.517 268.877 218.917 257.904 218.917 244.368Z" fill="#004900"/>
<path d="M218.917 264.705C218.917 251.169 210.517 240.196 200.155 240.196C189.793 240.196 181.394 251.169 181.394 264.705C181.394 278.242 189.793 289.215 200.155 289.215C210.517 289.215 218.917 278.242 218.917 264.705Z" fill="#004900"/>
<path d="M157.41 254.769L183.457 254.769" stroke="white" stroke-width="11" stroke-linecap="round"/>
<path d="M216.42 254.769L241.098 254.769" stroke="white" stroke-width="11" stroke-linecap="round"/>
<path d="M199.728 255.521L199.728 254.008" stroke="white" stroke-width="11" stroke-linecap="round" stroke-linejoin="round"/>
<path d="M176.381 59.2046C176.381 48.0889 169.483 39.0779 160.974 39.0779C152.465 39.0779 145.567 48.0889 145.567 59.2046C145.567 70.3203 152.465 79.3314 160.974 79.3314C169.483 79.3314 176.381 70.3203 176.381 59.2046Z" fill="#004900"/>
<path d="M176.381 33.2215C176.381 22.1058 169.483 13.0947 160.974 13.0947C152.465 13.0947 145.567 22.1058 145.567 33.2215C145.567 44.3372 152.465 53.3483 160.974 53.3483C169.483 53.3483 176.381 44.3372 176.381 33.2215Z" fill="#004900"/>
<path d="M258.978 60.2961C258.978 49.1804 252.08 40.1693 243.571 40.1693C235.062 40.1693 228.165 49.1804 228.165 60.2961C228.165 71.4118 235.062 80.4229 243.571 80.4229C252.08 80.4229 258.978 71.4118 258.978 60.2961Z" fill="#004900"/>
<path d="M240.986 46.1704L158.876 46.1704" stroke="#004900" stroke-width="38.1977" stroke-linecap="round"/>
<path d="M258.978 31.7662C258.978 20.6505 252.08 11.6394 243.571 11.6394C235.062 11.6394 228.165 20.6505 228.165 31.7662C228.165 42.8819 235.062 51.8929 243.571 51.8929C252.08 51.8929 258.978 42.8819 258.978 31.7662Z" fill="#004900"/>
<path d="M218.917 35.9351C218.917 22.3989 210.517 11.4256 200.155 11.4256C189.793 11.4256 181.393 22.3989 181.393 35.9351C181.393 49.4713 189.793 60.4445 200.155 60.4445C210.517 60.4445 218.917 49.4713 218.917 35.9351Z" fill="#004900"/>
<path d="M218.917 56.2727C218.917 42.7365 210.517 31.7633 200.155 31.7633C189.793 31.7633 181.394 42.7365 181.394 56.2727C181.394 69.8089 189.793 80.7822 200.155 80.7822C210.517 80.7822 218.917 69.8089 218.917 56.2727Z" fill="#004900"/>
<path d="M157.41 46.336L183.457 46.336" stroke="white" stroke-width="11" stroke-linecap="round"/>
<path d="M216.42 46.336L241.098 46.336" stroke="white" stroke-width="11" stroke-linecap="round"/>
<path d="M199.728 47.0887L199.728 45.575" stroke="white" stroke-width="11" stroke-linecap="round" stroke-linejoin="round"/>
<path d="M176.381 162.969C176.381 151.853 169.483 142.842 160.974 142.842C152.465 142.842 145.567 151.853 145.567 162.969C145.567 174.084 152.465 183.096 160.974 183.096C169.483 183.096 176.381 174.084 176.381 162.969Z" fill="#B93C3C"/>
<path d="M176.381 136.986C176.381 125.87 169.483 116.859 160.974 116.859C152.465 116.859 145.567 125.87 145.567 136.986C145.567 148.101 152.465 157.112 160.974 157.112C169.483 157.112 176.381 148.101 176.381 136.986Z" fill="#B93C3C"/>
<path d="M258.978 164.06C258.978 152.945 252.08 143.933 243.571 143.933C235.062 143.933 228.165 152.945 228.165 164.06C228.165 175.176 235.062 184.187 243.571 184.187C252.08 184.187 258.978 175.176 258.978 164.06Z" fill="#B93C3C"/>
<path d="M240.986 149.935L158.876 149.935" stroke="#B93C3C" stroke-width="38.1977" stroke-linecap="round"/>
<path d="M258.978 135.53C258.978 124.415 252.08 115.404 243.571 115.404C235.062 115.404 228.165 124.415 228.165 135.53C228.165 146.646 235.062 155.657 243.571 155.657C252.08 155.657 258.978 146.646 258.978 135.53Z" fill="#B93C3C"/>
<path d="M218.917 139.699C218.917 126.163 210.517 115.19 200.155 115.19C189.793 115.19 181.393 126.163 181.393 139.699C181.393 153.235 189.793 164.209 200.155 164.209C210.517 164.209 218.917 153.235 218.917 139.699Z" fill="#B93C3C"/>
<path d="M218.917 160.037C218.917 146.501 210.517 135.527 200.155 135.527C189.793 135.527 181.394 146.501 181.394 160.037C181.394 173.573 189.793 184.546 200.155 184.546C210.517 184.546 218.917 173.573 218.917 160.037Z" fill="#B93C3C"/>
<path d="M157.41 150.1L183.457 150.1" stroke="white" stroke-width="11" stroke-linecap="round"/>
<path d="M216.42 150.1L241.098 150.1" stroke="white" stroke-width="11" stroke-linecap="round"/>
<path d="M199.728 150.853L199.728 149.339" stroke="white" stroke-width="11" stroke-linecap="round" stroke-linejoin="round"/>
<path d="M308.338 162.969C308.338 151.853 301.44 142.842 292.931 142.842C284.422 142.842 277.524 151.853 277.524 162.969C277.524 174.084 284.422 183.096 292.931 183.096C301.44 183.096 308.338 174.084 308.338 162.969Z" fill="#B93C3C"/>
<path d="M308.338 136.986C308.338 125.87 301.44 116.859 292.931 116.859C284.422 116.859 277.524 125.87 277.524 136.986C277.524 148.101 284.422 157.112 292.931 157.112C301.44 157.112 308.338 148.101 308.338 136.986Z" fill="#B93C3C"/>
<path d="M390.935 164.06C390.935 152.945 384.037 143.933 375.529 143.933C367.02 143.933 360.122 152.945 360.122 164.06C360.122 175.176 367.02 184.187 375.529 184.187C384.037 184.187 390.935 175.176 390.935 164.06Z" fill="#B93C3C"/>
<path d="M372.943 149.935L290.833 149.935" stroke="#B93C3C" stroke-width="38.1977" stroke-linecap="round"/>
<path d="M390.935 135.53C390.935 124.415 384.037 115.404 375.529 115.404C367.02 115.404 360.122 124.415 360.122 135.53C360.122 146.646 367.02 155.657 375.529 155.657C384.037 155.657 390.935 146.646 390.935 135.53Z" fill="#B93C3C"/>
<path d="M350.874 139.699C350.874 126.163 342.474 115.19 332.112 115.19C321.751 115.19 313.351 126.163 313.351 139.699C313.351 153.235 321.751 164.209 332.112 164.209C342.474 164.209 350.874 153.235 350.874 139.699Z" fill="#B93C3C"/>
<path d="M350.874 160.037C350.874 146.501 342.474 135.527 332.112 135.527C321.751 135.527 313.351 146.501 313.351 160.037C313.351 173.573 321.751 184.546 332.112 184.546C342.474 184.546 350.874 173.573 350.874 160.037Z" fill="#B93C3C"/>
<path d="M289.368 150.1L315.414 150.1" stroke="white" stroke-width="11" stroke-linecap="round"/>
<path d="M348.378 150.1L373.055 150.1" stroke="white" stroke-width="11" stroke-linecap="round"/>
<path d="M331.685 150.853L331.685 149.339" stroke="white" stroke-width="11" stroke-linecap="round" stroke-linejoin="round"/>
<path d="M41.3611 267.637C41.3611 256.522 34.4632 247.51 25.9543 247.51C17.4453 247.51 10.5475 256.522 10.5475 267.637C10.5475 278.753 17.4453 287.764 25.9543 287.764C34.4632 287.764 41.3611 278.753 41.3611 267.637Z" fill="#004900"/>
<path d="M41.3611 241.654C41.3611 230.538 34.4632 221.527 25.9543 221.527C17.4453 221.527 10.5475 230.538 10.5475 241.654C10.5475 252.77 17.4453 261.781 25.9543 261.781C34.4632 261.781 41.3611 252.77 41.3611 241.654Z" fill="#004900"/>
<path d="M123.959 268.729C123.959 257.613 117.061 248.602 108.552 248.602C100.043 248.602 93.1449 257.613 93.1449 268.729C93.1449 279.844 100.043 288.856 108.552 288.856C117.061 288.856 123.959 279.844 123.959 268.729Z" fill="#004900"/>
<path d="M105.966 254.603L23.856 254.603" stroke="#004900" stroke-width="38.1977" stroke-linecap="round"/>
<path d="M123.959 240.199C123.959 229.083 117.061 220.072 108.552 220.072C100.043 220.072 93.1449 229.083 93.1449 240.199C93.1449 251.314 100.043 260.326 108.552 260.326C117.061 260.326 123.959 251.314 123.959 240.199Z" fill="#004900"/>
<path d="M83.8972 244.368C83.8972 230.831 75.4973 219.858 65.1355 219.858C54.7737 219.858 46.3738 230.831 46.3738 244.368C46.3738 257.904 54.7737 268.877 65.1355 268.877C75.4973 268.877 83.8972 257.904 83.8972 244.368Z" fill="#004900"/>
<path d="M83.8972 264.705C83.8972 251.169 75.4973 240.196 65.1355 240.196C54.7737 240.196 46.3738 251.169 46.3738 264.705C46.3738 278.242 54.7737 289.215 65.1355 289.215C75.4973 289.215 83.8972 278.242 83.8972 264.705Z" fill="#004900"/>
<path d="M22.3906 254.769L48.4371 254.769" stroke="white" stroke-width="11" stroke-linecap="round"/>
<path d="M81.4006 254.769L106.078 254.769" stroke="white" stroke-width="11" stroke-linecap="round"/>
<path d="M64.708 255.521L64.708 254.008" stroke="white" stroke-width="11" stroke-linecap="round" stroke-linejoin="round"/>
<path d="M41.3611 59.2046C41.3611 48.0889 34.4632 39.0779 25.9543 39.0779C17.4453 39.0779 10.5475 48.0889 10.5475 59.2046C10.5475 70.3203 17.4453 79.3314 25.9543 79.3314C34.4632 79.3314 41.3611 70.3203 41.3611 59.2046Z" fill="#004900"/>
<path d="M41.3611 33.2215C41.3611 22.1058 34.4632 13.0947 25.9543 13.0947C17.4453 13.0947 10.5475 22.1058 10.5475 33.2215C10.5475 44.3372 17.4453 53.3483 25.9543 53.3483C34.4632 53.3483 41.3611 44.3372 41.3611 33.2215Z" fill="#004900"/>
<path d="M123.959 60.2961C123.959 49.1804 117.061 40.1693 108.552 40.1693C100.043 40.1693 93.1449 49.1804 93.1449 60.2961C93.1449 71.4118 100.043 80.4229 108.552 80.4229C117.061 80.4229 123.959 71.4118 123.959 60.2961Z" fill="#004900"/>
<path d="M105.966 46.1704L23.856 46.1704" stroke="#004900" stroke-width="38.1977" stroke-linecap="round"/>
<path d="M123.959 31.7662C123.959 20.6505 117.061 11.6394 108.552 11.6394C100.043 11.6394 93.1449 20.6505 93.1449 31.7662C93.1449 42.8819 100.043 51.8929 108.552 51.8929C117.061 51.8929 123.959 42.8819 123.959 31.7662Z" fill="#004900"/>
<path d="M83.8972 35.9351C83.8972 22.3989 75.4973 11.4256 65.1355 11.4256C54.7737 11.4256 46.3738 22.3989 46.3738 35.9351C46.3738 49.4713 54.7737 60.4445 65.1355 60.4445C75.4973 60.4445 83.8972 49.4713 83.8972 35.9351Z" fill="#004900"/>
<path d="M83.8972 56.2727C83.8972 42.7365 75.4973 31.7633 65.1355 31.7633C54.7737 31.7633 46.3738 42.7365 46.3738 56.2727C46.3738 69.8089 54.7737 80.7822 65.1355 80.7822C75.4973 80.7822 83.8972 69.8089 83.8972 56.2727Z" fill="#004900"/>
<path d="M22.3906 46.336L48.4371 46.336" stroke="white" stroke-width="11" stroke-linecap="round"/>
<path d="M81.4006 46.336L106.078 46.336" stroke="white" stroke-width="11" stroke-linecap="round"/>
<path d="M64.708 47.0887L64.708 45.575" stroke="white" stroke-width="11" stroke-linecap="round" stroke-linejoin="round"/>
</g>
<defs>
<clipPath id="clip0_1_1231">
<rect width="300" height="400" fill="white" transform="translate(0 300) rotate(-90)"/>
</clipPath>
</defs>
</svg>
