<svg width="400" height="300" viewBox="0 0 400 300" fill="none" xmlns="http://www.w3.org/2000/svg">
<g clip-path="url(#clip0_1_1332)">
<path fill-rule="evenodd" clip-rule="evenodd" d="M105.345 67.0933C116.55 117.074 139.975 219.541 135.013 224.702C124.408 239.097 130.861 254.384 145.156 245.284C172.055 230.657 196.8 208.281 225.953 197.498C230.18 195.437 230.838 193.374 230.806 191.313C231.389 159.884 223.845 137.616 221.053 107.585C220.559 102.859 226.121 96.6138 224.461 93.1034C222.627 89.9941 216.106 88.7001 212.017 87.8803C187.23 81.7028 165.519 62.6137 141.101 51.9458C138.18 50.5902 137.639 43.0784 134.819 43.135C124.27 44.2331 104.873 58.7203 105.345 67.0933ZM138.094 87.9349C137.797 76.7105 162.521 88.2939 163.559 92.8902C164.374 98.0102 156.437 98.8263 156.297 105.101C156.833 109.815 160.131 108.743 161.701 113.602C168.006 143.254 170.245 164.99 173.538 195.928C173.644 199.83 156.741 209.497 155.367 204.047C145.676 167.171 138.354 105.164 138.094 87.9349ZM186.885 102.697C193.583 99.0813 200.344 105.258 201.088 109.73C205.492 136.926 212.935 180.213 209.116 183.594C206.342 185.998 198.408 190.874 192.987 190.099C189.363 180.068 178.919 106.964 186.885 102.697Z" fill="#142896"/>
<path fill-rule="evenodd" clip-rule="evenodd" d="M8.63455 166.642C1.41656 183.189 14.3226 184.991 22.6187 182.767C42.3209 177.171 50.5433 169.772 64.242 160.666C66.6 159.04 71.1263 157.235 73.2836 157.509L275.751 160.034C282.089 160.011 302.137 161.136 298.976 164.841C286.924 179.483 280.16 183.909 248.704 207.394C234.144 217.429 241.931 225.308 260.984 213.127C314.258 174.884 319.339 171.624 373.246 171.059C401.704 169.596 397.286 142.454 379.233 139.92C359.755 136.831 328.729 141.403 307.294 141.586C225.343 142.283 152.868 142.36 73.6793 130.016C61.3255 127.68 51.1831 109.309 47.6283 99.4149C46.0487 95.032 33.9995 90.1494 33.5332 98.604C30.9499 121.283 18.3663 145.695 8.63455 166.642Z" fill="#142896"/>
<path fill-rule="evenodd" clip-rule="evenodd" d="M100.141 196.403C98.8657 222.072 115.538 203.075 115.116 197.307C111.974 165.36 103.74 112.7 95.718 80.1235C95.6416 77.8697 78.9528 80.2956 77.2664 95.7402C77.0178 100.435 79.8032 99.6284 81.9819 105.179C87.8359 130.068 101.703 173.772 100.141 196.403Z" fill="#142896"/>
<path fill-rule="evenodd" clip-rule="evenodd" d="M207.929 186.477C245.779 204.528 259.255 221.125 284.793 275.734C293.954 296.864 307.862 295.358 298.346 269.749C269.1 200.243 250.843 185.667 215.395 174.332L207.929 186.477Z" fill="#142896"/>
<path fill-rule="evenodd" clip-rule="evenodd" d="M208.672 143.402C236.896 121.054 312.982 90.491 301.683 73.5438C292.378 60.1656 291.279 42.9652 293.411 35.6545C296.14 26.0864 300.974 25.6264 304.109 20.2708C310.535 6.18841 302.139 9.13407 294.752 14.0223C273.686 26.6713 260.94 86.5927 204.469 124.187L208.672 143.402Z" fill="#142896"/>
</g>
<defs>
<clipPath id="clip0_1_1332">
<rect width="300" height="400" fill="white" transform="translate(0 300) rotate(-90)"/>
</clipPath>
</defs>
</svg>
